<svg version="1.1" id="Ebene_1" xmlns="http://www.w3.org/2000/svg" x="0" y="0" viewBox="0 0 105.904 136.222" xml:space="preserve">
  <style>
    .st1,.st15{opacity:.3;fill:#fff}.st15{opacity:.12}.st19,.st22{opacity:.15;fill:#fff}.st22{opacity:.1}
  </style>
  <linearGradient id="SVGID_1_" gradientUnits="userSpaceOnUse" x1="54.407" y1="99.314" x2="80.946" y2="99.314">
    <stop offset=".167" stop-color="#1b75b6"/>
    <stop offset=".333" stop-color="#1b79b6"/>
    <stop offset=".499" stop-color="#1b85b6"/>
    <stop offset=".665" stop-color="#1a99b6"/>
    <stop offset=".831" stop-color="#19b5b6"/>
    <stop offset=".995" stop-color="#18d9b6"/>
    <stop offset="1" stop-color="#18dab6"/>
  </linearGradient>
  <path d="m77.922 99.31-.007.008.007-.009z" fill="url(#SVGID_1_)"/>
  <path class="st1" d="M80.677 93.552c-.009.04-.023.08-.032.12.01-.04.023-.08.032-.12z"/>
  <path class="st1" d="M80.677 93.552c-.009.04-.023.08-.032.12.01-.04.023-.08.032-.12z"/>
  <linearGradient id="SVGID_00000047748230851961775810000002714938535680044962_" gradientUnits="userSpaceOnUse" x1="319.098" y1="52.519" x2="214.85" y2="35.485" gradientTransform="rotate(-18.856 264.36 658.513)">
    <stop offset="0" stop-color="#fd166f"/>
    <stop offset="1" stop-color="#255cfb"/>
  </linearGradient>
  <path d="M92.12 71.679z" fill="url(#SVGID_00000047748230851961775810000002714938535680044962_)"/>
  <linearGradient id="SVGID_00000132069836837801975620000000962263253788007615_" gradientUnits="userSpaceOnUse" x1="318.759" y1="54.593" x2="214.511" y2="37.559" gradientTransform="rotate(-18.856 264.36 658.513)">
    <stop offset="0" stop-color="#fd166f"/>
    <stop offset="1" stop-color="#255cfb"/>
  </linearGradient>
  <path d="M86.574 75.366z" fill="url(#SVGID_00000132069836837801975620000000962263253788007615_)"/>
  <linearGradient id="SVGID_00000119824861228752836730000000224920640663539382_" gradientUnits="userSpaceOnUse" x1="318.953" y1="53.406" x2="214.705" y2="36.372" gradientTransform="rotate(-18.856 264.36 658.513)">
    <stop offset="0" stop-color="#fd166f"/>
    <stop offset="1" stop-color="#255cfb"/>
  </linearGradient>
  <path d="M89.683 73.789z" fill="url(#SVGID_00000119824861228752836730000000224920640663539382_)"/>
  <linearGradient id="SVGID_00000050630718668068139110000007504918497263589514_" gradientUnits="userSpaceOnUse" x1="320.136" y1="46.166" x2="215.888" y2="29.132" gradientTransform="rotate(-18.856 264.36 658.513)">
    <stop offset="0" stop-color="#fd166f"/>
    <stop offset="1" stop-color="#255cfb"/>
  </linearGradient>
  <path d="M69.622 68.92z" fill="url(#SVGID_00000050630718668068139110000007504918497263589514_)"/>
  <linearGradient id="SVGID_00000010286323989211909120000009220302723326216580_" gradientUnits="userSpaceOnUse" x1="318.839" y1="54.109" x2="214.59" y2="37.075" gradientTransform="rotate(-18.856 264.36 658.513)">
    <stop offset="0" stop-color="#fd166f"/>
    <stop offset="1" stop-color="#255cfb"/>
  </linearGradient>
  <path d="M88.141 74.7z" fill="url(#SVGID_00000010286323989211909120000009220302723326216580_)"/>
  <linearGradient id="SVGID_00000003792772218768461830000008609634820358390444_" gradientUnits="userSpaceOnUse" x1="318.657" y1="55.221" x2="214.409" y2="38.187" gradientTransform="rotate(-18.856 264.36 658.513)">
    <stop offset="0" stop-color="#fd166f"/>
    <stop offset="1" stop-color="#255cfb"/>
  </linearGradient>
  <path d="M104.177 72.805c.007-.016.009-.032.015-.048-.03.064-.053.129-.084.193l.069-.145z" fill="url(#SVGID_00000003792772218768461830000008609634820358390444_)"/>
  <linearGradient id="SVGID_00000155104855510972318050000003879660434505052802_" gradientUnits="userSpaceOnUse" x1="321.075" y1="40.42" x2="216.827" y2="23.386" gradientTransform="rotate(-18.856 264.36 658.513)">
    <stop offset="0" stop-color="#fd166f"/>
    <stop offset="1" stop-color="#255cfb"/>
  </linearGradient>
  <path d="M67.976 63.627z" fill="url(#SVGID_00000155104855510972318050000003879660434505052802_)"/>
  <linearGradient id="SVGID_00000163069583870215478720000002800660091665605563_" gradientUnits="userSpaceOnUse" x1="320.352" y1="44.849" x2="216.103" y2="27.815" gradientTransform="rotate(-18.856 264.36 658.513)">
    <stop offset="0" stop-color="#fd166f"/>
    <stop offset="1" stop-color="#255cfb"/>
  </linearGradient>
  <path d="M69.05 67.75z" fill="url(#SVGID_00000163069583870215478720000002800660091665605563_)"/>
  <linearGradient id="SVGID_00000030464593959634026650000002153115521214394551_" gradientUnits="userSpaceOnUse" x1="320.827" y1="41.94" x2="216.579" y2="24.906" gradientTransform="rotate(-18.856 264.36 658.513)">
    <stop offset="0" stop-color="#fd166f"/>
    <stop offset="1" stop-color="#255cfb"/>
  </linearGradient>
  <path d="M68.213 65.156c.015.073.033.145.05.217-.017-.072-.035-.145-.05-.217z" fill="url(#SVGID_00000030464593959634026650000002153115521214394551_)"/>
  <linearGradient id="SVGID_00000087391794643940446830000013866593994661984427_" gradientUnits="userSpaceOnUse" x1="319.36" y1="50.92" x2="215.111" y2="33.886" gradientTransform="rotate(-18.856 264.36 658.513)">
    <stop offset="0" stop-color="#fd166f"/>
    <stop offset="1" stop-color="#255cfb"/>
  </linearGradient>
  <path d="M85.122 75.8c-5.659 1.34-11.658-1.08-14.87-5.839 3.196 4.799 9.115 7.226 14.87 5.839z" fill="url(#SVGID_00000087391794643940446830000013866593994661984427_)"/>
  <linearGradient id="SVGID_00000074409327436468790290000000754608492166305165_" gradientUnits="userSpaceOnUse" x1="321.317" y1="38.94" x2="217.069" y2="21.906" gradientTransform="rotate(-18.856 264.36 658.513)">
    <stop offset="0" stop-color="#fd166f"/>
    <stop offset="1" stop-color="#255cfb"/>
  </linearGradient>
  <path d="m67.906 62.327.003-.18-.003.18z" fill="url(#SVGID_00000074409327436468790290000000754608492166305165_)"/>
  <linearGradient id="SVGID_00000006708132138158246880000016290177869930565030_" gradientUnits="userSpaceOnUse" x1="318.718" y1="54.849" x2="214.469" y2="37.815" gradientTransform="rotate(-18.856 264.36 658.513)">
    <stop offset="0" stop-color="#fd166f"/>
    <stop offset="1" stop-color="#255cfb"/>
  </linearGradient>
  <path d="M86.444 75.416c-.223.077-.449.134-.674.199.204-.06.408-.106.61-.175.023-.007.043-.017.064-.024z" fill="url(#SVGID_00000006708132138158246880000016290177869930565030_)"/>
  <linearGradient id="SVGID_00000093162882686217488470000001494747111104694689_" gradientUnits="userSpaceOnUse" x1="320.576" y1="43.473" x2="216.328" y2="26.439" gradientTransform="rotate(-18.856 264.36 658.513)">
    <stop offset="0" stop-color="#fd166f"/>
    <stop offset="1" stop-color="#255cfb"/>
  </linearGradient>
  <path d="M68.685 66.837c-.016-.046-.035-.092-.05-.138.003.012.005.023.01.035.011.035.028.068.04.103z" fill="url(#SVGID_00000093162882686217488470000001494747111104694689_)"/>
  <path class="st15" d="M68.263 65.373zM68 63.862zM50.406 109.174c.376-.07.73-.16 1.076-.257-.352.093-.703.187-1.076.257zM67.978 60.795zM65.089 81.164a8.527 8.527 0 0 0-.4-.844c.152.279.274.561.4.844zM86.574 75.366l-.13.05.044-.013c.03-.01.056-.026.086-.037zM90.887 72.866l.18-.154-.18.154zM69.05 67.75c-.13-.299-.255-.6-.365-.913.074.21.148.42.232.629.04.098.091.188.133.285zM69.366 68.43zM93.009 71.23h-.485c-.13.153-.268.3-.404.449.027-.03.058-.055.085-.084.207-.23.495-.365.804-.365zM89.528 73.888c.051-.033.104-.065.155-.1-.05.035-.104.067-.155.1zM70.11 69.744a13.952 13.952 0 0 1 0 0zM88.088 74.724l.053-.025-.053.025zM67.976 63.627zM85.122 75.8c.217-.051.432-.123.648-.185-.216.063-.431.133-.648.185z"/>
  <linearGradient id="SVGID_00000114780158721829880900000000663324239756293027_" gradientUnits="userSpaceOnUse" x1="114.692" y1="51.694" x2="14.516" y2="76.24">
    <stop offset="0" stop-color="#fd166f"/>
    <stop offset="1" stop-color="#255cfb"/>
  </linearGradient>
  <path d="M67.978 60.795c.543-5.256 4.044-9.978 9.372-11.798 5.05-1.724 10.402-.39 14.05 3.01.492.46.941.966 1.362 1.502.217.277.544.445.896.445h10.134c.79 0 1.313-.812 1.001-1.538a24.52 24.52 0 0 0-1.045-2.142c-6.689-12.173-23.327-18.472-36.964-8.465-4.253 2.735-8.451 2.805-12.845-.008-2.31-1.48-4.64-2.94-7.089-4.179-5.327-2.696-7.622-6.728-7.604-12.887 0-.202-.013-.4-.019-.6C38.83 10.155 23.256 1.47 11.003 8.337a20.024 20.024 0 0 0-3.643 2.635C.953 16.765-.867 26.092 3.265 34.087c.129.25.24.503.38.75 3.888 6.823 11.392 10.235 18.89 9.279a20.26 20.26 0 0 0 7.62-2.59c4.39-2.548 8.6-2.304 12.916.729 2.145 1.507 4.332 2.974 6.715 4.067 4.998 2.292 7.453 5.834 7.333 10.669a24.923 24.923 0 0 0 .217 10.786 25.036 25.036 0 0 0 7.352 12.543c.155.282.284.563.4.844 1.296 2.91 1.147 6.004-.42 9.296-1.897 3.986-3.793 7.972-5.621 11.989-1.562 3.43-4.034 5.536-7.565 6.468-.345.098-.7.187-1.076.257-6.85 1.275-11.565 7.69-10.859 14.483.615 7.35 6.87 12 13.274 12.178 3.787.105 7.627-1.352 10.385-4.743 3.717-4.202 4.337-10.099 1.508-15.245-.888-1.616-1.369-3.2-1.509-4.781-.187-2.109.25-4.211 1.308-6.372 1.907-3.898 3.71-7.846 5.54-11.782 1.622-3.491 4.09-5.53 7.414-6.32 10.641 1.808 21.64-3.46 26.64-13.642.032-.064.055-.129.085-.193.302-.72-.236-1.527-1.029-1.527H93.01c-.309 0-.597.136-.804.365-.027.03-.058.054-.085.084-.332.36-.683.706-1.053 1.033l-.18.154a13.87 13.87 0 0 1-1.204.923c-.05.034-.104.066-.155.1-.444.292-.903.567-1.387.81l-.053.025a13.85 13.85 0 0 1-1.514.642c-.03.011-.056.026-.086.037l-.044.013-.063.024c-.203.07-.407.115-.611.175-.216.062-.43.134-.648.185-5.755 1.386-11.674-1.04-14.87-5.839a13.84 13.84 0 0 1-1.203-2.21c-.041-.097-.092-.187-.132-.285a13.913 13.913 0 0 1-.232-.629c-.012-.035-.029-.068-.04-.103-.005-.012-.007-.023-.01-.035-.15-.44-.27-.883-.372-1.326-.017-.072-.035-.144-.05-.217a13.764 13.764 0 0 1-.237-1.529 13.96 13.96 0 0 1-.07-1.3l.003-.18c.003-.453.023-.905.07-1.352z" fill="url(#SVGID_00000114780158721829880900000000663324239756293027_)"/>
  <path class="st15" d="M103.163 71.23H93.01c-.309 0-.597.136-.804.365-.027.03-.058.054-.085.084-.332.36-.683.706-1.053 1.033l-.18.154c-.383.327-.783.636-1.204.923-.05.034-.104.066-.155.1-.444.292-.903.567-1.387.81l-.053.025c-.485.242-.991.455-1.514.642-.03.011-.056.026-.086.037l-.044.013-.063.024c-.203.07-.407.115-.611.175-.216.062-.43.134-.648.185-5.755 1.386-11.674-1.04-14.87-5.839a13.852 13.852 0 0 1-1.203-2.21c-.041-.097-.092-.187-.132-.285a13.917 13.917 0 0 1-.232-.629c-.012-.035-.029-.068-.04-.103-.005-.012-.007-.023-.01-.035-.15-.44-.27-.883-.372-1.326-.017-.072-.035-.144-.05-.217a13.764 13.764 0 0 1-.237-1.529 13.964 13.964 0 0 1-.07-1.3l.003-.18c.003-.453.023-.905.07-1.352a84.465 84.465 0 0 0-10.643 6.982 25.036 25.036 0 0 0 7.352 12.543c.155.282.284.563.4.844 1.296 2.91 1.147 6.004-.42 9.296-1.897 3.986-3.793 7.972-5.621 11.989-1.562 3.43-4.034 5.536-7.565 6.468-.345.098-.7.187-1.076.257-6.85 1.275-11.565 7.69-10.859 14.483.615 7.351 6.87 12 13.274 12.178 3.787.105 7.627-1.352 10.385-4.743 3.717-4.202 4.337-10.099 1.508-15.245-.888-1.616-1.369-3.2-1.509-4.781-.187-2.109.25-4.211 1.308-6.372 1.907-3.897 3.71-7.846 5.54-11.782 1.622-3.491 4.09-5.53 7.414-6.32 10.641 1.808 21.64-3.46 26.64-13.642.032-.064.055-.129.085-.193.302-.72-.236-1.527-1.029-1.527z"/>
  <linearGradient id="SVGID_00000051363993675213940030000012230925493344181652_" gradientUnits="userSpaceOnUse" x1="216.542" y1="66.612" x2="243.711" y2="66.612" gradientTransform="rotate(-18.856 264.36 658.513)">
    <stop offset=".167" stop-color="#1b75b6"/>
    <stop offset=".333" stop-color="#1b79b6"/>
    <stop offset=".499" stop-color="#1b85b6"/>
    <stop offset=".665" stop-color="#1a99b6"/>
    <stop offset=".831" stop-color="#19b5b6"/>
    <stop offset=".995" stop-color="#18d9b6"/>
    <stop offset="1" stop-color="#18dab6"/>
  </linearGradient>
  <path d="m50.591 106.048-.003.01.003-.01z" fill="url(#SVGID_00000051363993675213940030000012230925493344181652_)"/>
  <path class="st1" d="M51.355 99.559c.005.042.005.085.01.128-.005-.043-.005-.086-.01-.128z"/>
  <path class="st1" d="M51.355 99.559c.005.042.005.085.01.128-.005-.043-.005-.086-.01-.128z"/>
  <linearGradient id="SVGID_00000003813790626833209070000006389335053414773155_" gradientUnits="userSpaceOnUse" x1="216.483" y1="26.722" x2="246.154" y2="49.298" gradientTransform="rotate(-18.856 264.36 658.513)">
    <stop offset="0" stop-color="#ff5f6d"/>
    <stop offset=".513" stop-color="#ffc24c"/>
    <stop offset="1" stop-color="#c50048"/>
  </linearGradient>
  <path d="M21.917 68.91a11.34 11.34 0 0 0-7.216 14.342c1.93 5.886 8.478 9.144 14.39 7.161a11.368 11.368 0 0 0 4.904-3.244c2.606-2.934 3.618-7.123 2.284-11.109-2-5.972-8.383-9.15-14.362-7.15z" opacity=".8" fill="url(#SVGID_00000003813790626833209070000006389335053414773155_)"/>
  <path class="st19" d="M14.92 77.49c-.216.074-.418.168-.627.25a11.397 11.397 0 0 0 .408 5.512c1.929 5.886 8.478 9.145 14.39 7.162a11.368 11.368 0 0 0 4.904-3.245c-.038-.122-.063-.245-.105-.367-2.667-7.81-11.16-11.979-18.97-9.312z"/>
  <linearGradient id="SVGID_00000085934094306347563450000006319605738680737973_" gradientUnits="userSpaceOnUse" x1="211.692" y1="33.02" x2="241.363" y2="55.596" gradientTransform="rotate(-18.856 264.36 658.513)">
    <stop offset="0" stop-color="#ff5f6d"/>
    <stop offset=".107" stop-color="#ff7466"/>
    <stop offset=".513" stop-color="#ffc24c"/>
    <stop offset="1" stop-color="#c50048"/>
  </linearGradient>
  <path d="M94.158 101.548a8.816 8.816 0 0 0-5.712.013c-4.617 1.584-7.065 6.588-5.476 11.193a8.803 8.803 0 0 0 1.69 2.918 8.813 8.813 0 0 0 9.516 2.55c4.62-1.589 7.032-6.539 5.46-11.204a8.692 8.692 0 0 0-5.478-5.47z" opacity=".8" fill="url(#SVGID_00000085934094306347563450000006319605738680737973_)"/>
  <path class="st19" d="M94.158 101.548a8.816 8.816 0 0 0-5.712.013c-4.617 1.584-7.065 6.588-5.476 11.193a8.802 8.802 0 0 0 1.69 2.918 14.934 14.934 0 0 0 9.498-14.124z"/>
  <linearGradient id="SVGID_00000163781384109112198090000007816461909538167687_" gradientUnits="userSpaceOnUse" x1="263.786" y1="-35.448" x2="293.458" y2="-12.872" gradientTransform="rotate(-18.856 264.36 658.513)">
    <stop offset="0" stop-color="#ff5f6d"/>
    <stop offset=".513" stop-color="#ffc24c"/>
    <stop offset="1" stop-color="#c50048"/>
  </linearGradient>
  <path d="M65.417 1.008c-1.155.38-2.204.928-3.136 1.603a11.338 11.338 0 0 0-4.115 12.73c1.943 5.938 8.411 9.185 14.357 7.208a11.418 11.418 0 0 0 7.443-7.912c.545-2.05.528-4.27-.186-6.426-1.97-5.947-8.392-9.168-14.363-7.203z" opacity=".8" fill="url(#SVGID_00000163781384109112198090000007816461909538167687_)"/>
  <path class="st19" d="M65.417 1.008c-1.155.38-2.204.928-3.136 1.603.133.745.304 1.489.556 2.226 2.459 7.2 9.868 11.29 17.129 9.8.545-2.05.528-4.27-.186-6.426-1.97-5.947-8.392-9.168-14.363-7.203z"/>
  <path class="st22" d="M7.36 10.972C.953 16.766-.867 26.093 3.265 34.087c.129.25.24.503.38.75 3.888 6.823 11.392 10.235 18.89 9.279.902-4.098.954-8.423.047-12.72a30.577 30.577 0 0 0-.975-3.573c-2.563-7.506-7.782-13.35-14.247-16.851z"/>
  <path class="st22" d="M11.003 8.337a20.023 20.023 0 0 0-3.643 2.635C.953 16.766-.867 26.093 3.265 34.087a68.89 68.89 0 0 0 19.317-2.69 69.192 69.192 0 0 0 3.248-1.013 69.241 69.241 0 0 0 13.397-6.25C38.83 10.156 23.256 1.47 11.003 8.338zM52.821 135.835c3.787.105 7.627-1.352 10.385-4.743 3.717-4.202 4.337-10.099 1.508-15.245-.888-1.616-1.369-3.2-1.509-4.781-8.039 5.36-12.233 15.108-10.384 24.769z"/>
  <path class="st15" d="M105.393 53.954c-.449-1.275-1-2.505-1.645-3.68-4.108.27-8.232.845-12.348 1.734a13.966 13.966 0 0 1 1.7 1.946h12.293z"/>
</svg>
