<?xml version="1.0" encoding="utf-8"?>
<!-- Generator: Adobe Illustrator 27.0.0, SVG Export Plug-In . SVG Version: 6.00 Build 0)  -->
<svg version="1.1" id="Ebene_1" xmlns="http://www.w3.org/2000/svg" xmlns:xlink="http://www.w3.org/1999/xlink" x="0px" y="0px"
	 width="16px" height="16px" viewBox="0 0 16 16" style="enable-background:new 0 0 16 16;" xml:space="preserve">
<style type="text/css">
	.st0{fill:#A582B9;}
	.st1{fill:#D4C6E2;}
	.st2{fill:#F3B818;}
	.st3{fill:#F7CC29;}
	.st4{fill:#FFFFFF;}
	.st5{fill:#B1B1B1;}
	.st6{fill:#D9D9D9;}
	.st7{fill:#ADAAD5;}
	.st8{fill:#CDBFDE;}
	.st9{fill:#A473AE;}
	.st10{fill:#E57C11;}
	.st11{fill:#F2951D;}
	.st12{fill:#449586;}
	.st13{fill:#C9AAD1;}
	.st14{fill:#6FBEB3;}
	.st15{fill:#619130;}
	.st16{fill:#91C042;}
	.st17{fill:#BCD150;}
</style>
<g>
	<g>
		<g>
			<g>
				<g>
					<polygon class="st0" points="4.577,0.103 13.72,0.103 9.148,8.021 0.006,8.021 					"/>
					<polygon class="st1" points="4.577,15.94 0.006,8.021 9.148,8.021 13.72,15.94 					"/>
					<polygon class="st2" points="11.434,4.061 16.006,4.061 13.72,8.021 9.148,8.021 					"/>
					<polygon class="st3" points="11.434,4.061 9.148,0.103 13.72,0.103 16.006,4.061 					"/>
					<polygon class="st4" points="11.434,4.061 9.148,8.021 6.863,4.061 9.148,0.103 					"/>
					<polygon class="st5" points="11.434,11.98 16.006,11.98 13.72,15.94 9.148,15.94 					"/>
					<polygon class="st6" points="11.434,11.98 9.148,8.021 13.72,8.021 16.006,11.98 					"/>
					<polygon class="st4" points="11.434,11.98 9.148,15.94 6.863,11.98 9.148,8.021 					"/>
					<polygon class="st7" points="4.577,8.021 9.148,8.021 6.863,11.98 2.291,11.98 					"/>
					<polygon class="st8" points="4.577,8.021 2.291,4.061 6.863,4.061 9.148,8.021 					"/>
					<polygon class="st6" points="4.577,8.021 2.291,11.98 0.006,8.021 2.291,4.061 					"/>
					<polygon class="st9" points="6.863,4.061 11.434,4.061 9.148,8.021 4.577,8.021 					"/>
					<polygon class="st10" points="6.863,4.061 4.577,0.103 9.148,0.103 11.434,4.061 					"/>
					<polygon class="st11" points="6.863,4.061 4.577,8.021 2.291,4.061 4.577,0.103 					"/>
					<polygon class="st12" points="6.863,11.98 11.434,11.98 9.148,15.94 4.577,15.94 					"/>
					<polygon class="st13" points="6.863,11.98 4.577,8.021 9.148,8.021 11.434,11.98 					"/>
					<polygon class="st14" points="6.863,11.98 4.577,15.94 2.291,11.98 4.577,8.021 					"/>
					<polygon class="st4" points="13.72,8.021 11.434,11.98 9.148,8.021 11.434,4.061 					"/>
					<polygon class="st15" points="9.148,8.021 13.72,8.021 11.434,11.98 6.863,11.98 					"/>
					<polygon class="st16" points="9.148,8.021 6.863,4.061 11.434,4.061 13.72,8.021 					"/>
					<polygon class="st17" points="9.148,8.021 6.863,11.98 4.577,8.021 6.863,4.061 					"/>
				</g>
			</g>
		</g>
	</g>
</g>
</svg>
