<?xml version="1.0" encoding="utf-8"?>
<!-- Generator: Adobe Illustrator 26.5.2, SVG Export Plug-In . SVG Version: 6.00 Build 0)  -->
<svg fill="#566974" version="1.1" id="Ebene_1" xmlns="http://www.w3.org/2000/svg" xmlns:xlink="http://www.w3.org/1999/xlink" x="0px" y="0px"
	 viewBox="0 0 100 49.92" style="enable-background:new 0 0 100 49.92;" xml:space="preserve">
<path d="M53.26,25.604l7.602-7.601c0.389-0.389,0.603-0.905,0.603-1.454s-0.214-1.065-0.603-1.455c-0.803-0.801-2.106-0.8-2.909,0
	l-7.601,7.601l-7.601-7.601c-0.788-0.788-2.12-0.789-2.908,0c-0.389,0.389-0.604,0.905-0.604,1.455c0,0.55,0.214,1.065,0.604,1.454
	l7.6,7.601l-7.6,7.601c-0.389,0.389-0.604,0.905-0.604,1.454s0.214,1.065,0.603,1.454c0.373,0.373,0.903,0.588,1.455,0.588l0,0
	c0.551-0.001,1.082-0.215,1.454-0.588l7.601-7.601l7.601,7.602c0.39,0.388,0.906,0.602,1.454,0.602c0.549,0,1.065-0.214,1.456-0.603
	c0.388-0.39,0.602-0.906,0.602-1.454s-0.214-1.064-0.603-1.454L53.26,25.604z"/>
<g>
	<path d="M96.713,22.371H74.331c-0.514-4.705-2.374-9.006-5.173-12.529l-3.756,3.756c2.385,3.204,3.816,7.159,3.816,11.452
		c0,10.609-8.632,19.24-19.24,19.24c-4.293,0-8.248-1.43-11.452-3.816l-3.748,3.748c4.181,3.324,9.455,5.328,15.201,5.328
		c12.526,0,22.881-9.45,24.324-21.594h22.411c1.543,0,2.793-1.251,2.793-2.793S98.256,22.371,96.713,22.371z"/>
	<path d="M30.738,25.05c0-10.609,8.631-19.24,19.24-19.24c4.747,0,9.09,1.737,12.449,4.597l3.728-3.728
		c-4.319-3.809-9.979-6.131-16.177-6.131c-12.605,0-23.015,9.569-24.353,21.824H3.3c-1.543,0-2.793,1.251-2.793,2.793
		c0,1.543,1.251,2.793,2.793,2.793h22.354c0.601,5.054,2.761,9.626,5.962,13.26l3.718-3.718
		C32.475,34.14,30.738,29.797,30.738,25.05z"/>
</g>
</svg>
