<?xml version="1.0" encoding="utf-8"?>
<!-- Generator: Adobe Illustrator 26.5.2, SVG Export Plug-In . SVG Version: 6.00 Build 0)  -->
<svg fill="#566974" version="1.1" id="Ebene_1" xmlns="http://www.w3.org/2000/svg" xmlns:xlink="http://www.w3.org/1999/xlink" x="0px" y="0px"
	 viewBox="0 0 100 49.92" style="enable-background:new 0 0 100 49.92;" xml:space="preserve">
<path d="M96.713,22.371H74.331C72.992,10.116,62.583,0.547,49.978,0.547s-23.015,9.569-24.353,21.824H3.3
	c-1.543,0-2.793,1.251-2.793,2.793c0,1.543,1.251,2.793,2.793,2.793h22.354c1.444,12.144,11.798,21.594,24.324,21.594
	s22.881-9.45,24.324-21.594h22.411c1.543,0,2.793-1.251,2.793-2.793C99.506,23.622,98.256,22.371,96.713,22.371z M49.978,44.29
	c-10.609,0-19.24-8.631-19.24-19.24s8.631-19.24,19.24-19.24s19.24,8.631,19.24,19.24S60.586,44.29,49.978,44.29z"/>
<g>
	<path d="M61.897,17.759l-0.964-0.965c-0.614-0.613-1.685-0.614-2.302,0.001L45.355,30.072l-5.099-5.098
		c-0.306-0.307-0.716-0.477-1.149-0.477c-0.435,0-0.844,0.169-1.15,0.477l-0.964,0.964c-0.307,0.306-0.477,0.715-0.477,1.149
		s0.169,0.844,0.477,1.15l7.695,7.696c0.351,0.355,0.989,0.351,1.335,0.002l0.001-0.002l15.873-15.874
		c0.309-0.306,0.478-0.715,0.478-1.149S62.204,18.067,61.897,17.759z"/>
</g>
</svg>
