<?xml version="1.0" encoding="utf-8"?>
<!-- Generator: Adobe Illustrator 26.5.2, SVG Export Plug-In . SVG Version: 6.00 Build 0)  -->
<svg fill="#a86363" id="Ebene_1" xmlns="http://www.w3.org/2000/svg" xmlns:xlink="http://www.w3.org/1999/xlink" x="0px" y="0px"
	 viewBox="0 0 100 49.9" style="enable-background:new 0 0 100 49.9;" xml:space="preserve">
<g>
	<path d="M60.6,15.4c-0.7-0.7-1.7-0.7-2.4,0l-7.9,7.9l-7.9-7.9c-0.3-0.3-0.7-0.5-1.2-0.5h0c-0.5,0-0.9,0.2-1.2,0.5
		c-0.3,0.3-0.5,0.7-0.5,1.2s0.2,0.9,0.5,1.2l7.9,7.9l-7.9,7.9c-0.3,0.3-0.5,0.7-0.5,1.2s0.2,0.9,0.5,1.2c0.6,0.6,1.8,0.6,2.4,0
		l7.9-7.9l7.9,7.9c0.6,0.6,1.7,0.6,2.4,0c0.3-0.3,0.5-0.7,0.5-1.2c0-0.4-0.2-0.9-0.5-1.2l-7.9-7.9l7.9-7.9c0.3-0.3,0.5-0.7,0.5-1.2
		S60.9,15.7,60.6,15.4z"/>
	<path d="M96.7,23.1H73.7l-0.1-0.7c-0.5-4.1-2-8.1-4.5-11.5l-2.7,2.7C68.7,17,70,21,70,25c0,11-9,20-20,20c-4.1,0-8-1.2-11.4-3.6
		l-2.7,2.7c4.1,3,9,4.7,14.1,4.7c12,0,22.2-9,23.6-20.9l0.1-0.7h23.1c1.1,0,2-0.9,2-2C98.8,24,97.8,23.1,96.7,23.1z"/>
	<path d="M50,5.1c4.5,0,8.9,1.5,12.4,4.3l2.7-2.7C60.8,3.2,55.5,1.3,50,1.3c-12.1,0-22.3,9.1-23.6,21.2l-0.1,0.7h-23
		c-1.1,0-2,0.9-2,2c0,1.1,0.9,2,2,2h23l0.1,0.7c0.5,4.5,2.3,8.7,5.3,12.2l2.7-2.7C31.5,33.9,30,29.5,30,25C30,14,39,5.1,50,5.1z"/>
</g>
</svg>
