<?xml version="1.0" encoding="utf-8"?>
<!-- Generator: Adobe Illustrator 26.5.2, SVG Export Plug-In . SVG Version: 6.00 Build 0)  -->
<svg fill="#566974" version="1.1" id="Ebene_1" xmlns="http://www.w3.org/2000/svg" xmlns:xlink="http://www.w3.org/1999/xlink" x="0px" y="0px"
	 viewBox="0 0 100 49.9" style="enable-background:new 0 0 100 49.9;" xml:space="preserve">
<g>
	<path d="M96.7,23.1H73.7l-0.1-0.7C72.3,10.4,62.1,1.3,50,1.3c-12.1,0-22.3,9.1-23.6,21.2l-0.1,0.7h-23c-1.1,0-2,0.9-2,2
		c0,1.1,0.9,2,2,2h23l0.1,0.7C27.8,39.8,38,48.8,50,48.8c12,0,22.2-9,23.6-20.9l0.1-0.7h23.1c1.1,0,2-0.9,2-2
		C98.8,24,97.8,23.1,96.7,23.1z M50,45c-11,0-20-9-20-20s9-20,20-20c11,0,20,9,20,20S61,45,50,45z"/>
	<path d="M60.6,17.1c-0.4-0.4-1.2-0.4-1.6,0L45.4,30.8l-5.5-5.5c-0.2-0.2-0.5-0.3-0.8-0.3c-0.3,0-0.6,0.1-0.8,0.3l-1,1
		c-0.2,0.2-0.3,0.5-0.3,0.8c0,0.3,0.1,0.6,0.3,0.8l7.7,7.7c0.1,0.1,0.2,0.1,0.3,0.1c0,0,0,0,0,0c0.1,0,0.2,0,0.3-0.1l15.9-15.9
		c0.2-0.2,0.3-0.5,0.3-0.8c0-0.3-0.1-0.6-0.3-0.8L60.6,17.1z"/>
</g>
</svg>
