<?xml version="1.0" encoding="utf-8"?>
<svg version="1.1" id="Ebene_1" xmlns="http://www.w3.org/2000/svg" xmlns:xlink="http://www.w3.org/1999/xlink" x="0px" y="0px"
	 viewBox="0 0 60 60" style="enable-background:new 0 0 60 60;" xml:space="preserve">
<style type="text/css">
	.st0{fill:#566974;stroke:url(#SVGID_1_);stroke-miterlimit:10;}
</style>
<g id="Layer_1">
	<linearGradient id="SVGID_1_" gradientUnits="userSpaceOnUse" x1="0.4881" y1="30.4002" x2="59.5" y2="30.4002">
		<stop  offset="0" style="stop-color:#566974"/>
		<stop  offset="1" style="stop-color:#D4EDFF"/>
	</linearGradient>
	<path class="st0" d="M5.1,53.9l-3.2,3.2c-0.2,0.2-0.5,0.2-0.8,0C1,57,1,56.9,1,56.7c0.4-4.6,2.7-8.8,6.4-11.5
		c-0.7,2.1-2,6.2-2.1,8.3C5.3,53.7,5.2,53.8,5.1,53.9z M44.4,18.8L42,17.6c-0.5-0.3-1.2-0.1-1.4,0.5c-0.3,0.5-0.1,1.2,0.5,1.4
		c0,0,0,0,0,0l1,0.5c-3.7,1.8-7.1,4.2-10,7.2c-1.7,0.7-3.6,1-5.5,0.9c-0.6,0-1.1,0.4-1.1,1c0,0,0,0,0,0.1c0,0.6,0.5,1.1,1.1,1.1
		c0,0,0,0,0.1,0c1.1,0,2.2-0.1,3.2-0.2c-1.2,1.8-2.3,3.8-3.1,5.8c-2.8,1.8-4.6,1.9-7.7,1.9c-0.6,0-1.1,0.5-1.1,1.1s0.5,1.1,1.1,1.1
		c2,0.1,4.1-0.1,6-0.8c-3.8,6-8.4,5.7-13.7,5.3c-0.6,0-1.3-0.1-2-0.1C15.7,29.5,29,18.8,50.5,11c0.6-0.2,0.8-0.8,0.6-1.4
		c-0.2-0.6-0.8-0.8-1.4-0.6c-19,6.9-31.8,16.1-39.1,28.2c0,0,0,0.1-0.1,0.1c-0.9,1.6-2,3.1-3.1,4.6c-2.1-4.8-2.1-8.8-0.9-12.2
		c0.2,1.1,0.5,2.1,0.9,3.1c0.2,0.5,0.9,0.8,1.4,0.5c0.5-0.2,0.8-0.9,0.5-1.4l0,0c-0.8-1.9-1.1-3.9-1-5.9c2-2.7,4.5-5.1,7.3-6.9
		c-1.2,1.7-1.8,3.7-2,5.8c0,0.6,0.5,1.1,1.1,1.1c0.6,0,1.1-0.5,1.1-1.1c0-0.9,0.4-4,4.9-9c4.9-2.9,10.1-5.1,15.6-6.6l-0.1,0.2
		c-0.3,0.5,0,1.2,0.5,1.4c0.5,0.3,1.2,0,1.4-0.5l1-1.9c2.9-0.8,5.7-1.4,8.3-2c3.6-0.7,7.2-1.7,10.7-3c0.3-0.1,0.6,0,0.7,0.3
		C59,4,59,4.1,59,4.3C55.3,12.7,50,15.9,44.4,18.8z"/>
</g>
</svg>
