<?xml version="1.0" encoding="utf-8"?>
<!-- Generator: Adobe Illustrator 27.4.1, SVG Export Plug-In . SVG Version: 6.00 Build 0)  -->
<svg version="1.1" id="Ebene_1" xmlns="http://www.w3.org/2000/svg" xmlns:xlink="http://www.w3.org/1999/xlink" x="0px" y="0px"
	 viewBox="0 0 51.9 51.2" style="enable-background:new 0 0 51.9 51.2;" xml:space="preserve">
<style type="text/css">
	.st0{display:none;fill:#283149;}
	.st1{fill:#283149;}
</style>
<g>
	<path class="st0" d="M6.4,61.3c0-23.5,0-47,0-70.5c84.7,0,169.4,0,254,0c0,23.5,0,47,0,70.5C175.8,61.3,91.1,61.3,6.4,61.3z
		 M34,29.1c0.1-0.1,0.2-0.1,0.3-0.1c3-0.7,4.2-4.1,2.6-6.4c-0.1-0.1,0-0.5,0.1-0.7c1-1,2.1-2,3.1-3.1c0.3-0.3,0.6-0.4,1-0.2
		c0.8,0.4,1.7,0.4,2.5,0c1.7-0.7,2.4-2.7,1.7-4.3c-0.7-1.6-2.6-2.3-4.3-1.6c-1.6,0.7-2.3,2.7-1.6,4.4c0.1,0.2,0.2,0.5,0.1,0.6
		c-1.2,1.3-2.4,2.5-3.6,3.7c-1.7-0.9-3.2-1-4.8-0.1c-0.1,0.1-0.5,0-0.6-0.2c-0.7-0.6-1.3-1.3-2-1.9c-0.3-0.3-0.4-0.5-0.2-0.9
		c0.3-0.9,0.2-1.8-0.5-2.5c-0.6-0.7-1.4-0.9-2.3-0.7c-1.4,0.3-2.3,1.7-1.9,3.1c0.4,1.4,1.8,2.1,3.2,1.7c0.2-0.1,0.5-0.1,0.6,0
		c0.9,0.8,1.7,1.7,2.5,2.5c-0.2,0.6-0.4,1-0.6,1.5c-0.1,0.4-0.3,0.5-0.7,0.5c-1,0-2,0-3,0c-0.5,0-0.7-0.1-0.9-0.6
		c-0.7-1.8-2.8-2.6-4.5-1.7c-1.2,0.7-1.9,2.1-1.7,3.4c0.3,1.5,1.4,2.5,2.8,2.6c1.5,0.1,2.8-0.6,3.3-2c0.2-0.4,0.4-0.5,0.8-0.5
		c0.8,0,1.6,0.1,2.4,0c0.8-0.1,1.4,0.1,1.6,1c0,0.2,0.2,0.4,0.3,0.6c0.7,1,1.7,1.6,2.9,1.9c0,1.2,0,2.4,0,3.6c0,0.5-0.1,0.8-0.7,1
		c-1.3,0.5-1.9,1.5-2,2.8c-0.1,1.4,0.6,2.4,1.9,3c1.2,0.6,2.4,0.4,3.4-0.5c1.9-1.6,1.4-4.4-0.9-5.5c-0.2-0.1-0.5-0.3-0.5-0.5
		C34,31.8,34,30.4,34,29.1z M61.3,28.6c0.3,0,0.6,0,0.9,0c1.4,0,2.8,0,4.2-0.1c2.9-0.3,4.6-2.4,4.6-5.4c-0.1-2.9-1.9-4.9-4.8-5.1
		c-2.6-0.1-5.2-0.1-7.8-0.1c-0.6,0-0.8,0.2-0.8,0.8c0,5,0,10,0,15c0,0.2,0,0.5,0,0.8c1.2,0,2.4,0,3.6,0
		C61.3,32.5,61.3,30.6,61.3,28.6z M104.6,23.9c-0.5-0.4-0.9-0.8-1.3-1.1c-2.6-1.5-5.8-0.4-7.1,2.5c-0.9,2.2-0.9,4.4,0.1,6.6
		c0.9,2,2.5,3,4.7,3c1.5,0,2.7-0.5,3.7-1.8c0,0.6,0.1,1,0.1,1.4c1.1,0,2,0,3.1,0c0-5.5,0-11,0-16.5c-1.1,0-2.1,0-3.3,0
		C104.6,19.9,104.6,21.9,104.6,23.9z M194.3,26.2c0.9,0,1.8,0,2.7,0c0.4,0,0.6-0.1,0.6-0.5c0.1-0.6,0.6-1.1,1.2-1.2
		c0.7-0.1,1.4-0.1,2.1,0c0.7,0.1,1,0.7,1,1.4c0,0.7-0.3,1.1-1,1.2c-0.3,0.1-0.7,0.2-1,0.2c-1.2,0.2-2.5,0.3-3.6,0.7
		c-1.6,0.4-2.4,1.6-2.4,3.3c0,1.8,0.9,3,2.6,3.4c0.7,0.2,1.5,0.2,2.3,0.1c1.2-0.1,2.3-0.5,3.1-1.3c0.2,0.4,0.4,1,0.7,1
		c1,0.1,2,0,2.8,0c-0.1-1.5-0.1-2.9-0.1-4.3c0-1.5,0-3,0-4.5c0-1.6-0.9-2.7-2.5-3.1c-0.7-0.2-1.3-0.3-2-0.3c-1.5-0.1-3,0-4.4,0.7
		C195,23.6,194.3,24.6,194.3,26.2z M231.2,30.9c-0.9,0-1.7,0-2.5,0c-0.2,0-0.4,0.1-0.4,0.2c-0.9,1.2-2.2,1.5-3.6,1.2
		c-1.3-0.3-2.1-1.6-1.8-3c2.8,0,5.7,0,8.6,0c0-0.5,0-0.9,0-1.3c-0.3-4.9-5.2-7.5-9.3-4.9c-3,1.9-3.6,6.8-1.3,9.6
		c1.8,2.2,5.6,2.8,8.1,1.3C230,33.3,230.8,32.3,231.2,30.9z M93.9,28.5c0-0.2,0-0.5-0.1-0.7c-0.2-2.4-1.3-4.2-3.6-5.1
		c-2.4-0.9-4.8-0.7-6.9,1.1c-2.5,2.2-2.4,6.7-0.7,8.9c1.6,2,4.6,2.9,7.2,2C92.4,33.7,93.9,31.5,93.9,28.5z M110.4,22.6
		c0,1.7,0,3.3,0,5c0,1.3,0,2.6,0.1,3.8c0.1,1.4,0.7,2.7,2.2,3.1c0.9,0.3,1.9,0.3,2.8,0.3c1.3-0.1,2.3-0.8,3.1-1.8c0,0.5,0,1,0,1.5
		c0.9,0,1.6,0,2.4,0c0.6,0,0.7-0.2,0.7-0.7c0-3.5,0-7.1,0-10.6c0-0.2,0-0.4,0-0.6c-1.1,0-2.2,0-3.3,0c0,2.1,0,4,0,6
		c0,0.8-0.1,1.6-0.4,2.4c-0.3,1-1.3,1.5-2.5,1.3c-1-0.1-1.6-0.6-1.7-1.7c-0.1-0.5-0.1-1-0.1-1.6c0-1.9,0-3.8,0-5.7
		c0-0.2,0-0.5,0-0.7C112.6,22.6,111.5,22.6,110.4,22.6z M162.7,22.6c-1.1,0-2.1,0-3.1,0c0,4,0,7.9,0,11.9c1.1,0,2.1,0,3.2,0
		c0-0.3,0-0.5,0-0.8c0-1.9,0-3.7,0-5.6c0-0.7,0.1-1.4,0.4-2.1c0.3-1,1.2-1.4,2.4-1.3c1,0.1,1.6,0.5,1.8,1.6c0.1,0.6,0.2,1.2,0.2,1.8
		c0,1.9,0,3.8,0,5.7c0,0.3-0.1,0.6,0.4,0.6c0.9,0,1.9,0,2.8,0c0.1-0.1,0.1-0.2,0.1-0.2c0-2.9,0-5.9-0.1-8.8
		c-0.1-1.4-0.8-2.6-2.3-3.1c-1.1-0.3-2.2-0.4-3.3-0.1c-1.1,0.3-1.8,0.9-2.5,1.9C162.7,23.6,162.7,23.1,162.7,22.6z M183.7,25.9
		c-0.1-1.6-0.9-2.7-2.3-3.2c-2.1-0.8-4.3-0.8-6.4,0.2c-1.4,0.7-1.9,1.9-1.8,3.4c0.1,1.4,1,2.1,2.2,2.5c0.8,0.3,1.5,0.4,2.3,0.7
		c0.7,0.2,1.5,0.4,2.2,0.7c0.5,0.2,0.9,0.5,0.9,1.2c0,0.6-0.4,1-1,1.2c-1.5,0.6-3.5,0.2-3.9-1.7c-1,0-2,0-3,0
		c-0.1,1.5,0.9,3,2.4,3.6c2.1,0.9,4.3,0.8,6.4,0c1.7-0.7,2.5-2,2.4-3.8c-0.1-1.7-1.2-2.4-2.6-2.8c-0.8-0.3-1.6-0.4-2.3-0.6
		c-0.7-0.2-1.5-0.4-2.1-0.7c-0.3-0.1-0.5-0.7-0.5-1c0-0.3,0.4-0.7,0.7-0.8c1.4-0.3,3-0.4,3.5,1.4C181.7,25.9,182.7,25.9,183.7,25.9z
		 M132.8,30c-0.1,0.2-0.1,0.5-0.2,0.7c-0.4,1-1.1,1.6-2.2,1.7c-1.1,0.1-1.9-0.3-2.4-1.2c-0.9-1.8-0.9-3.7,0.1-5.4
		c0.6-0.9,1.4-1.2,2.5-1.1c1,0.1,1.7,0.7,2,1.7c0,0.1,0.1,0.2,0.2,0.4c0.5,0,1,0,1.5,0c0.5,0,1,0,1.8,0c-0.3-0.9-0.5-1.6-0.9-2.2
		c-1.7-2.9-6.7-2.9-8.8-1.2c-1.7,1.4-2.3,3.2-2.4,5.3c0,3.4,2,5.8,5.3,6.2c3.5,0.4,6.2-1.6,6.6-4.8C134.8,30,133.8,30,132.8,30z
		 M187,24.7c0,0.4,0,0.7,0,0.9c0,2.1,0,4.3,0,6.4c0,1.3,0.6,2.1,1.8,2.4c1.3,0.3,2.5,0.3,3.9,0.1c0-0.8,0-1.6,0-2.4
		c-0.4,0-0.7,0-1,0c-1.1,0-1.4-0.3-1.4-1.4c0-1,0-2,0-3c0-1,0-2,0-3.1c0.7,0,1.3,0,1.9,0c0.2,0,0.5-0.2,0.5-0.4c0.1-0.6,0-1.1,0-1.8
		c-0.8,0-1.6,0-2.5,0c0-1.3,0-2.4,0-3.6c-1.1,0-2.2,0-3.3,0c0,1.2,0,2.4,0,3.6c-0.7,0-1.3,0-2,0c0,0.8,0,1.4,0,2.2
		C185.7,24.7,186.3,24.7,187,24.7z M138.7,24.7c0,2.3,0,4.4,0,6.6c0,0.4,0,0.9,0.1,1.3c0.1,0.8,0.5,1.4,1.3,1.7
		c1.4,0.6,2.9,0.5,4.3,0.3c0-0.9,0-1.7,0-2.5c-0.3,0-0.5,0-0.8,0c-1.3,0-1.6-0.3-1.6-1.6c0-1.1,0-2.2,0-3.3c0-0.8,0-1.6,0-2.5
		c0.9,0,1.6,0,2.4,0c0-0.8,0-1.4,0-2.2c-0.8,0-1.6,0-2.4,0c0-1.2,0-2.4,0-3.6c-1.1,0-2.2,0-3.3,0c0,1.2,0,2.4,0,3.6
		c-0.7,0-1.3,0-1.9,0c0,0.8,0,1.4,0,2.1C137.4,24.7,138,24.7,138.7,24.7z M156.6,17.9c-1,0-1.9,0-2.8,0c-0.7,0-0.8,0.2-0.8,0.8
		c0,5,0,10,0,15c0,0.2,0,0.3,0,0.5c0,0.1,0.2,0.3,0.3,0.3c1.1,0,2.2,0,3.3,0C156.6,28.9,156.6,23.5,156.6,17.9z M217.2,34.5
		c0-5.6,0-11.1,0-16.6c-0.9,0-1.7,0-2.5,0c-0.7-0.1-0.8,0.2-0.8,0.8c0,5,0,10,0,15c0,0.1,0,0.3,0,0.4c0.1,0.1,0.2,0.4,0.4,0.4
		C215.3,34.5,216.3,34.5,217.2,34.5z M208,17.9c0,5.6,0,11.1,0,16.6c1.1,0,2.1,0,3.2,0c0-0.3,0-0.6,0-0.9c0-4.6,0-9.2,0-13.7
		c0-0.5,0-1,0-1.5c0-0.2-0.2-0.4-0.4-0.4C209.9,17.9,209,17.9,208,17.9z M233.5,22.6c0,4,0,7.9,0,12c0.8,0,1.5,0,2.2,0c1,0,1,0,1-1
		c0-1.8,0-3.7,0.1-5.5c0.2-1.9,1.4-2.8,3.3-2.8c0.4,0,0.7,0,1.1,0c0-1,0-2,0-3c-2.1-0.4-3.5,0.7-4.7,2.3c0-0.7,0-1.3,0-2
		C235.5,22.6,234.5,22.6,233.5,22.6z M76.3,34.5c0-0.4,0-0.6,0-0.9c0-1.6,0-3.2,0-4.8c0-2.5,1.3-3.7,3.8-3.6c0.2,0,0.4,0,0.7,0
		c0-1,0-2,0-3c-2.1-0.3-3.5,0.7-4.7,2.3c0-0.7,0-1.3,0-2c-1.1,0-2.1,0-3.1,0c0,0.9,0,1.6,0,2.4c0,3,0,5.9,0,8.9
		c0,0.3-0.1,0.6,0.4,0.6C74.3,34.5,75.3,34.5,76.3,34.5z"/>
	<path class="st1" d="M27.8,29.8c0,1.9,0,3.7,0,5.5c0,0.2,0.4,0.6,0.7,0.7c3.2,1.5,3.9,5.3,1.3,7.5c-1.4,1.2-3,1.4-4.7,0.6
		c-1.7-0.8-2.6-2.2-2.6-4.1c0.1-1.8,1-3.2,2.7-3.8c0.8-0.3,0.9-0.7,0.9-1.4c0-1.6,0-3.3,0-4.9c-1.7-0.4-3-1.1-4-2.5
		c-0.2-0.3-0.4-0.5-0.4-0.8c-0.2-1.3-1-1.5-2.1-1.4c-1.1,0.1-2.2,0-3.3,0c-0.6,0-0.9,0.1-1.1,0.7c-0.7,1.9-2.5,3-4.5,2.8
		C8.7,28.4,7.2,27,6.7,25c-0.4-1.8,0.6-3.7,2.3-4.7c2.3-1.3,5.2-0.2,6.2,2.3c0.3,0.7,0.6,0.8,1.2,0.8c1.4,0,2.7,0,4.1,0
		c0.5,0,0.8-0.1,0.9-0.7c0.2-0.7,0.5-1.3,0.8-2.1c-1.1-1.1-2.2-2.3-3.4-3.4c-0.1-0.1-0.6-0.1-0.8,0c-2,0.6-3.9-0.4-4.4-2.3
		c-0.5-1.9,0.6-3.8,2.6-4.2c1.2-0.3,2.3,0.1,3.2,1c0.9,1,1.1,2.2,0.7,3.4c-0.2,0.6,0,0.8,0.3,1.2c0.9,0.9,1.8,1.8,2.7,2.6
		c0.2,0.2,0.7,0.3,0.8,0.2c2.1-1.3,4.2-1.2,6.5,0.1c1.6-1.7,3.3-3.3,4.9-5.1c0.1-0.1,0-0.6-0.1-0.8c-1.1-2.3-0.1-5,2.1-6
		c2.2-1,4.8,0,5.8,2.2c1,2.3,0,4.9-2.3,5.9c-1.1,0.5-2.3,0.5-3.4,0c-0.5-0.2-0.9-0.2-1.3,0.2c-1.4,1.4-2.8,2.8-4.2,4.2
		c-0.2,0.2-0.3,0.7-0.2,0.9c2.1,3.1,0.5,7.8-3.6,8.8C28,29.7,28,29.7,27.8,29.8z M27,28.1c2.2,0,4-1.8,4-4c0-2.2-1.9-4-4.1-4
		c-2.1,0-4,1.8-4,4C22.9,26.3,24.7,28.1,27,28.1z"/>
</g>
</svg>
