<?xml version="1.0" encoding="UTF-8"?>
<svg id="Ebene_1" data-name="Ebene 1" xmlns="http://www.w3.org/2000/svg" xmlns:xlink="http://www.w3.org/1999/xlink" viewBox="0 0 263.25 247.09">
  <defs>
    <style>
      .cls-1 {
        fill: url(#Unbenannter_Verlauf_18);
      }
    </style>
    <linearGradient id="Unbenannter_Verlauf_18" data-name="Unbenannter Verlauf 18" x1="0" y1="123.55" x2="263.25" y2="123.55" gradientUnits="userSpaceOnUse">
      <stop offset="0" stop-color="#688191"/>
      <stop offset=".3" stop-color="#6a7f90"/>
      <stop offset=".46" stop-color="#727c8e"/>
      <stop offset=".59" stop-color="#7f768a"/>
      <stop offset=".7" stop-color="#926e85"/>
      <stop offset=".79" stop-color="#ab637f"/>
      <stop offset=".88" stop-color="#ca5677"/>
      <stop offset=".97" stop-color="#ed466e"/>
      <stop offset="1" stop-color="#ff3f6a"/>
    </linearGradient>
  </defs>
  <path class="cls-1" d="m65.3,243.94c22.07-1.89,40.16-7.89,51.18-21.2-18.53,12.55-51.18,24.86-70.52,9.13-23.93-19.47-75.59-67.22-23.53-77.42C170.27,125.47,259.75,51.06,187.74,0c72.54,40.81,84.88,100.23,45.28,167.24,15.68-8.97,24.84-27.25,29.64-51.82,7,39.33-49.86,92.52-102.89,100.54,21.08,3.85,49-13.22,79.34-37.67-28.78,37.55-130.19,80.96-173.81,65.65h0Zm-1.02-52.45c57.03-17.13,126.77-51.32,148.14-81.68-20.77,16.93-49,35.75-65.5,37.08,17.07-8.52,45.24-25.86,50.4-39.68-6.04,5.28-13.26,8.2-21.64,8.75,8.97-10.01,22.32-19.8,27.66-31.45-30.95,26.16-92.49,63.41-137.87,64.42l25.25,4.33c-9.99,6.06-20.97,10.09-33.43,11.16l15.41.8-24.78,8.5c16.83-.05,33.49-3.25,49.84-12.06-10.16,8.24-21.52,14.72-34.07,19.43,13.9-1.81,27.37-6.49,41.03-12.68-12.33,8.73-25.82,16.42-40.46,23.08Z"/>
</svg>