<?xml version="1.0" ?><svg id="Layer_2" style="enable-background:new 0 0 32 32;" version="1.1" viewBox="0 0 32 32" xml:space="preserve" xmlns="http://www.w3.org/2000/svg" xmlns:xlink="http://www.w3.org/1999/xlink"><g><path d="M24.29999,3.13C24.03003,2.65997,23.53998,2.38,23,2.38H9c-0.53998,0-1.03003,0.27997-1.29999,0.75l-7,12.12   c-0.27002,0.45996-0.27002,1.03998,0,1.5l7,12.12C7.96997,29.33997,8.46002,29.62,9,29.62h14   c0.53998,0,1.03003-0.28003,1.29999-0.75l7-12.12c0.27002-0.46002,0.27002-1.04004,0-1.5L24.29999,3.13z M16,22.67999   c-3.67999,0-6.67999-3-6.67999-6.67999s3-6.67999,6.67999-6.67999s6.67999,3,6.67999,6.67999S19.67999,22.67999,16,22.67999z"/></g></svg>