<?xml version="1.0" encoding="utf-8"?>
<!-- Generator: Adobe Illustrator 27.8.0, SVG Export Plug-In . SVG Version: 6.00 Build 0)  -->
<svg version="1.1" id="Ebene_1" xmlns="http://www.w3.org/2000/svg" xmlns:xlink="http://www.w3.org/1999/xlink" x="0px" y="0px"
	 viewBox="0 0 13 13" style="enable-background:new 0 0 13 13;" xml:space="preserve">
<style type="text/css">
	.st0{fill:#A6A6A6;}
	.st1{fill-rule:evenodd;clip-rule:evenodd;fill:#A6A6A6;}
</style>
<polygon class="st0" points="5.2,8 4.7,7.5 3.7,6.5 4.4,5.7 6,7.3 9.1,4.2 9.9,5 8.9,6 8.3,6.5 7.5,7.2 6,8.8 5.2,8 "/>
<path class="st1" d="M0.5,10.3c0,1.2,1,2.2,2.2,2.2h7.6c1.2,0,2.2-1,2.2-2.2V2.7c0-1.2-1-2.2-2.2-2.2H2.7c-1.2,0-2.2,1-2.2,2.2V10.3
	z M2.7,11.4h7.6c0.6,0,1.1-0.5,1.1-1.1V2.7c0-0.6-0.5-1.1-1.1-1.1H2.7c-0.6,0-1.1,0.5-1.1,1.1v7.6C1.6,10.9,2.1,11.4,2.7,11.4z"/>
</svg>
