<?xml version="1.0" encoding="utf-8"?>
<!-- Generator: Adobe Illustrator 27.8.0, SVG Export Plug-In . SVG Version: 6.00 Build 0)  -->
<svg version="1.1" id="Ebene_1" xmlns="http://www.w3.org/2000/svg" xmlns:xlink="http://www.w3.org/1999/xlink" x="0px" y="0px"
	 viewBox="0 0 13 13" style="enable-background:new 0 0 13 13;" xml:space="preserve">
<style type="text/css">
	.st0{fill:#892404;}
	.st1{fill-rule:evenodd;clip-rule:evenodd;fill:#892404;}
</style>
<polygon class="st0" points="7.1,6.5 7.7,6 8.7,5 7.9,4.2 6.4,5.8 4.8,4.2 4,5 5,6 5.6,6.5 5,7 4,8 4.8,8.8 6.4,7.2 7.9,8.8 8.7,8
	7.7,7 "/>
<path class="st1" d="M0.5,10.3c0,1.2,1,2.2,2.2,2.2h7.6c1.2,0,2.2-1,2.2-2.2V2.7c0-1.2-1-2.2-2.2-2.2H2.7c-1.2,0-2.2,1-2.2,2.2V10.3
	z M2.7,11.4h7.6c0.6,0,1.1-0.5,1.1-1.1V2.7c0-0.6-0.5-1.1-1.1-1.1H2.7c-0.6,0-1.1,0.5-1.1,1.1v7.6C1.6,10.9,2.1,11.4,2.7,11.4z"/>
</svg>
