<?xml version="1.0" encoding="utf-8"?>
<!-- Generator: Adobe Illustrator 27.8.1, SVG Export Plug-In . SVG Version: 6.00 Build 0)  -->
<svg version="1.1" id="Ebene_1" xmlns="http://www.w3.org/2000/svg" xmlns:xlink="http://www.w3.org/1999/xlink" x="0px" y="0px"
	 viewBox="0 0 100 76.51418" style="enable-background:new 0 0 100 76.51418;" xml:space="preserve">
<style type="text/css">
	.st0{opacity:0.08;}
	.st1{fill:#3B6072;}
	.st2{fill:#566974;}
	.st3{opacity:0.6;}
	.st4{fill:#9AEBA3;}
	.st5{opacity:0.3;enable-background:new    ;}
	.st6{opacity:0.3;}
	.st7{fill:#A4AFB5;}
	.st8{fill:#D7DDE0;}
	.st9{fill:url(#SVGID_1_);}
	.st10{fill:url(#SVGID_00000046300367514281485200000003480103984671867308_);}
	.st11{fill:#FAFAFA;}
	.st12{fill:#455A64;}
	.st13{fill:url(#SVGID_00000018929166775346658600000013474237106857728656_);}
	.st14{opacity:0.1;fill:#26BFA6;enable-background:new    ;}
	.st15{fill:#4E616B;}
	.st16{fill:#23333A;}
	.st17{opacity:0.08;fill:#3B6072;enable-background:new    ;}
</style>
<g class="st0">
	<path class="st1" d="M18.42841,8.70905c-4.48222,1.90428-7.98048,5.64919-10.83955,9.59302
		C3.03768,24.59044,0.33243,32.35874,0.8337,40.10583s4.42918,15.38278,10.91647,19.6263
		c6.03641,3.97831,15.31912,1.15901,22.54372,0.99192c4.4557-0.10344,9.50815,0.38457,12.91623,3.2569
		c10.19506,8.59313,22.27851,13.27958,31.32517,11.28512C99.63621,70.61411,99.6866,40.08726,99.45055,32.3773
		c-0.24666-7.99109-3.18265-15.98217-8.31731-22.10611S77.79002,0.24852,69.91563,1.65684
		C60.07331,3.41525,52.9097,12.629,43.12838,14.70303c-1.83002,0.38722-3.85365,0.48005-5.45559-0.4827
		C35.44229,12.88893,29.22818,4.11809,18.42841,8.70905z"/>
</g>
<g id="freepik--Line--inject-123">
	<path class="st2" d="M70.48885,33.23029c-0.11698,0-0.21181-0.09028-0.21181-0.20165v-0.80661
		c0-0.11137,0.09483-0.20165,0.21181-0.20165s0.21181,0.09028,0.21181,0.20165v0.80661
		C70.70066,33.14001,70.60583,33.23029,70.48885,33.23029z"/>
	<path class="st2" d="M70.48885,30.55101c-0.11698,0-0.21181-0.09028-0.21181-0.20165v-1.60515
		c0-0.11137,0.09483-0.20165,0.21181-0.20165s0.21181,0.09028,0.21181,0.20165v1.60515
		C70.70066,30.46073,70.60583,30.55101,70.48885,30.55101z M70.48885,27.07184c-0.11698,0-0.21181-0.09028-0.21181-0.20165v-1.61053
		c0-0.11137,0.09483-0.20165,0.21181-0.20165s0.21181,0.09028,0.21181,0.20165v1.61322
		C70.69911,26.9832,70.60474,27.07185,70.48885,27.07184z M53.34596,26.65644c-0.11698,0-0.21181-0.09028-0.21181-0.20165V24.8483
		c0-0.11137,0.09483-0.20165,0.21181-0.20165c0.11699,0,0.21181,0.09028,0.21181,0.20165v1.60649
		C53.55777,26.56616,53.46294,26.65644,53.34596,26.65644z M70.48885,23.59268c-0.11698,0-0.21181-0.09028-0.21181-0.20165v-1.60515
		c0-0.11137,0.09483-0.20165,0.21181-0.20165s0.21181,0.09028,0.21181,0.20165v1.60515
		C70.70066,23.50239,70.60583,23.59268,70.48885,23.59268z M53.34596,23.17727c-0.11698,0-0.21181-0.09028-0.21181-0.20165v-1.6065
		c0-0.11137,0.09483-0.20165,0.21181-0.20165c0.11699,0,0.21181,0.09028,0.21181,0.20165v1.60515
		c0.00078,0.11137-0.09342,0.20225-0.2104,0.20299C53.3469,23.17727,53.34643,23.17727,53.34596,23.17727L53.34596,23.17727z
		 M70.36881,20.12022c-0.10309-0.00003-0.19097-0.07118-0.20757-0.16804c-0.09214-0.51497-0.23686-1.02016-0.43211-1.50836
		c-0.03724-0.10558,0.02248-0.2199,0.13337-0.25535c0.10452-0.03341,0.21848,0.01509,0.26202,0.11151
		c0.20558,0.5119,0.35741,1.04192,0.45329,1.58229c0.01963,0.10946-0.05738,0.21343-0.17227,0.23257L70.36881,20.12022z
		 M53.55071,19.71692c-0.0155,0.00131-0.0311,0.00131-0.0466,0c-0.11422-0.02408-0.18631-0.13174-0.16102-0.24048
		c0.00002-0.00005,0.00003-0.00011,0.00004-0.00016c0.12507-0.53599,0.30577-1.05882,0.53942-1.56079
		c0.04493-0.10122,0.16753-0.1486,0.27385-0.10583c0.00288,0.00116,0.00574,0.00238,0.00857,0.00367
		c0.1074,0.04414,0.15688,0.16282,0.11051,0.26506c-0.00058,0.00127-0.00117,0.00254-0.00178,0.00381
		c-0.22163,0.47564-0.39333,0.97098-0.51259,1.47878c-0.0248,0.09086-0.11181,0.15368-0.2104,0.15191
		C53.55071,19.71289,53.55071,19.71692,53.55071,19.71692z M69.01885,16.92068c-0.07027,0.00011-0.13596-0.03317-0.1751-0.08873
		c-0.30729-0.43292-0.65924-0.83554-1.0506-1.20185c-0.08345-0.07833-0.0844-0.20623-0.00212-0.28567
		c0.08228-0.07944,0.21662-0.08035,0.30007-0.00202c0.40999,0.38601,0.77937,0.80925,1.10285,1.26369
		c0.06567,0.09126,0.04119,0.21593-0.05467,0.27846c-0.0006,0.00039-0.00121,0.00078-0.00182,0.00117
		c-0.03523,0.02172-0.07668,0.03252-0.11861,0.03092V16.92068z M55.07013,16.58325c-0.11698,0-0.21181-0.09028-0.21181-0.20165
		c0-0.04363,0.01487-0.08609,0.04236-0.12099c0.34719-0.43877,0.73881-0.84402,1.16922-1.20991
		c0.08267-0.0788,0.21679-0.07887,0.29955-0.00016c0.08277,0.07871,0.08284,0.20638,0.00017,0.28518
		c-0.00547,0.00522-0.01125,0.01015-0.0173,0.01477c-0.4094,0.34816-0.78208,0.73358-1.11273,1.15076
		c-0.04073,0.0496-0.10332,0.07841-0.16945,0.07797C55.07014,16.57922,55.07014,16.58325,55.07013,16.58325z M66.39799,14.53447
		c-0.03891,0.00023-0.0771-0.01002-0.11015-0.02958c-0.46737-0.27403-0.96214-0.50325-1.47706-0.68427
		c-0.11378-0.02585-0.18402-0.13462-0.15687-0.24295s0.14141-0.17519,0.2552-0.14934
		c0.0148,0.00336,0.02917,0.00823,0.04288,0.01453c0.54135,0.18998,1.06165,0.43044,1.55331,0.71788
		c0.09983,0.05806,0.13132,0.18217,0.07033,0.27721c-0.03869,0.06028-0.10768,0.0969-0.18188,0.09652
		C66.39375,14.53447,66.39799,14.53447,66.39799,14.53447z M57.81525,14.32206c-0.11698,0.00056-0.21229-0.08926-0.21288-0.20063
		c-0.0004-0.07448,0.04237-0.1431,0.11121-0.17847c0.50614-0.26288,1.03825-0.47767,1.58861-0.64125
		c0.11348-0.02708,0.22852,0.03855,0.25696,0.14657c0.02621,0.09955-0.0303,0.20197-0.13128,0.23791
		c-0.52343,0.15583-1.02951,0.36026-1.51095,0.61033C57.88593,14.31325,57.85089,14.32205,57.81525,14.32206z M62.97648,13.38908
		h-0.02542c-0.54482-0.0634-1.09481-0.07645-1.64227-0.03899c-0.11698,0.00817-0.21877-0.07549-0.22735-0.18686
		s0.0793-0.20827,0.19628-0.21644c0.57476-0.03907,1.15213-0.02557,1.72417,0.04033
		c0.11698,0.00668,0.20612,0.10238,0.19911,0.21375c-0.00702,0.11137-0.10754,0.19624-0.22453,0.18955l0,0
		C62.97647,13.39042,62.97647,13.38908,62.97648,13.38908z"/>
	<path class="st2" d="M53.34596,29.35185c-0.11698,0-0.21181-0.09028-0.21181-0.20165v-0.80661
		c0-0.11137,0.09483-0.20165,0.21181-0.20165c0.11699,0,0.21181,0.09028,0.21181,0.20165v0.80661
		C53.55777,29.26157,53.46294,29.35185,53.34596,29.35185z"/>
	<g class="st3">
		<path class="st4" d="M70.48885,33.23029c-0.11698,0-0.21181-0.09028-0.21181-0.20165v-0.80661
			c0-0.11137,0.09483-0.20165,0.21181-0.20165s0.21181,0.09028,0.21181,0.20165v0.80661
			C70.70066,33.14001,70.60583,33.23029,70.48885,33.23029z"/>
		<path class="st4" d="M70.48885,30.55101c-0.11698,0-0.21181-0.09028-0.21181-0.20165v-1.60515
			c0-0.11137,0.09483-0.20165,0.21181-0.20165s0.21181,0.09028,0.21181,0.20165v1.60515
			C70.70066,30.46073,70.60583,30.55101,70.48885,30.55101z M70.48885,27.07184c-0.11698,0-0.21181-0.09028-0.21181-0.20165
			v-1.61053c0-0.11137,0.09483-0.20165,0.21181-0.20165s0.21181,0.09028,0.21181,0.20165v1.61322
			C70.69911,26.9832,70.60474,27.07185,70.48885,27.07184z M53.34596,26.65644c-0.11698,0-0.21181-0.09028-0.21181-0.20165V24.8483
			c0-0.11137,0.09483-0.20165,0.21181-0.20165c0.11699,0,0.21181,0.09028,0.21181,0.20165v1.60649
			C53.55777,26.56616,53.46294,26.65644,53.34596,26.65644z M70.48885,23.59268c-0.11698,0-0.21181-0.09028-0.21181-0.20165
			v-1.60515c0-0.11137,0.09483-0.20165,0.21181-0.20165s0.21181,0.09028,0.21181,0.20165v1.60515
			C70.70066,23.50239,70.60583,23.59268,70.48885,23.59268z M53.34596,23.17727c-0.11698,0-0.21181-0.09028-0.21181-0.20165v-1.6065
			c0-0.11137,0.09483-0.20165,0.21181-0.20165c0.11699,0,0.21181,0.09028,0.21181,0.20165v1.60515
			c0.00078,0.11137-0.09342,0.20225-0.2104,0.20299C53.3469,23.17727,53.34643,23.17727,53.34596,23.17727L53.34596,23.17727z
			 M70.36881,20.12022c-0.10309-0.00003-0.19097-0.07118-0.20757-0.16804c-0.09214-0.51497-0.23686-1.02016-0.43211-1.50836
			c-0.03724-0.10558,0.02248-0.2199,0.13337-0.25535c0.10452-0.03341,0.21848,0.01509,0.26202,0.11151
			c0.20558,0.5119,0.35741,1.04192,0.45329,1.58229c0.01963,0.10946-0.05738,0.21343-0.17227,0.23257L70.36881,20.12022z
			 M53.55071,19.71692c-0.0155,0.00131-0.0311,0.00131-0.0466,0c-0.11422-0.02408-0.18631-0.13174-0.16102-0.24048
			c0.00002-0.00005,0.00003-0.00011,0.00004-0.00016c0.12507-0.53599,0.30577-1.05882,0.53942-1.56079
			c0.04493-0.10122,0.16753-0.1486,0.27385-0.10583c0.00288,0.00116,0.00574,0.00238,0.00857,0.00367
			c0.1074,0.04414,0.15688,0.16282,0.11051,0.26506c-0.00058,0.00127-0.00117,0.00254-0.00178,0.00381
			c-0.22163,0.47564-0.39333,0.97098-0.51259,1.47878c-0.0248,0.09086-0.11181,0.15368-0.2104,0.15191
			C53.55071,19.71289,53.55071,19.71692,53.55071,19.71692z M69.01885,16.92068c-0.07027,0.00011-0.13596-0.03317-0.1751-0.08873
			c-0.30729-0.43292-0.65924-0.83554-1.0506-1.20185c-0.08345-0.07833-0.0844-0.20623-0.00212-0.28567
			c0.08228-0.07944,0.21662-0.08035,0.30007-0.00202c0.40999,0.38601,0.77937,0.80925,1.10285,1.26369
			c0.06567,0.09126,0.04119,0.21593-0.05467,0.27846c-0.0006,0.00039-0.00121,0.00078-0.00182,0.00117
			c-0.03523,0.02172-0.07668,0.03252-0.11861,0.03092V16.92068z M55.07013,16.58325c-0.11698,0-0.21181-0.09028-0.21181-0.20165
			c0-0.04363,0.01487-0.08609,0.04236-0.12099c0.34719-0.43877,0.73881-0.84402,1.16922-1.20991
			c0.08267-0.0788,0.21679-0.07887,0.29955-0.00016c0.08277,0.07871,0.08284,0.20638,0.00017,0.28518
			c-0.00547,0.00522-0.01125,0.01015-0.0173,0.01477c-0.4094,0.34816-0.78208,0.73358-1.11273,1.15076
			c-0.04073,0.0496-0.10332,0.07841-0.16945,0.07797C55.07014,16.57922,55.07014,16.58325,55.07013,16.58325z M66.39799,14.53447
			c-0.03891,0.00023-0.0771-0.01002-0.11015-0.02958c-0.46737-0.27403-0.96214-0.50325-1.47706-0.68427
			c-0.11378-0.02585-0.18402-0.13462-0.15687-0.24295s0.14141-0.17519,0.2552-0.14934
			c0.0148,0.00336,0.02917,0.00823,0.04288,0.01453c0.54135,0.18998,1.06165,0.43044,1.55331,0.71788
			c0.09983,0.05806,0.13132,0.18217,0.07033,0.27721c-0.03869,0.06028-0.10768,0.0969-0.18188,0.09652
			C66.39375,14.53447,66.39799,14.53447,66.39799,14.53447z M57.81525,14.32206c-0.11698,0.00056-0.21229-0.08926-0.21288-0.20063
			c-0.0004-0.07448,0.04237-0.1431,0.11121-0.17847c0.50614-0.26288,1.03825-0.47767,1.58861-0.64125
			c0.11348-0.02708,0.22852,0.03855,0.25696,0.14657c0.02621,0.09955-0.0303,0.20197-0.13128,0.23791
			c-0.52343,0.15583-1.02951,0.36026-1.51095,0.61033C57.88593,14.31325,57.85089,14.32205,57.81525,14.32206z M62.97648,13.38908
			h-0.02542c-0.54482-0.0634-1.09481-0.07645-1.64227-0.03899c-0.11698,0.00817-0.21877-0.07549-0.22735-0.18686
			s0.0793-0.20827,0.19628-0.21644c0.57476-0.03907,1.15213-0.02557,1.72417,0.04033
			c0.11698,0.00668,0.20612,0.10238,0.19911,0.21375c-0.00702,0.11137-0.10754,0.19624-0.22453,0.18955l0,0
			C62.97647,13.39042,62.97647,13.38908,62.97648,13.38908z"/>
		<path class="st4" d="M53.34596,29.35185c-0.11698,0-0.21181-0.09028-0.21181-0.20165v-0.80661
			c0-0.11137,0.09483-0.20165,0.21181-0.20165c0.11699,0,0.21181,0.09028,0.21181,0.20165v0.80661
			C53.55777,29.26157,53.46294,29.35185,53.34596,29.35185z"/>
	</g>
	<path class="st2" d="M76.3886,45.44503c-3.37339-0.00444-6.1069-2.6068-6.11156-5.81833v-5.09104
		c0-0.11137,0.09483-0.20165,0.21181-0.20165s0.21181,0.09028,0.21181,0.20165v5.09104c0,2.99064,2.54658,5.41503,5.68793,5.41503
		c3.14137,0,5.68793-2.42439,5.68793-5.41503V25.59844c0-0.11137,0.09483-0.20165,0.21181-0.20165s0.21181,0.09028,0.21181,0.20165
		V39.6267C82.49549,42.83823,79.76199,45.44058,76.3886,45.44503z"/>
	<path class="st5" d="M76.3886,45.44503c-3.37339-0.00444-6.1069-2.6068-6.11156-5.81833v-5.09104
		c0-0.11137,0.09483-0.20165,0.21181-0.20165s0.21181,0.09028,0.21181,0.20165v5.09104c0,2.99064,2.54658,5.41503,5.68793,5.41503
		c3.14137,0,5.68793-2.42439,5.68793-5.41503V25.59844c0-0.11137,0.09483-0.20165,0.21181-0.20165s0.21181,0.09028,0.21181,0.20165
		V39.6267C82.49549,42.83823,79.76199,45.44058,76.3886,45.44503z"/>
</g>
<g id="freepik--Device--inject-123">
	<path class="st2" d="M52.46044,36.84306L52.46044,36.84306c-0.07539-0.31787,0.12118-0.63668,0.43906-0.71208
		c0.08652-0.02052,0.17654-0.02127,0.26339-0.0022c2.9207,0.37858,5.58112,2.69,6.37969,5.57077h0.72463
		c0.33422,0,0.6078,0.36232,0.49097,0.65068l-0.97751,2.4386c-0.11535,0.29577-0.53386,0.29577-0.75273,0l-1.84559-2.43711
		c-0.21739-0.28838-0.07246-0.65069,0.26176-0.65069h0.64034c-0.66252-2.14727-2.6619-3.85384-4.85945-4.14074
		C52.84453,37.50609,52.53881,37.2193,52.46044,36.84306z"/>
	<g class="st6">
		<path d="M52.46044,36.84306L52.46044,36.84306c-0.07539-0.31787,0.12118-0.63668,0.43906-0.71208
			c0.08652-0.02052,0.17654-0.02127,0.26339-0.0022c2.9207,0.37858,5.58112,2.69,6.37969,5.57077h0.72463
			c0.33422,0,0.6078,0.36232,0.49097,0.65068l-0.97751,2.4386c-0.11535,0.29577-0.53386,0.29577-0.75273,0l-1.84559-2.43711
			c-0.21739-0.28838-0.07246-0.65069,0.26176-0.65069h0.64034c-0.66252-2.14727-2.6619-3.85384-4.85945-4.14074
			C52.84453,37.50609,52.53881,37.2193,52.46044,36.84306z"/>
	</g>
</g>
<g id="freepik--Plant--inject-2">
	<path class="st7" d="M17.35592,54.98111c1.85607-1.21507,2.32752-3.54259,2.30819-5.65149
		c0-0.35098,0.04462-0.71982-0.11749-1.03214c-0.16211-0.31232-0.55028-0.53094-0.873-0.39114
		c-0.26621,0.116-0.38817,0.41642-0.54284,0.66331c-0.20622,0.3305-0.50163,0.59601-0.85218,0.76592
		c-0.22903,0.11005-0.51012,0.17401-0.73023,0.04759c-0.29745-0.174-0.32868-0.59489-0.31827-0.94142
		c0.02082-0.65042,0.04065-1.30034,0.05949-1.94976c0.03048-0.34908,0.00335-0.70079-0.08031-1.04107
		c-0.08999-0.34185-0.33995-0.61897-0.67074-0.74362c-0.33463-0.10113-0.75403,0.08031-0.83434,0.4194
		c-0.01665,0.14413-0.02361,0.28921-0.02082,0.43427c0.0006,0.14884-0.08867,0.28333-0.22606,0.34058
		c-0.14862,0.01368-0.29376-0.05045-0.38371-0.16955c-0.33861-0.37865-0.61292-0.81021-0.81203-1.27753
		c-0.19881-0.46665-0.45243-0.90799-0.75552-1.31472c-0.32124-0.39263-0.77188-0.70792-1.27754-0.74362
		c-0.50566-0.03569-1.05147,0.25581-1.18979,0.74362c-0.13831,0.48782,0.13831,0.99496,0.44617,1.39949
		c0.45562,0.60312,0.99613,1.13712,1.60473,1.58539c0.11849,0.06828,0.21223,0.17244,0.2677,0.29745
		c0.0699,0.23498-0.15913,0.45956-0.39263,0.53094c-0.26622,0.08031-0.55176,0.0461-0.8269,0.07139
		c-0.27514,0.02528-0.57853,0.13831-0.68859,0.39263c-0.14872,0.35396,0.1398,0.7347,0.42981,0.98604
		c0.58497,0.50578,1.25188,0.90814,1.97207,1.18979c0.26557,0.07941,0.51451,0.2064,0.73469,0.37478
		c0.20524,0.18442,0.32422,0.5012,0.19185,0.74362c-0.13236,0.24242-0.45955,0.3138-0.73172,0.25729
		c-0.26243-0.07817-0.51769-0.17868-0.76296-0.30044c-0.48186-0.19186-1.10948-0.174-1.43072,0.2335
		c-0.20117,0.28223-0.25636,0.64321-0.14872,0.97266c0.11108,0.32308,0.28609,0.62049,0.51458,0.87449
		c0.74996,0.93347,1.7336,1.65183,2.85103,2.08213c1.11691,0.41345,2.15947,0.54284,3.28828,0.16508"/>
	<path class="st8" d="M10.55925,42.68019l0.03421,0.03421l0.10262,0.0937c0.09072,0.08329,0.22308,0.20524,0.39114,0.36735
		c0.47426,0.45686,0.91372,0.94852,1.31472,1.47088c0.25432,0.32867,0.51904,0.70197,0.79567,1.1065
		c0.27663,0.40453,0.56664,0.84177,0.85665,1.31025c0.30587,0.48784,0.58441,0.9923,0.83434,1.51103
		c0.13088,0.26919,0.24539,0.55176,0.3614,0.8388s0.23498,0.57854,0.35396,0.8745c0.45596,1.10512,0.84872,2.23525,1.1764,3.38495
		c0.26369,0.94018,0.43748,1.90327,0.51905,2.87631c0.05332,0.65601,0.04835,1.31545-0.01487,1.97059
		c-0.0238,0.23051-0.0461,0.41048-0.06544,0.53242c-0.00892,0.05801-0.01487,0.10411-0.02082,0.13831
		c-0.001,0.01585-0.001,0.03175,0,0.04759c0.00501-0.01508,0.00898-0.03048,0.0119-0.0461
		c0-0.03421,0.01487-0.08031,0.02528-0.13831c0.0238-0.12046,0.05057-0.29745,0.07882-0.53094
		c0.0729-0.65633,0.08485-1.318,0.03569-1.97653c-0.07471-0.97694-0.24457-1.94427-0.50715-2.88821
		c-0.32538-1.15346-0.71717-2.28713-1.17343-3.39536c-0.12096-0.29745-0.23895-0.58845-0.35396-0.87301
		c-0.11749-0.28703-0.2335-0.5711-0.36437-0.84326c-0.2524-0.52032-0.53342-1.02626-0.84177-1.51549
		c-0.29745-0.46848-0.58597-0.90276-0.8626-1.30728c-0.27663-0.40453-0.54582-0.77634-0.80459-1.10501
		c-0.40696-0.52136-0.85453-1.0097-1.33851-1.46046c-0.17103-0.15914-0.30786-0.2796-0.40155-0.35843l-0.10559-0.09072
		C10.57264,42.68911,10.56074,42.6787,10.55925,42.68019z"/>
	<path class="st8" d="M14.92875,48.54286c0.01767-0.0481,0.03014-0.09796,0.03718-0.14872
		c0.02082-0.09667,0.04759-0.23498,0.07585-0.40899c0.058-0.34652,0.12344-0.8269,0.19185-1.35636
		c0.06841-0.52945,0.1398-1.00834,0.20375-1.35339c0.03123-0.17103,0.058-0.31083,0.07734-0.4075
		c0.01343-0.04854,0.02141-0.09842,0.0238-0.14872c-0.02252,0.04733-0.03901,0.09729-0.04908,0.14872
		c-0.02677,0.0937-0.06098,0.23201-0.09816,0.40304c-0.07436,0.34355-0.14872,0.82244-0.2216,1.35339
		c-0.07288,0.53094-0.1279,0.99645-0.17252,1.35933c-0.02231,0.16211-0.04164,0.29745-0.05503,0.41048
		C14.93193,48.44303,14.92744,48.49294,14.92875,48.54286z"/>
	<path class="st8" d="M10.40607,47.59699c0.05906,0.01404,0.11931,0.02251,0.17996,0.02528
		c0.116,0.01339,0.28555,0.03123,0.49227,0.06098c0.41494,0.05354,0.98604,0.14872,1.61068,0.2796
		c0.62464,0.13087,1.18979,0.27811,1.58688,0.39263c0.20226,0.05651,0.36437,0.10708,0.47591,0.14129
		c0.05726,0.02139,0.11656,0.03683,0.17698,0.0461c-0.05431-0.02721-0.11047-0.05057-0.16806-0.0699
		c-0.11006-0.04165-0.27068-0.09816-0.47145-0.16062c-0.40007-0.1279-0.96075-0.2796-1.58688-0.41196
		c-0.53459-0.11493-1.07465-0.20279-1.61811-0.26324c-0.2097-0.0238-0.37924-0.03421-0.49525-0.03867
		C10.52822,47.59183,10.46694,47.59133,10.40607,47.59699z"/>
	<path class="st8" d="M16.78482,53.5727c0.01319-0.01634,0.02419-0.03435,0.03272-0.05354l0.0818-0.16062
		c0.0699-0.1398,0.16657-0.34355,0.28257-0.59489c0.23201-0.50864,0.52946-1.22102,0.84624-2.01074
		c0.31678-0.78972,0.60977-1.50508,0.82988-2.01669l0.26324-0.60679l0.07139-0.16508
		c0.01487-0.03867,0.02231-0.05949,0.01933-0.05949c-0.01225,0.01671-0.02271,0.03465-0.03123,0.05354l-0.0818,0.16062
		c-0.07139,0.1398-0.16657,0.34355-0.28257,0.59489c-0.23201,0.50864-0.52946,1.22102-0.84772,2.01073
		c-0.31827,0.78973-0.60828,1.50508-0.82988,2.01669c-0.10708,0.24986-0.19632,0.45509-0.26324,0.60679l-0.0699,0.16508
		C16.79616,53.53205,16.78916,53.55205,16.78482,53.5727z"/>
	<path class="st8" d="M10.79572,51.50841c0,0,0.01933,0.0119,0.058,0.02677l0.17401,0.06097l0.64249,0.22309
		c0.54135,0.18739,1.28646,0.45509,2.1089,0.75254s1.57052,0.55771,2.11633,0.73469
		c0.27365,0.08924,0.49376,0.15765,0.64843,0.20226l0.17698,0.05057c0.04164,0.01189,0.06395,0.01636,0.06395,0.01338
		c-0.01891-0.01045-0.03884-0.01892-0.05949-0.02528l-0.17401-0.06246l-0.641-0.2216
		c-0.54135-0.18739-1.28646-0.45509-2.1089-0.75254s-1.57201-0.5592-2.11633-0.73618
		c-0.27365-0.08775-0.49525-0.15765-0.64843-0.20226l-0.17847-0.05057C10.83786,51.51527,10.81694,51.51078,10.79572,51.50841z"/>
</g>
<g id="freepik--Computer--inject-2">
	
		<linearGradient id="SVGID_1_" gradientUnits="userSpaceOnUse" x1="28.63281" y1="32.37078" x2="52.85404" y2="-9.58161" gradientTransform="matrix(1 0 0 -1 0 56)">
		<stop  offset="0.01804" style="stop-color:#677A84"/>
		<stop  offset="1" style="stop-color:#4E616B"/>
	</linearGradient>
	<path class="st9" d="M19.59123,29.18502h42.30439c1.19675,0,2.1669,0.97015,2.1669,2.1669v26.50699
		c0,1.19675-0.97016,2.1669-2.1669,2.1669H19.59123c-1.19675,0-2.1669-0.97015-2.1669-2.1669v-26.507
		C17.42433,30.15517,18.39449,29.18502,19.59123,29.18502z"/>
	
		<linearGradient id="SVGID_00000143581548912377548960000001536573369318503310_" gradientUnits="userSpaceOnUse" x1="34.25782" y1="9.09864" x2="47.5746" y2="-13.96671" gradientTransform="matrix(1 0 0 -1 0 56)">
		<stop  offset="0.01804" style="stop-color:#677A84"/>
		<stop  offset="1" style="stop-color:#4E616B"/>
	</linearGradient>
	<path style="fill:url(#SVGID_00000143581548912377548960000001536573369318503310_);" d="M15.47456,57.74588h50.5288l0,0v0.05206
		c0,1.46205-1.18523,2.64728-2.64727,2.64728H18.12184c-1.46205,0-2.64728-1.18523-2.64728-2.64728V57.74588L15.47456,57.74588z"/>
	<path class="st11" d="M19.54987,30.4105h42.2874c0.46592,0,0.84362,0.3777,0.84362,0.84362v25.20083h-44.0043V31.28378
		C18.67658,30.80148,19.06757,30.4105,19.54987,30.4105z"/>
	<polygon class="st12" points="36.14564,57.74588 36.77326,58.74382 45.59553,58.74382 46.17853,57.74588 	"/>
	<rect x="17.42433" y="57.76669" class="st12" width="46.6382" height="0.14872"/>
</g>
<linearGradient id="SVGID_00000072263942686173151180000010981867848726875550_" gradientUnits="userSpaceOnUse" x1="33.84329" y1="11.00118" x2="47.50297" y2="11.00118" gradientTransform="matrix(1 0 0 -1 0 56)">
	<stop  offset="0.03866" style="stop-color:#D8F7B7"/>
	<stop  offset="1" style="stop-color:#9AEBA3"/>
</linearGradient>
<path style="fill:url(#SVGID_00000072263942686173151180000010981867848726875550_);" d="M40.67313,38.16898
	c-3.75374,0-6.82984,3.0761-6.82984,6.82984c0,3.75375,3.0761,6.82984,6.82984,6.82984c3.75375,0,6.82984-3.0761,6.82984-6.82984
	S44.42687,38.16898,40.67313,38.16898z"/>
<path class="st14" d="M47.50297,44.99882c0,3.75375-3.0761,6.82984-6.82984,6.82984V38.16898
	C44.42687,38.16898,47.50297,41.24508,47.50297,44.99882z"/>
<path class="st15" d="M44.52291,43.48612l-3.84979,3.84176l-0.80037,0.80037l-3.04942-3.04139l1.13653-1.13653l1.91289,1.92086
	l0.80037-0.80037l2.71326-2.72124L44.52291,43.48612z"/>
<path class="st16" d="M22.82276,31.53059c0.00138,0.22571-0.18048,0.4098-0.40619,0.41117
	c-0.22571,0.00138-0.4098-0.18048-0.41117-0.40619c-0.00138-0.22571,0.18048-0.4098,0.40619-0.41117
	c0.00083,0,0.00166-0.00001,0.00249-0.00001C22.63881,31.12439,22.82139,31.30585,22.82276,31.53059z"/>
<path class="st16" d="M20.3457,31.53059c0,0.22572-0.18298,0.40869-0.40869,0.40869s-0.40869-0.18298-0.40869-0.40869
	s0.18298-0.40869,0.40869-0.40869l0,0C20.16272,31.1219,20.3457,31.30488,20.3457,31.53059z"/>
<path class="st16" d="M21.53439,31.53059c0,0.22572-0.18298,0.40869-0.40869,0.40869s-0.4087-0.18298-0.4087-0.40869
	s0.18298-0.40869,0.40869-0.40869l0,0C21.35141,31.1219,21.53439,31.30488,21.53439,31.53059z"/>
<path class="st17" d="M62.66967,34.47205h-43.9931v-3.6759c0-0.21299,0.17266-0.38565,0.38566-0.38565h43.23335
	c0.2066,0,0.37408,0.16748,0.37408,0.37408v3.68747H62.66967z"/>
<path class="st2" d="M88.223,27.51652H75.98183c-0.83882,0-1.51881-0.68-1.51881-1.51882V14.78765
	c0-0.83882,0.67999-1.51882,1.51881-1.51882H88.223c0.83882,0,1.51882,0.68,1.51882,1.51882V25.9977
	C89.74182,26.83653,89.06182,27.51652,88.223,27.51652z"/>
<path class="st11" d="M78.63868,21.04374c0.25136,1.16934,0.46049,2.28288,1.19297,3.08423h-1.39708
	c-0.32653,0-0.59178-0.26368-0.59372-0.5902v-6.65711c0.00056-0.32751,0.26621-0.59272,0.59372-0.59271h1.00948
	c-0.24599,0.22428-0.46194,0.47944-0.64249,0.75912C78.00273,18.2712,78.33101,19.60594,78.63868,21.04374z M86.22433,16.28794
	h-1.58409c0.37503,0.37503,0.69125,0.86067,0.93004,1.46444l-2.40806,0.50826c-0.26393-0.50574-0.66511-0.92653-1.44987-0.76113
	c-0.43285,0.0915-0.7199,0.33431-0.84709,0.60025c-0.15635,0.32778-0.23327,0.69527,0.14076,2.44175
	s0.59422,2.05113,0.87072,2.28741c0.22472,0.19104,0.58719,0.29711,1.02003,0.20562c0.78526-0.1654,0.97881-0.71186,1.01299-1.28045
	l2.40807-0.50876c0.05681,1.24575-0.32878,2.212-1.00948,2.88012h0.91597c0.32673,0.00028,0.59229-0.26348,0.59422-0.5902v-6.6546
	C86.81799,16.55295,86.55203,16.28766,86.22433,16.28794z"/>
</svg>
