<?xml version="1.0" encoding="utf-8"?>
<!-- Generator: Adobe Illustrator 27.8.1, SVG Export Plug-In . SVG Version: 6.00 Build 0)  -->
<svg version="1.1" id="Ebene_1" xmlns="http://www.w3.org/2000/svg" xmlns:xlink="http://www.w3.org/1999/xlink" x="0px" y="0px"
	 viewBox="0 0 100 76.51418" style="enable-background:new 0 0 100 76.51418;" xml:space="preserve">
<style type="text/css">
	.st0{opacity:0.08;fill:#3B6072;}
	.st1{fill:#F29F05;}
	.st2{fill:#566974;}
	.st3{opacity:0.3;enable-background:new    ;}
	.st4{opacity:0.3;}
	.st5{fill:#A4AFB5;}
	.st6{fill:#D7DDE0;}
	.st7{fill:url(#SVGID_1_);}
	.st8{fill:url(#SVGID_00000098899666040827866870000014207841978925021621_);}
	.st9{fill:#FAFAFA;}
	.st10{fill:#455A64;}
	.st11{fill:url(#SVGID_00000154399132713983661630000015399790267035147141_);}
	.st12{opacity:0.15;fill:#EF6507;enable-background:new    ;}
	.st13{fill:#23333A;}
	.st14{opacity:0.08;fill:#3B6072;enable-background:new    ;}
	.st15{fill:#4E616B;}
</style>
<path class="st0" d="M31.21956,1.97922C25.19068,2.92116,19.37702,4.9291,14.22171,8.07647
	c-6.07699,3.7095-12.28565,9.49024-10.45243,17.0485C7.15467,39.08179,23.39797,39.335,20.15437,48.71889
	c-3.67405,10.62968-1.21033,23.09763,15.27351,26.56406c31.30664,6.58594,69.15111-31.94726,58.52143-53.12051
	C87.33298,8.98043,63.23011-3.02669,31.21956,1.97922L31.21956,1.97922z"/>
<g id="freepik--Line--inject-123_00000065056325965739890040000015689037320687691668_">
	<g>
		<path class="st1" d="M70.34644,33.20818c-0.1163,0-0.21058-0.09028-0.21058-0.20165v-0.80661
			c0-0.11137,0.09428-0.20165,0.21058-0.20165c0.11631,0,0.21059,0.09028,0.21059,0.20165v0.80661
			C70.55702,33.11789,70.46275,33.20818,70.34644,33.20818z"/>
		<path class="st1" d="M70.34644,30.52889c-0.1163,0-0.21058-0.09028-0.21058-0.20165V28.7221
			c0-0.11137,0.09428-0.20165,0.21058-0.20165c0.11631,0,0.21059,0.09028,0.21059,0.20165v1.60515
			C70.55702,30.43861,70.46275,30.52889,70.34644,30.52889z M70.34644,27.04973c-0.1163,0-0.21058-0.09028-0.21058-0.20165v-1.61053
			c0-0.11137,0.09428-0.20165,0.21058-0.20165c0.11631,0,0.21059,0.09028,0.21059,0.20165v1.61322
			C70.55549,26.96108,70.46165,27.04974,70.34644,27.04973z M53.30306,26.63432c-0.1163,0-0.21058-0.09028-0.21058-0.20165v-1.60649
			c0-0.11137,0.09428-0.20165,0.21058-0.20165c0.11631,0,0.21059,0.09028,0.21059,0.20165v1.60649
			C53.51365,26.54404,53.41937,26.63432,53.30306,26.63432z M70.34644,23.57056c-0.1163,0-0.21058-0.09028-0.21058-0.20165v-1.60515
			c0-0.11137,0.09428-0.20165,0.21058-0.20165c0.11631,0,0.21059,0.09028,0.21059,0.20165v1.60514
			C70.55702,23.48027,70.46275,23.57056,70.34644,23.57056z M53.30306,23.15516c-0.1163,0-0.21058-0.09028-0.21058-0.20165v-1.6065
			c0-0.11137,0.09428-0.20165,0.21058-0.20165c0.11631,0,0.21059,0.09028,0.21059,0.20165v1.60515
			c0.00077,0.11137-0.09288,0.20225-0.20918,0.20299C53.304,23.15515,53.30353,23.15515,53.30306,23.15516L53.30306,23.15516z
			 M70.2271,20.09811c-0.10249-0.00004-0.18987-0.07118-0.20638-0.16805c-0.0916-0.51497-0.23548-1.02015-0.42959-1.50836
			c-0.03703-0.10558,0.02235-0.2199,0.13259-0.25535c0.1039-0.03341,0.2172,0.01509,0.2605,0.11151
			c0.20438,0.5119,0.35534,1.04192,0.45065,1.5823c0.01952,0.10946-0.05704,0.21343-0.17127,0.23257L70.2271,20.09811z
			 M53.50663,19.69481c-0.01541,0.00132-0.03091,0.00132-0.04633,0c-0.11355-0.02407-0.18522-0.13174-0.16008-0.24047
			c0.00001-0.00006,0.00002-0.00011,0.00004-0.00016c0.12434-0.53598,0.30399-1.05882,0.53629-1.56079
			c0.04467-0.10122,0.16656-0.1486,0.27227-0.10583c0.00286,0.00116,0.00571,0.00238,0.00851,0.00366
			c0.10678,0.04414,0.15597,0.16282,0.10987,0.26506c-0.00057,0.00127-0.00116,0.00254-0.00177,0.0038
			c-0.22034,0.47564-0.39104,0.97098-0.50962,1.47878c-0.02465,0.09086-0.11116,0.15369-0.20918,0.15191V19.69481z
			 M68.88498,16.89856c-0.06986,0.00012-0.13517-0.03317-0.17409-0.08873c-0.3055-0.43292-0.65541-0.83554-1.0445-1.20185
			c-0.08296-0.07833-0.08391-0.20623-0.00211-0.28568s0.21537-0.08035,0.29833-0.00202
			c0.40761,0.38601,0.77483,0.80925,1.09644,1.26369c0.06529,0.09126,0.04095,0.21593-0.05434,0.27845
			c-0.0006,0.00039-0.00121,0.00078-0.00181,0.00117c-0.03503,0.02171-0.07623,0.03252-0.11793,0.03092V16.89856z
			 M55.01723,16.56114c-0.1163,0-0.21058-0.09028-0.21058-0.20165c0-0.04363,0.01478-0.08609,0.04211-0.12099
			c0.34518-0.43877,0.73452-0.84402,1.16243-1.20991c0.08219-0.07879,0.21553-0.07887,0.29781-0.00016
			c0.08228,0.0787,0.08236,0.20638,0.00016,0.28518c-0.00544,0.00522-0.01119,0.01015-0.0172,0.01477
			c-0.40703,0.34816-0.77755,0.73358-1.10628,1.15076c-0.04049,0.0496-0.10272,0.07841-0.16847,0.07797v0.00403
			C55.01721,16.56114,55.01723,16.56114,55.01723,16.56114z M66.27934,14.51235c-0.03869,0.00023-0.07665-0.01002-0.1095-0.02958
			c-0.46466-0.27403-0.73186-0.45371-1.24378-0.63474c-0.11313-0.02585-0.18295-0.13462-0.15596-0.24295
			s-0.00071-0.18282,0.11242-0.15697c0.01471,0.00336,0.1703,0.01586,0.18393,0.02216
			c0.53821,0.18998,0.83079,0.38091,1.3196,0.66834c0.09924,0.05806,0.13055,0.18217,0.06991,0.27721
			c-0.03845,0.06028-0.10705,0.0969-0.18082,0.09652C66.27515,14.51234,66.27934,14.51234,66.27934,14.51235z M57.74641,14.29994
			c-0.1163,0.00056-0.21106-0.08926-0.21165-0.20063c-0.00039-0.07448,0.04212-0.1431,0.11057-0.17847
			c0.5032-0.26288,0.65649-0.35502,1.20366-0.5186c0.11281-0.02708,0.22719,0.03855,0.25547,0.14657
			c0.02606,0.09955-0.03013,0.20197-0.13052,0.23791c-0.52039,0.15583-0.6478,0.23761-1.12644,0.48768
			C57.81667,14.29114,57.78185,14.29994,57.74641,14.29994z"/>
		<path class="st1" d="M53.30306,29.32974c-0.1163,0-0.21058-0.09028-0.21058-0.20165v-0.80661
			c0-0.11137,0.09428-0.20165,0.21058-0.20165c0.11631,0,0.21059,0.09028,0.21059,0.20165v0.80661
			C53.51365,29.23946,53.41937,29.32974,53.30306,29.32974z"/>
	</g>
	<path class="st2" d="M76.21194,45.42291c-3.35381-0.00444-6.07145-2.6068-6.07609-5.81833v-5.09104
		c0-0.11137,0.09428-0.20165,0.21058-0.20165c0.11631,0,0.21059,0.09028,0.21059,0.20165v5.09104
		c0,2.99064,2.53179,5.41503,5.65492,5.41503c3.12312,0,5.65491-2.42439,5.65491-5.41503V25.57632
		c0-0.11137,0.09428-0.20165,0.21059-0.20165s0.21059,0.09028,0.21059,0.20165v14.02826
		C82.28339,42.81611,79.56575,45.41847,76.21194,45.42291z"/>
	<path class="st3" d="M76.21194,45.42291c-3.35381-0.00444-6.07145-2.6068-6.07609-5.81833v-5.09104
		c0-0.11137,0.09428-0.20165,0.21058-0.20165c0.11631,0,0.21059,0.09028,0.21059,0.20165v5.09104
		c0,2.99064,2.53179,5.41503,5.65492,5.41503c3.12312,0,5.65491-2.42439,5.65491-5.41503V25.57632
		c0-0.11137,0.09428-0.20165,0.21059-0.20165s0.21059,0.09028,0.21059,0.20165v14.02826
		C82.28339,42.81611,79.56575,45.41847,76.21194,45.42291z"/>
</g>
<g id="freepik--Device--inject-123_00000118381560999691946110000017351451057455841462_">
	<path class="st2" d="M52.41877,36.82094L52.41877,36.82094c-0.07539-0.31787,0.12118-0.63668,0.43906-0.71207
		c0.08651-0.02052,0.17654-0.02127,0.26339-0.0022c2.9207,0.37858,5.58112,2.69,6.3797,5.57077h0.72463
		c0.33421,0,0.6078,0.36232,0.49097,0.65069l-0.97751,2.4386c-0.11535,0.29576-0.53386,0.29576-0.75273,0l-1.84558-2.43711
		c-0.21739-0.28838-0.07246-0.65069,0.26175-0.65069h0.64034c-0.66252-2.14727-2.6619-3.85384-4.85945-4.14074
		C52.80286,37.48397,52.49715,37.19718,52.41877,36.82094z"/>
	<g class="st4">
		<path d="M52.41877,36.82094L52.41877,36.82094c-0.07539-0.31787,0.12118-0.63668,0.43906-0.71207
			c0.08651-0.02052,0.17654-0.02127,0.26339-0.0022c2.9207,0.37858,5.58112,2.69,6.3797,5.57077h0.72463
			c0.33421,0,0.6078,0.36232,0.49097,0.65069l-0.97751,2.4386c-0.11535,0.29576-0.53386,0.29576-0.75273,0l-1.84558-2.43711
			c-0.21739-0.28838-0.07246-0.65069,0.26175-0.65069h0.64034c-0.66252-2.14727-2.6619-3.85384-4.85945-4.14074
			C52.80286,37.48397,52.49715,37.19718,52.41877,36.82094z"/>
	</g>
</g>
<g id="freepik--Plant--inject-2_00000041986667263355903370000011249162703858613899_">
	<path class="st5" d="M17.31425,54.959c1.85607-1.21508,2.32752-3.54259,2.30819-5.6515c0-0.35098,0.04462-0.71982-0.11749-1.03214
		c-0.16211-0.31232-0.55028-0.53094-0.87301-0.39114c-0.26621,0.116-0.38817,0.41642-0.54284,0.6633
		c-0.20622,0.33051-0.50163,0.59601-0.85219,0.76592c-0.22903,0.11005-0.51012,0.17401-0.73023,0.04759
		c-0.29745-0.174-0.32868-0.59489-0.31827-0.94141c0.02082-0.65042,0.04065-1.30034,0.05949-1.94976
		c0.03048-0.34908,0.00335-0.70079-0.08031-1.04107c-0.08999-0.34185-0.33995-0.61897-0.67074-0.74361
		c-0.33463-0.10113-0.75403,0.08031-0.83434,0.4194c-0.01665,0.14413-0.02361,0.28922-0.02082,0.43428
		c0.0006,0.14884-0.08867,0.28333-0.22606,0.34058c-0.14862,0.01368-0.29376-0.05045-0.38371-0.16955
		c-0.33861-0.37865-0.61292-0.81021-0.81203-1.27753c-0.19881-0.46665-0.45243-0.90799-0.75552-1.31471
		c-0.32124-0.39263-0.77188-0.70793-1.27754-0.74362s-1.05148,0.25581-1.18979,0.74362
		c-0.13831,0.48781,0.13831,0.99496,0.44617,1.39949c0.45562,0.60312,0.99613,1.13712,1.60473,1.5854
		c0.11849,0.06828,0.21223,0.17244,0.2677,0.29744c0.0699,0.23498-0.15913,0.45956-0.39263,0.53094
		c-0.26621,0.08031-0.55176,0.0461-0.8269,0.07139c-0.27514,0.02529-0.57854,0.13831-0.68859,0.39264
		c-0.14872,0.35396,0.1398,0.73469,0.42981,0.98603c0.58497,0.50578,1.25188,0.90814,1.97207,1.18979
		c0.26557,0.07941,0.51451,0.2064,0.73469,0.37478c0.20524,0.18442,0.32422,0.5012,0.19185,0.74362
		c-0.13236,0.24242-0.45956,0.3138-0.73172,0.25729c-0.26243-0.07817-0.51769-0.17868-0.76296-0.30044
		c-0.48186-0.19185-1.10948-0.174-1.43072,0.2335c-0.20117,0.28223-0.25636,0.64321-0.14872,0.97266
		c0.11108,0.32308,0.28609,0.6205,0.51458,0.8745c0.74996,0.93346,1.7336,1.65182,2.85103,2.08212
		c1.11691,0.41345,2.15946,0.54285,3.28828,0.16508"/>
	<path class="st6" d="M10.51759,42.65807l0.03421,0.03421l0.10262,0.0937c0.09072,0.08329,0.22309,0.20524,0.39114,0.36735
		c0.47426,0.45686,0.91372,0.94852,1.31472,1.47088c0.25432,0.32868,0.51904,0.70198,0.79567,1.1065
		c0.27663,0.40453,0.56664,0.84178,0.85665,1.31025c0.30587,0.48785,0.58441,0.9923,0.83434,1.51103
		c0.13088,0.26919,0.24539,0.55177,0.3614,0.83881c0.116,0.28703,0.23498,0.57853,0.35396,0.87449
		c0.45596,1.10512,0.84872,2.23526,1.1764,3.38495c0.26369,0.94018,0.43748,1.90327,0.51905,2.87631
		c0.05332,0.65601,0.04835,1.31546-0.01487,1.97059c-0.0238,0.23052-0.0461,0.41048-0.06544,0.53242
		c-0.00892,0.05801-0.01487,0.10411-0.02082,0.13831c-0.001,0.01585-0.001,0.03175,0,0.04759
		c0.00501-0.01508,0.00898-0.03048,0.0119-0.0461c0-0.0342,0.01487-0.08031,0.02528-0.13831
		c0.0238-0.12046,0.05057-0.29745,0.07882-0.53094c0.0729-0.65633,0.08485-1.31801,0.03569-1.97654
		c-0.07471-0.97694-0.24456-1.94426-0.50715-2.88821c-0.32538-1.15346-0.71717-2.28713-1.17343-3.39536
		c-0.12096-0.29745-0.23895-0.58845-0.35396-0.873c-0.11749-0.28704-0.2335-0.5711-0.36437-0.84327
		c-0.2524-0.52032-0.53342-1.02626-0.84178-1.51549c-0.29745-0.46848-0.58597-0.90275-0.8626-1.30728
		s-0.54582-0.77634-0.80459-1.10501c-0.40696-0.52136-0.85453-1.0097-1.33851-1.46046
		c-0.17103-0.15913-0.30786-0.2796-0.40155-0.35843l-0.10559-0.09072C10.53097,42.66699,10.51907,42.65658,10.51759,42.65807z"/>
	<path class="st6" d="M14.88708,48.52075c0.01767-0.0481,0.03014-0.09797,0.03718-0.14872
		c0.02082-0.09667,0.04759-0.23498,0.07585-0.40899c0.058-0.34653,0.12344-0.8269,0.19185-1.35636s0.1398-1.00835,0.20375-1.35339
		c0.03123-0.17103,0.058-0.31083,0.07734-0.4075c0.01343-0.04854,0.02141-0.09842,0.0238-0.14872
		c-0.02252,0.04733-0.03901,0.09729-0.04908,0.14872c-0.02677,0.0937-0.06098,0.23201-0.09816,0.40304
		c-0.07436,0.34355-0.14872,0.82244-0.2216,1.35339c-0.07288,0.53094-0.1279,0.99645-0.17252,1.35934
		c-0.02231,0.16211-0.04164,0.29744-0.05503,0.41048C14.89026,48.42091,14.88577,48.47082,14.88708,48.52075z"/>
	<path class="st6" d="M10.3644,47.57487c0.05906,0.01404,0.11931,0.02251,0.17995,0.02528
		c0.116,0.01339,0.28555,0.03123,0.49227,0.06098c0.41494,0.05354,0.98604,0.14872,1.61068,0.2796s1.18979,0.27811,1.58688,0.39263
		c0.20226,0.05651,0.36437,0.10708,0.47591,0.14129c0.05726,0.02139,0.11656,0.03684,0.17698,0.0461
		c-0.05431-0.02721-0.11047-0.05056-0.16806-0.0699c-0.11006-0.04164-0.27068-0.09816-0.47145-0.16062
		c-0.40007-0.1279-0.96075-0.2796-1.58688-0.41196c-0.53459-0.11493-1.07465-0.20279-1.61811-0.26324
		c-0.2097-0.0238-0.37925-0.03421-0.49525-0.03867C10.48656,47.56972,10.42527,47.56921,10.3644,47.57487z"/>
	<path class="st6" d="M16.74315,53.55059c0.0132-0.01634,0.02419-0.03434,0.03272-0.05354l0.0818-0.16062
		c0.0699-0.1398,0.16657-0.34355,0.28257-0.59489c0.23201-0.50864,0.52946-1.22102,0.84624-2.01074
		c0.31678-0.78972,0.60977-1.50508,0.82988-2.01669l0.26324-0.60679l0.07139-0.16508
		c0.01487-0.03867,0.02231-0.05949,0.01933-0.05949c-0.01225,0.01671-0.02271,0.03465-0.03123,0.05354l-0.0818,0.16062
		c-0.07139,0.1398-0.16657,0.34355-0.28257,0.59489c-0.23201,0.50864-0.52946,1.22102-0.84772,2.01074
		c-0.31827,0.78972-0.60828,1.50508-0.82988,2.01669c-0.10708,0.24986-0.19632,0.45509-0.26324,0.60679l-0.0699,0.16508
		C16.75449,53.50993,16.74749,53.52993,16.74315,53.55059z"/>
	<path class="st6" d="M10.75406,51.4863c0,0,0.01933,0.01189,0.058,0.02676l0.17401,0.06098l0.64249,0.22308
		c0.54135,0.18739,1.28646,0.45509,2.1089,0.75254s1.57052,0.55771,2.11633,0.7347c0.27365,0.08923,0.49376,0.15765,0.64844,0.20226
		l0.17698,0.05056c0.04164,0.01189,0.06395,0.01636,0.06395,0.01339c-0.01891-0.01045-0.03884-0.01893-0.05949-0.02529
		l-0.17401-0.06246l-0.641-0.2216c-0.54135-0.18739-1.28646-0.45509-2.1089-0.75254s-1.57201-0.5592-2.11633-0.73618
		c-0.27365-0.08775-0.49525-0.15765-0.64843-0.20226l-0.17847-0.05057C10.79619,51.49315,10.77527,51.48867,10.75406,51.4863z"/>
</g>
<g id="freepik--Computer--inject-2_00000124852775542314681920000004133966998885891978_">
	
		<linearGradient id="SVGID_1_" gradientUnits="userSpaceOnUse" x1="28.59115" y1="32.3929" x2="52.81237" y2="-9.55949" gradientTransform="matrix(1 0 0 -1 0 56)">
		<stop  offset="0.01804" style="stop-color:#677A84"/>
		<stop  offset="1" style="stop-color:#4E616B"/>
	</linearGradient>
	<path class="st7" d="M19.54956,29.1629h42.30439c1.19675,0,2.1669,0.97015,2.1669,2.1669v26.50698
		c0,1.19675-0.97015,2.1669-2.1669,2.1669H19.54956c-1.19674,0-2.1669-0.97015-2.1669-2.1669V31.3298
		C17.38266,30.13305,18.35282,29.1629,19.54956,29.1629z"/>
	
		<linearGradient id="SVGID_00000109012359118664207050000014055028323640022402_" gradientUnits="userSpaceOnUse" x1="34.21616" y1="9.12075" x2="47.53294" y2="-13.9446" gradientTransform="matrix(1 0 0 -1 0 56)">
		<stop  offset="0.01804" style="stop-color:#677A84"/>
		<stop  offset="1" style="stop-color:#4E616B"/>
	</linearGradient>
	<path style="fill:url(#SVGID_00000109012359118664207050000014055028323640022402_);" d="M15.4329,57.72377h50.5288l0,0v0.05206
		c0,1.46205-1.18523,2.64728-2.64727,2.64728H18.08017c-1.46205,0-2.64728-1.18523-2.64728-2.64728L15.4329,57.72377
		L15.4329,57.72377z"/>
	<path class="st9" d="M19.5082,30.38838h42.2874c0.46592,0,0.84362,0.3777,0.84362,0.84362v25.20083h-44.0043V31.26167
		C18.63491,30.77937,19.0259,30.38838,19.5082,30.38838z"/>
	<polygon class="st10" points="36.10398,57.72377 36.73159,58.72169 45.55386,58.72169 46.13686,57.72377 	"/>
	<rect x="17.38266" y="57.74458" class="st10" width="46.6382" height="0.14872"/>
</g>
<linearGradient id="SVGID_00000163045080376615374970000003495151997424219034_" gradientUnits="userSpaceOnUse" x1="33.80162" y1="11.0233" x2="47.4613" y2="11.0233" gradientTransform="matrix(1 0 0 -1 0 56)">
	<stop  offset="0.03866" style="stop-color:#FFC543"/>
	<stop  offset="1" style="stop-color:#FFB34C"/>
</linearGradient>
<path style="fill:url(#SVGID_00000163045080376615374970000003495151997424219034_);" d="M40.63146,38.14686
	c-3.75375,0-6.82984,3.0761-6.82984,6.82984c0,3.75374,3.0761,6.82984,6.82984,6.82984c3.75374,0,6.82984-3.0761,6.82984-6.82984
	C47.4613,41.22296,44.3852,38.14686,40.63146,38.14686z"/>
<path class="st12" d="M47.4613,44.9767c0,3.75374-3.0761,6.82984-6.82984,6.82984V38.14686
	C44.3852,38.14686,47.4613,41.22296,47.4613,44.9767z"/>
<path class="st13" d="M22.78109,31.50847c0.00138,0.22571-0.18048,0.4098-0.40619,0.41117s-0.4098-0.18048-0.41117-0.40619
	c-0.00138-0.22571,0.18048-0.4098,0.40619-0.41117c0.00083,0,0.00166-0.00001,0.00249-0.00001
	C22.59715,31.10227,22.77972,31.28373,22.78109,31.50847z"/>
<path class="st13" d="M20.30403,31.50847c0,0.22571-0.18298,0.40869-0.40869,0.40869s-0.40869-0.18298-0.40869-0.40869
	c0-0.22572,0.18298-0.40869,0.40869-0.40869l0,0C20.12105,31.09978,20.30403,31.28276,20.30403,31.50847z"/>
<path class="st13" d="M21.49272,31.50847c0,0.22571-0.18298,0.40869-0.40869,0.40869s-0.40869-0.18298-0.40869-0.40869
	c0-0.22572,0.18298-0.40869,0.40869-0.40869l0,0C21.30974,31.09978,21.49272,31.28276,21.49272,31.50847z"/>
<path class="st14" d="M62.62801,34.44994h-43.9931v-3.6759c0-0.21299,0.17266-0.38565,0.38565-0.38565h43.23335
	c0.2066,0,0.37408,0.16748,0.37408,0.37408v3.68747H62.62801z"/>
<path class="st15" d="M41.53294,45.15093l2.01527-2.01527l-0.89559-0.89559l-2.01524,2.01524l-2.01497-2.01532l-0.89649,0.89509
	l2.01585,2.01585l-2.01524,2.01524l0.89559,0.89558l2.01526-2.01526l2.01523,2.0153l0.89563-0.89563L41.53294,45.15093z"/>
<g>
	<g>
		<g>
			<path class="st15" d="M61.83938,14.49044c-0.246,0-0.45221,0.20621-0.45221,0.4522s0.2062,0.4522,0.45221,0.4522
				c0.23695,0,0.4522-0.20621,0.44135-0.44135C62.29158,14.69484,62.08718,14.49044,61.83938,14.49044z"/>
			<path class="st15" d="M61.72723,11.31597c-0.21525,0.0615-0.3491,0.25685-0.3491,0.49381
				c0.01085,0.1429,0.0199,0.2876,0.03075,0.4305c0.03075,0.54445,0.0615,1.07805,0.09225,1.62251
				c0.01085,0.1845,0.15375,0.31835,0.33825,0.31835c0.1845,0,0.3292-0.14289,0.33825-0.3292c0-0.11215,0-0.21525,0.01085-0.3292
				c0.0199-0.3491,0.0416-0.6982,0.0615-1.0473c0.01085-0.2261,0.03075-0.4522,0.0416-0.67831
				c0-0.0814-0.01085-0.15375-0.0416-0.2261C62.15773,11.36843,61.94248,11.26533,61.72723,11.31597z"/>
		</g>
	</g>
	<path class="st2" d="M61.83482,16.44585c-1.74916,0-3.17237-1.42321-3.17237-3.17237s1.42321-3.17237,3.17237-3.17237
		s3.17236,1.42321,3.17236,3.17237S63.58397,16.44585,61.83482,16.44585z M61.83482,10.58345
		c-1.48326,0-2.69004,1.20677-2.69004,2.69003s1.20677,2.69003,2.69004,2.69003c1.48326,0,2.69003-1.20677,2.69003-2.69003
		S63.31808,10.58345,61.83482,10.58345z"/>
</g>
<path class="st2" d="M88.18134,25.85764H75.94016c-0.83882,0-1.51882-0.68-1.51882-1.51882V13.12877
	c0-0.83882,0.68-1.51882,1.51882-1.51882h12.24117c0.83882,0,1.51882,0.68,1.51882,1.51882v11.21005
	C89.70016,25.17765,89.02016,25.85764,88.18134,25.85764z"/>
<path class="st9" d="M78.59701,19.38486c0.25137,1.16934,0.4605,2.28288,1.19298,3.08423h-1.39708
	c-0.32654,0.00001-0.59179-0.26367-0.59373-0.5902v-6.65711c0.00056-0.32751,0.26621-0.59272,0.59373-0.59272h1.00948
	c-0.24599,0.22429-0.46194,0.47944-0.64249,0.75912C77.96106,16.61232,78.28934,17.94706,78.59701,19.38486z M86.18266,14.62906
	h-1.58409c0.37504,0.37503,0.69125,0.86067,0.93005,1.46445l-2.40806,0.50826c-0.26393-0.50574-0.66511-0.92653-1.44987-0.76113
	c-0.43285,0.0915-0.71991,0.33431-0.8471,0.60026c-0.15634,0.32778-0.23326,0.69527,0.14077,2.44175
	c0.37402,1.74647,0.59422,2.05112,0.87072,2.28741c0.22472,0.19104,0.58719,0.29711,1.02003,0.20562
	c0.78526-0.1654,0.97881-0.71186,1.01299-1.28045l2.40807-0.50876c0.05681,1.24576-0.32879,2.212-1.00948,2.88012h0.91596
	c0.32674,0.00028,0.59229-0.26348,0.59422-0.5902v-6.6546C86.77633,14.89407,86.51037,14.62878,86.18266,14.62906z"/>
</svg>
