<?xml version="1.0" encoding="utf-8"?>
<!-- Generator: Adobe Illustrator 27.8.1, SVG Export Plug-In . SVG Version: 6.00 Build 0)  -->
<svg version="1.1" id="Ebene_1" xmlns="http://www.w3.org/2000/svg" xmlns:xlink="http://www.w3.org/1999/xlink" x="0px" y="0px"
	 viewBox="0 0 100 76.51418" style="enable-background:new 0 0 100 76.51418;" xml:space="preserve">
<style type="text/css">
	.st0{opacity:0.08;fill:#3B6072;}
	.st1{opacity:0.8;}
	.st2{fill:#4E616B;}
	.st3{fill:#A4AFB5;}
	.st4{fill:#D7DDE0;}
	.st5{fill:url(#SVGID_1_);}
	.st6{fill:url(#SVGID_00000005976974984383691930000015662695127988308608_);}
	.st7{opacity:0.08;fill:#4E616B;enable-background:new    ;}
	.st8{fill:url(#SVGID_00000105414582621674788920000014583632834820201402_);}
	.st9{fill:none;}
	.st10{fill:#FFFFFF;}
	.st11{fill:#566974;}
</style>
<path class="st0" d="M14.34363,19.38941c-5.22876,5.54746-9.89978,12.98973-9.9944,21.56988
	c-0.10956,9.71055,5.69686,18.01682,12.18799,23.2854c9.92717,8.06225,21.99067,11.29411,33.81513,11.23935
	c9.60349-0.04731,19.5207-2.33801,27.38874-9.23996s13.24619-19.1273,11.58543-30.98912
	c-1.13289-8.09711-5.3184-15.11858-10.41021-20.28759C71.27236,7.2064,62.48307,1.60914,52.59075,1.71371
	c-8.9362,0.09213-17.8475,2.73887-25.89481,7.61905C22.14377,12.11252,17.98864,15.49542,14.34363,19.38941z"/>
<g class="st1">
	<g>
		<path class="st2" d="M82.56866,42.29506c-0.66589-0.85577-1.51282-0.8443-1.51282-0.8443
			C81.45282,42.34803,82.56866,42.29506,82.56866,42.29506z M80.78455,43.65681c0.71857-0.1272,0.71558-0.95526,0.71558-0.95526
			C80.80481,43.03352,80.78455,43.65681,80.78455,43.65681z M83.08765,40.76448c-0.66547-1.3985-1.91821-1.4408-1.91821-1.4408
			C81.42316,40.76838,83.08765,40.76448,83.08765,40.76448z M77.69611,39.87178c-0.29114,0.71338,0.11316,1.18817,0.11316,1.18817
			C78.25537,40.48243,77.69611,39.87178,77.69611,39.87178z M80.77869,41.19862c-0.78027,0.59485-0.46912,1.66772-0.46912,1.66772
			C80.98694,42.0196,80.77869,41.19862,80.77869,41.19862z M83.77087,38.93873c-0.40009-1.49615-1.62427-1.76562-1.62427-1.76562
			C82.13342,38.6399,83.77087,38.93873,83.77087,38.93873z M79.47888,40.06154c-0.69293,0.84784-0.34155,1.66144-0.34155,1.66144
			C79.98419,41.12434,79.47888,40.06154,79.47888,40.06154z M85.73114,35.28877c-0.37885-1.01593-1.19031-1.25873-1.19031-1.25873
			C84.65076,35.00502,85.73114,35.28877,85.73114,35.28877z M87.00049,33.6631c0.15125-0.75555-0.33545-1.14545-0.33545-1.14545
			C86.33594,33.16896,87.00049,33.6631,87.00049,33.6631z M86.18591,34.4377c0.11804-1.07788-0.4978-1.65936-0.4978-1.65936
			C85.34821,33.69874,86.18591,34.4377,86.18591,34.4377z M84.49518,37.16755c-0.66583-0.85577-1.51276-0.8443-1.51276-0.8443
			C83.37939,37.22053,84.49518,37.16755,84.49518,37.16755z M88.86078,32.61903c-1.09003,0.10382-1.4212,0.92578-1.4212,0.92578
			C88.46069,33.72578,88.86078,32.61903,88.86078,32.61903z M76.72076,41.16017c-1.08533-0.14459-1.59332,0.5816-1.59332,0.5816
			C76.08154,42.14821,76.72076,41.16017,76.72076,41.16017z M85.12244,36.31855c-0.40009-1.49615-1.62427-1.76562-1.62427-1.76562
			C83.48499,36.01973,85.12244,36.31855,85.12244,36.31855z M84.22522,41.3329c0.79834,0.66193,1.69305-0.10242,1.69305-0.10242
			C84.91943,40.78199,84.22522,41.3329,84.22522,41.3329z M86.20111,36.41316c0.77734,0.59863,1.7323,0.01904,1.7323,0.01904
			C86.93964,35.99849,86.20111,36.41316,86.20111,36.41316z M85.31415,37.81355c0.99536,1.07745,2.39282,0.17322,2.39282,0.17322
			C86.39044,37.17109,85.31415,37.81355,85.31415,37.81355z M84.62677,39.57576c0.99536,1.07739,2.39282,0.17316,2.39282,0.17316
			C85.70306,38.93324,84.62677,39.57576,84.62677,39.57576z M83.04462,44.66017c1.22424,0.80798,2.36475-0.40436,2.36475-0.40436
			C83.93591,43.77882,83.04462,44.66017,83.04462,44.66017z M87.80298,34.25123c0.67169,0.2854,1.12085-0.41028,1.12085-0.41028
			C88.15997,33.73994,87.80298,34.25123,87.80298,34.25123z M86.97437,35.1371c0.31866,0.65656,1.11444,0.42743,1.11444,0.42743
			C87.57953,34.98634,86.97437,35.1371,86.97437,35.1371z M78.77594,42.8415c-0.76965-0.0351-1.08148,0.50494-1.08148,0.50494
			C78.38806,43.57319,78.77594,42.8415,78.77594,42.8415z M85.17712,43.05427c-0.99377-0.43372-1.7323-0.01904-1.7323-0.01904
			C84.22223,43.63386,85.17712,43.05427,85.17712,43.05427z M76.45251,42.99171c1.02332,0.16852,1.40985-0.94299,1.40985-0.94299
			C76.77368,42.16578,76.45251,42.99171,76.45251,42.99171z M78.59241,45.72114c0.90717,0.50262,1.64478-0.41431,1.64478-0.41431
			C79.17249,45.05116,78.59241,45.72114,78.59241,45.72114z M79.69684,43.90193c-1.08868,0.117-1.40985,0.94299-1.40985,0.94299
			C79.3103,45.01344,79.69684,43.90193,79.69684,43.90193z M78.37006,46.52369c0.87164,1.17981,2.35956,0.43372,2.35956,0.43372
			C79.51019,46.0027,78.37006,46.52369,78.37006,46.52369z M87.24768,34.18226l-0.11127-0.09204
			c-3.31848,4.00812-4.71234,9.17194-5.29736,12.79797c-0.07556,0.46838-0.13965,0.92334-0.1944,1.36237
			c-0.10388-0.66095-0.32428-1.78485-0.74939-2.93835c-0.88055-2.38898-2.23529-3.81818-3.91791-4.13306l-0.02649,0.14197
			c3.80237,0.71143,4.56854,6.97614,4.62628,7.50525c-0.32312,2.94019-0.21893,5.01459-0.21759,5.03943l0.14404-0.00775
			c-0.00134-0.02466-0.10468-2.08472,0.21619-5.00848l0.00494-0.00043c-0.00006-0.0011-0.00085-0.00903-0.00232-0.02332
			c0.06677-0.60517,0.15131-1.24622,0.25916-1.91468C82.56372,43.30275,83.94983,38.16536,87.24768,34.18226z"/>
	</g>
</g>
<g>
	<path class="st3" d="M84.42179,55.11861c-4.14623,0.20527-5.06081,2.74418-5.94406,1.98502
		c-0.04571-0.03931-0.08321-0.07844-0.11378-0.12151c-0.53333-0.73534,1.19876-1.92925,1.19086-5.89474
		c-0.0031-2.50903-0.1404-7.14928,1.66465-7.58748c1.54504-0.37384,1.00651,3.41034,3.2101,3.02712
		c1.60189-0.2782-0.5196-3.19884,0.90498-3.76547c1.57777-0.62776,1.53668,2.41687,2.8697,1.58134
		c1.33035-0.83556,1.75773-3.50795,2.96046-2.77624c0.01894,0.01136,0.03645,0.02403,0.05265,0.03535
		c1.11063,0.75027-0.04858,2.49146-0.86439,3.59526c-0.82855,1.1213-1.1535,1.40596-0.7887,1.6327
		c0.36476,0.2267,2.44081-0.07981,2.3115,1.24516c-0.13068,1.32629-3.65163,1.09036-4.75168,2.49334
		c-1.10142,1.40434,2.31187,0.71137,1.58545,2.31114C88.29047,53.79879,86.48116,55.01842,84.42179,55.11861z"/>
	<polygon class="st4" points="87.17233,52.73204 82.89969,52.43695 85.88663,48.82981 85.88726,48.83503 89.34467,48.2586 
		86.14001,48.52379 89.62833,44.31116 87.46629,46.67745 86.46249,44.74822 87.26295,46.90004 83.96449,50.51011 81.65222,46.51268 
		83.77195,50.72085 79.63398,55.28262 80.07092,55.66275 82.68176,52.70009 	"/>
</g>
<g>
	<g>
		
			<linearGradient id="SVGID_1_" gradientUnits="userSpaceOnUse" x1="38.62821" y1="15.80871" x2="81.76177" y2="15.80871" gradientTransform="matrix(1 0 0 -1 0 56)">
			<stop  offset="0.01804" style="stop-color:#4E616B"/>
			<stop  offset="1" style="stop-color:#43545C"/>
		</linearGradient>
		<path class="st5" d="M81.76177,21.31589l-0.00941,2.12061l-0.03211,35.86013c-0.00043,0.49265-0.40099,0.89121-0.89363,0.88919
			l-42.19841-0.17268V24.76288c0-0.82634,0.67167-1.49524,1.49798-1.49185l14.53339,0.05966l16.56036,0.06817l0.62772-1.16372
			l0.80402-1.48819c0.18103-0.33853,0.53838-0.55482,0.93099-0.55012l7.09762,0.02586
			C81.28217,20.2274,81.76177,20.71169,81.76177,21.31589z"/>
	</g>
	
		<linearGradient id="SVGID_00000098213204668049236870000004687568453770427036_" gradientUnits="userSpaceOnUse" x1="53.32499" y1="35.42607" x2="53.32499" y2="23.88739" gradientTransform="matrix(1 0 0 -1 0 56)">
		<stop  offset="0.03866" style="stop-color:#D8F7B7"/>
		<stop  offset="1" style="stop-color:#9AEBA3"/>
	</linearGradient>
	<path style="fill:url(#SVGID_00000098213204668049236870000004687568453770427036_);" d="M63.31997,42.83777H43.33001
		c-0.61069,0-1.10576-0.49507-1.10576-1.10578V20.6381c0-0.61069,0.49507-1.10576,1.10576-1.10576h19.98996
		c0.61069,0,1.10576,0.49507,1.10576,1.10576v21.09389C64.42573,42.3427,63.93066,42.83777,63.31997,42.83777z"/>
	<path class="st7" d="M63.31997,42.83777H43.33001c-0.61069,0-1.10576-0.49507-1.10576-1.10578V20.6381
		c0-0.61069,0.49507-1.10576,1.10576-1.10576h19.98996c0.61069,0,1.10576,0.49507,1.10576,1.10576v21.09389
		C64.42573,42.3427,63.93066,42.83777,63.31997,42.83777z"/>
	
		<linearGradient id="SVGID_00000017487734813922000930000001677864302061429168_" gradientUnits="userSpaceOnUse" x1="50.99957" y1="17.97371" x2="59.58441" y2="-14.62688" gradientTransform="matrix(1 0 0 -1 0 56)">
		<stop  offset="0.01804" style="stop-color:#677A84"/>
		<stop  offset="1" style="stop-color:#4E616B"/>
	</linearGradient>
	<path style="fill:url(#SVGID_00000017487734813922000930000001677864302061429168_);" d="M80.31115,60.70417l-45.42812,0.18337
		c-0.60889,0.00236-1.14962-0.38555-1.34476-0.96153l-7.31862-21.83598l-1.70211-5.07578
		c-0.30799-0.91219,0.3691-1.85727,1.33065-1.85963l1.09556-0.0047l44.3349-0.18102
		c0.60654-0.00236,1.14962,0.38557,1.34241,0.96391l8.52467,25.42592l0.21866,0.64886l0.27976,0.83695
		C81.94978,59.75673,81.2727,60.69947,80.31115,60.70417z"/>
	<polyline class="st9" points="80.57133,61.52663 80.57133,60.69835 80.57133,23.95028 	"/>
</g>
<g>
	<circle class="st10" cx="69.95985" cy="32.42722" r="6.20967"/>
	<path class="st11" d="M72.79698,34.58865l-2.05413-2.05413l2.05413-2.05413c0.18621-0.18645,0.18621-0.48956-0.00024-0.67576
		c-0.1862-0.18547-0.48931-0.18523-0.67551,0.00024L70.0671,31.859l-2.05413-2.05413c-0.18597-0.18596-0.48907-0.18547-0.67552,0
		c-0.1862,0.18596-0.1862,0.48907,0,0.67552l2.05414,2.05413l-2.05414,2.05413c-0.1862,0.18645-0.1862,0.48956,0.00024,0.67576
		c0.18084,0.18011,0.49541,0.18035,0.67528-0.00024l2.05413-2.05413l2.05438,2.05438c0.09029,0.09005,0.21037,0.1396,0.33775,0.1396
		c0.1274,0,0.24722-0.04954,0.33776-0.13984C72.98319,35.0782,72.98319,34.7751,72.79698,34.58865z"/>
</g>
</svg>
