<?xml version="1.0" encoding="utf-8"?>
<!-- Generator: Adobe Illustrator 27.8.1, SVG Export Plug-In . SVG Version: 6.00 Build 0)  -->
<svg version="1.1" id="Ebene_1" xmlns="http://www.w3.org/2000/svg" xmlns:xlink="http://www.w3.org/1999/xlink" x="0px" y="0px"
	 viewBox="0 0 100 76.51418" style="enable-background:new 0 0 100 76.51418;" xml:space="preserve">
<style type="text/css">
	.st0{opacity:0.08;fill:#3B6072;}
	.st1{fill:#566974;}
	.st2{opacity:0.1;fill:#FFFFFF;enable-background:new    ;}
	.st3{opacity:0.2;enable-background:new    ;}
	.st4{opacity:0.25;fill:#FFFFFF;enable-background:new    ;}
	.st5{opacity:0.2;fill:#FFFFFF;enable-background:new    ;}
	.st6{opacity:0.5;fill:#FFFFFF;enable-background:new    ;}
	.st7{fill:#FFFFFF;}
	.st8{opacity:0.7;fill:#FFFFFF;enable-background:new    ;}
	.st9{fill:#263238;}
	.st10{fill:#E0E0E0;}
	.st11{fill:url(#SVGID_1_);}
	.st12{opacity:0.15;fill:#EF6507;enable-background:new    ;}
</style>
<path class="st0" d="M86.99879,10.86824C80.34623-3.29705,56.7239-1.29795,47.60999,8.66184S35.52957,25.00733,27.30679,21.29028
	S8.59764,18.56444,8.00673,30.38275s9.02099,25.79299,24.31331,29.92702S47.6076,79.07611,67.84646,76.12391
	c11.03439-1.60834,11.28458-13.54816,9.72628-23.42218S94.71168,27.29474,86.99879,10.86824z"/>
<g id="freepik--Window--inject-2_00000050634651840606009760000004956728405140065175_">
	<path class="st1" d="M87.9329,26.273v33.10309c-0.01853,0.81365-0.66712,1.47233-1.48038,1.50342H38.8153
		c-0.79118,0-1.38005-0.71059-1.38005-1.50342V26.273c-0.02272-0.75912,0.57425-1.39292,1.33337-1.41563
		c0.01556-0.00047,0.03112-0.00067,0.04668-0.0006h47.63721C87.24878,24.84827,87.90614,25.47714,87.9329,26.273z"/>
	<path class="st2" d="M87.9329,30.39834v28.97775c-0.01853,0.81365-0.66712,1.47233-1.48038,1.50342H38.8153
		c-0.79118,0-1.38005-0.71059-1.38005-1.50342v-11.2789c4.19114-8.05989,14.18211-9.36592,25.87881-4.65335
		C79.87302,50.11546,86.93446,41.06042,87.9329,30.39834z"/>
</g>
<g id="freepik--Tabs--inject-2_00000091001401491630699740000017542265167040195248_">
	<path class="st3" d="M41.92088,28.57318h12.30695c0.88335,0,1.59945,0.71609,1.59945,1.59945v12.30695
		c0,0.88335-0.7161,1.59945-1.59945,1.59945H41.92088c-0.88335,0-1.59945-0.7161-1.59945-1.59945V30.17262
		C40.32143,29.28927,41.03752,28.57318,41.92088,28.57318z"/>
	<path class="st1" d="M46.011,26.87124h10.31039c0.74085,0,1.34142,0.60057,1.34142,1.34142v10.31038
		c0,0.74085-0.60057,1.34141-1.34142,1.34141H46.011c-0.74084,0-1.34142-0.60057-1.34142-1.34141V28.21267
		C44.66958,27.47182,45.27015,26.87124,46.011,26.87124z"/>
	<path class="st4" d="M46.011,26.87124h10.31039c0.74085,0,1.34142,0.60057,1.34142,1.34142v10.31038
		c0,0.74085-0.60057,1.34141-1.34142,1.34141H46.011c-0.74084,0-1.34142-0.60057-1.34142-1.34141V28.21267
		C44.66958,27.47182,45.27015,26.87124,46.011,26.87124z"/>
	<path class="st5" d="M46.56001,26.87124h10.31038c0.74085,0,1.34141,0.60057,1.34141,1.34142v10.31038
		c0,0.74085-0.60057,1.34141-1.34141,1.34141H46.56001c-0.74085,0-1.34141-0.60057-1.34141-1.34141V28.21267
		C45.2186,27.47182,45.81916,26.87124,46.56001,26.87124z"/>
	<path class="st3" d="M65.20251,43.62335h11.3773c0.81664,0,1.47868,0.66202,1.47868,1.47867v11.37729
		c0,0.81664-0.66203,1.47867-1.47868,1.47867H65.2025c-0.81665,0-1.47866-0.66202-1.47866-1.47867V45.10202
		C63.72385,44.28537,64.38587,43.62335,65.20251,43.62335z"/>
	<path class="st1" d="M68.56428,42.85657h9.53262c0.68425,0,1.23893,0.55469,1.23893,1.23893v9.53262
		c0,0.68424-0.55468,1.23893-1.23893,1.23893h-9.53262c-0.68424,0-1.23893-0.5547-1.23893-1.23893v-9.53263
		C67.32534,43.41125,67.88004,42.85657,68.56428,42.85657z"/>
	<path class="st5" d="M68.56428,42.85657h9.53262c0.68425,0,1.23893,0.55469,1.23893,1.23893v9.53262
		c0,0.68424-0.55468,1.23893-1.23893,1.23893h-9.53262c-0.68424,0-1.23893-0.5547-1.23893-1.23893v-9.53263
		C67.32534,43.41125,67.88004,42.85657,68.56428,42.85657z"/>
	<path class="st5" d="M69.07121,42.85657h9.53263c0.68424,0,1.23893,0.55469,1.23893,1.23893v9.53262
		c0,0.68424-0.5547,1.23893-1.23893,1.23893h-9.53262c-0.68425,0-1.23893-0.5547-1.23893-1.23893v-9.53263
		C67.83228,43.41125,68.38696,42.85657,69.07121,42.85657z"/>
	<path class="st3" d="M70.09052,32.16736h9.98282c0.71659,0,1.2975,0.5809,1.2975,1.29749v9.98281
		c0,0.71658-0.58091,1.29749-1.2975,1.29749h-9.98282c-0.71658,0-1.29748-0.5809-1.29748-1.29749v-9.98281
		C68.79305,32.74826,69.37395,32.16736,70.09052,32.16736z"/>
	<path class="st1" d="M73.25283,31.05836h8.36507c0.60036,0,1.08704,0.48668,1.08704,1.08703v8.36507
		c0,0.60035-0.48668,1.08703-1.08704,1.08703h-8.36507c-0.60036,0-1.08704-0.48668-1.08704-1.08703v-8.36507
		C72.16578,31.54504,72.65246,31.05836,73.25283,31.05836z"/>
	<path class="st2" d="M73.25283,31.05836h8.36507c0.60036,0,1.08704,0.48668,1.08704,1.08703v8.36507
		c0,0.60035-0.48668,1.08703-1.08704,1.08703h-8.36507c-0.60036,0-1.08704-0.48668-1.08704-1.08703v-8.36507
		C72.16578,31.54504,72.65246,31.05836,73.25283,31.05836z"/>
	<path class="st5" d="M73.69935,31.05836h8.36506c0.60036,0,1.08704,0.48668,1.08704,1.08703v8.36507
		c0,0.60035-0.48668,1.08703-1.08704,1.08703h-8.36506c-0.60036,0-1.08704-0.48668-1.08704-1.08703v-8.36507
		C72.61231,31.54504,73.09899,31.05836,73.69935,31.05836z"/>
	<path class="st3" d="M49.87968,41.90677h12.30695c0.88335,0,1.59944,0.7161,1.59944,1.59945v12.30695
		c0,0.88334-0.71609,1.59943-1.59944,1.59943H49.87968c-0.88335,0-1.59944-0.7161-1.59944-1.59943V43.50623
		C48.28023,42.62288,48.99633,41.90677,49.87968,41.90677z"/>
	<path class="st1" d="M53.25974,40.81059h10.31039c0.74085,0,1.34141,0.60057,1.34141,1.34141v10.3104
		c0,0.74084-0.60058,1.34141-1.34141,1.34141H53.25974c-0.74084,0-1.34141-0.60057-1.34141-1.34141V42.152
		C51.91833,41.41116,52.51891,40.81059,53.25974,40.81059z"/>
	<path class="st6" d="M53.25974,40.81059h10.31039c0.74085,0,1.34141,0.60057,1.34141,1.34141v10.3104
		c0,0.74084-0.60058,1.34141-1.34141,1.34141H53.25974c-0.74084,0-1.34141-0.60057-1.34141-1.34141V42.152
		C51.91833,41.41116,52.51891,40.81059,53.25974,40.81059z"/>
	<path class="st7" d="M54.82076,50.87394L54.82076,50.87394c-0.39669-0.39658-0.39678-1.03967-0.0002-1.43636
		c0.00007-0.00007,0.00014-0.00013,0.0002-0.0002l2.37904-2.36806c0.22116-0.22337,0.5815-0.22516,0.80487-0.00401
		c0.00134,0.00132,0.00267,0.00266,0.00399,0.00401l0.62587,0.62404c0.22387,0.22208,0.22532,0.5836,0.00324,0.80746
		c-0.00108,0.00108-0.00215,0.00216-0.00324,0.00324l-2.36989,2.36989c-0.39168,0.39872-1.03241,0.40444-1.43113,0.01276
		C54.82922,50.88247,54.82497,50.87822,54.82076,50.87394z"/>
	<polygon class="st7" points="59.18721,46.97413 58.72055,46.50747 61.39789,43.83014 61.98167,43.71301 61.86454,44.2968 	"/>
	<path class="st7" d="M58.92368,47.59451l-0.82351-0.82535c-0.07327-0.06961-0.07624-0.18544-0.00663-0.25872
		c0.00216-0.00227,0.00437-0.00448,0.00663-0.00663l0,0c0.06908-0.07378,0.18489-0.07759,0.25866-0.00852
		c0.00294,0.00275,0.00578,0.00558,0.00852,0.00852l0.82351,0.82351c0.07378,0.06908,0.0776,0.18489,0.00852,0.25866
		c-0.00275,0.00294-0.0056,0.00578-0.00852,0.00853l0,0c-0.06908,0.07377-0.18489,0.07759-0.25866,0.00851
		C58.92926,47.60028,58.92643,47.59744,58.92368,47.59451z"/>
	<path class="st7" d="M57.81468,46.01336l-1.12913-1.13279c0.21045-0.56548-0.21594-1.26089-0.67894-1.4439l-0.00915,0.87109
		c0,0.20214-0.16387,0.36601-0.36601,0.36601c-0.20214,0-0.366-0.16387-0.366-0.36601v-0.85645
		c-0.43367,0.17574-0.72626,0.58679-0.75031,1.05409c0.0056,0.55877,0.42289,1.02762,0.97723,1.09803
		c0.18658,0.02866,0.37747,0.00193,0.54901-0.07686l1.13828,1.14194L57.81468,46.01336z"/>
	<path class="st7" d="M61.57357,50.31028v0.86559c0.43367-0.17574,0.72625-0.58679,0.75031-1.05409
		c0.0036-0.55628-0.40166-1.03087-0.95162-1.11449c-0.17502-0.03627-0.35695-0.0184-0.52156,0.05123l-1.1822-1.18586
		l-0.64783,0.64782l1.17488,1.17671c-0.34039,0.6954,0.18301,1.28101,0.65332,1.46402V50.3011
		c0-0.20214,0.16387-0.366,0.36601-0.366c0.20211,0.00397,0.36272,0.17103,0.35873,0.37314
		C61.57361,50.30893,61.57358,50.3096,61.57357,50.31028z"/>
	<path class="st5" d="M53.80875,40.81059h10.31039c0.74084,0,1.34141,0.60057,1.34141,1.34141v10.3104
		c0,0.74084-0.60057,1.34141-1.3414,1.34141h-10.3104c-0.74084,0-1.34141-0.60057-1.34141-1.34141V42.152
		C52.46733,41.41116,53.06791,40.81059,53.80875,40.81059z"/>
	<path class="st1" d="M73.27111,38.459H60.84155c-0.89245,0-1.61591-0.72347-1.61591-1.61591V24.41352
		c0-0.89244,0.72346-1.61591,1.61591-1.61591h12.42957c0.89244,0,1.61591,0.72347,1.61591,1.61591v12.42957
		C74.88703,37.73553,74.16357,38.459,73.27111,38.459z"/>
	<path class="st3" d="M57.54018,25.28462H72.3744c1.06528,0,1.92886,0.86357,1.92886,1.92885v14.83422
		c0,1.06527-0.86357,1.92885-1.92886,1.92885H57.54018c-1.06527,0-1.92885-0.86357-1.92885-1.92885V27.21347
		C55.61134,26.14819,56.47491,25.28462,57.54018,25.28462z"/>
	<path class="st4" d="M73.27111,38.459H60.84155c-0.89245,0-1.61591-0.72347-1.61591-1.61591V24.41352
		c0-0.89244,0.72346-1.61591,1.61591-1.61591h12.42957c0.89244,0,1.61591,0.72347,1.61591,1.61591v12.42957
		C74.88703,37.73553,74.16357,38.459,73.27111,38.459z"/>
</g>
<g id="freepik--Promt-1--inject-2_00000045601221279851354810000012381749074258334602_">
	<rect x="30.37223" y="40.06789" class="st1" width="14.63811" height="9.87836"/>
	<rect x="30.37223" y="40.06789" class="st8" width="14.63811" height="9.87836"/>
	<rect x="30.64524" y="40.82856" class="st9" width="14.05773" height="8.78801"/>
	<rect x="31.28915" y="42.19021" class="st10" width="11.55766" height="0.25756"/>
	<rect x="31.28915" y="42.91996" class="st10" width="9.83886" height="0.25756"/>
	<rect x="31.28915" y="43.64972" class="st10" width="11.55766" height="0.25756"/>
	<rect x="31.28915" y="44.37948" class="st10" width="9.83886" height="0.25756"/>
	<rect x="31.28915" y="45.10923" class="st10" width="1.24831" height="0.25756"/>
	<rect x="31.28915" y="45.83901" class="st10" width="6.40299" height="0.25756"/>
	<rect x="31.28915" y="46.56876" class="st10" width="9.83886" height="0.25756"/>
	<rect x="31.28915" y="47.29852" class="st10" width="1.24831" height="0.25756"/>
	<rect x="31.28915" y="48.02828" class="st10" width="1.24831" height="0.25756"/>
</g>
<g>
	<path class="st7" d="M76.94535,51.31712l-1.56886-1.56885c0.04816-0.08733,0.09187-0.17716,0.1299-0.26715
		c0.1489-0.35206,0.2244-0.7257,0.2244-1.11055c0-0.38489-0.07551-0.75855-0.2244-1.11056
		c-0.14371-0.33974-0.34931-0.64478-0.61115-0.90661c-0.26183-0.26183-0.56686-0.46745-0.90662-0.61114
		c-0.35204-0.1489-0.72569-0.2244-1.11056-0.2244c-0.38489,0-0.75854,0.0755-1.11057,0.2244
		c-0.33975,0.14371-0.64477,0.34932-0.9066,0.61114s-0.46744,0.56684-0.61114,0.90661
		c-0.14889,0.35205-0.2244,0.7257-0.2244,1.11056c0,0.38488,0.0755,0.75853,0.2244,1.11055
		c0.1437,0.33976,0.34931,0.64477,0.61115,0.90662c0.26183,0.26183,0.56686,0.46745,0.90659,0.61113
		c0.35206,0.14891,0.72571,0.2244,1.11057,0.2244c0.38492,0,0.75856-0.07551,1.11056-0.2244
		c0.05626-0.0238,0.11335-0.05022,0.16978-0.07855l1.59185,1.59186c0.14245,0.14244,0.33185,0.22089,0.53326,0.22089
		s0.39082-0.07845,0.53326-0.22086l0.12856-0.12856C77.23935,52.0896,77.23936,51.61117,76.94535,51.31712z M76.56799,52.00625
		l-0.12856,0.12856c-0.04166,0.04163-0.09702,0.06455-0.1559,0.06455s-0.11423-0.02291-0.15589-0.06455l-1.50612-1.50613
		c0.09618-0.07444,0.18826-0.15548,0.27373-0.24094c0.06051-0.06052,0.11928-0.12482,0.17474-0.19124l1.49801,1.49799
		C76.65394,51.78043,76.65394,51.9203,76.56799,52.00625z M75.19711,48.37055c0,0.34564-0.07434,0.67834-0.22097,0.98887
		c-0.07606,0.16109-0.17098,0.31366-0.28215,0.45343c-0.13204,0.16601-0.28613,0.31322-0.45796,0.43757
		c-0.14648,0.10602-0.30525,0.19473-0.47189,0.26369c-0.2813,0.11642-0.57941,0.17545-0.88607,0.17545
		c-1.27873,0-2.31902-1.04031-2.31902-2.31903s1.04032-2.31903,2.31902-2.31903
		C74.15679,46.05151,75.19711,47.09183,75.19711,48.37055z"/>
	<path class="st7" d="M73.25999,48.37054l0.59798-0.59798c0.10404-0.10405,0.10404-0.27332,0-0.37737
		c-0.0504-0.0504-0.11741-0.07816-0.18867-0.07816s-0.13829,0.02776-0.18867,0.07816l-0.59799,0.59797l-0.59798-0.59797
		c-0.05041-0.0504-0.11741-0.07816-0.18869-0.07816c-0.07126,0-0.13827,0.02776-0.18867,0.07816
		c-0.10403,0.10405-0.10403,0.27332,0,0.37737l0.59798,0.59798l-0.59798,0.59798c-0.0504,0.05042-0.07814,0.11742-0.07814,0.18868
		c0,0.07127,0.02776,0.13828,0.07814,0.18867c0.05038,0.0504,0.1174,0.07815,0.1887,0.07815
		c0.07127,0,0.13828-0.02775,0.18867-0.07815l0.59798-0.59797l0.59798,0.59797c0.05041,0.0504,0.11743,0.07815,0.18867,0.07815
		c0.07127,0,0.13829-0.02775,0.18867-0.07815c0.05042-0.05041,0.07814-0.11741,0.07814-0.18867
		c0-0.07127-0.02774-0.13829-0.07814-0.18868L73.25999,48.37054z"/>
</g>
<g>
	
		<linearGradient id="SVGID_1_" gradientUnits="userSpaceOnUse" x1="62.82159" y1="25.3717" x2="71.82909" y2="25.3717" gradientTransform="matrix(1 0 0 -1 0 56)">
		<stop  offset="0.03866" style="stop-color:#FFC543"/>
		<stop  offset="1" style="stop-color:#FFB34C"/>
	</linearGradient>
	<path class="st11" d="M67.32534,26.12455c-2.4753,0-4.50375,2.02845-4.50375,4.50375s2.02845,4.50375,4.50375,4.50375
		s4.50375-2.02845,4.50375-4.50375C71.82911,28.153,69.80066,26.12455,67.32534,26.12455z"/>
	<path class="st12" d="M71.82911,30.62831c0,2.4753-2.02845,4.50375-4.50375,4.50375v-9.00751
		C69.80066,26.12455,71.82911,28.153,71.82911,30.62831z"/>
	<path class="st7" d="M67.91982,30.74319l1.32891-1.32891l-0.59058-0.59057l-1.32889,1.3289l-1.32872-1.32895l-0.59116,0.59025
		l1.32929,1.32929l-1.3289,1.32889l0.59058,0.59057l1.32891-1.32892l1.3289,1.32894l0.59059-0.5906L67.91982,30.74319z"/>
</g>
<path class="st7" d="M78.12502,33.87724c-1.35287,0.00149-2.44921,1.09783-2.4507,2.45069
	c-0.00011,0.33398,0.0688,0.66439,0.20244,0.97047l-0.199,1.19496c-0.0222,0.13352,0.06804,0.25974,0.20156,0.28194
	c0.01324,0.0022,0.02665,0.00331,0.04008,0.00331c0.01355-0.00005,0.02707-0.0012,0.04044-0.00342l1.1947-0.19899
	c0.30606,0.13372,0.63649,0.20264,0.97048,0.20243c1.35348,0,2.4507-1.09721,2.4507-2.45069S79.4785,33.87724,78.12502,33.87724z
	 M78.12502,38.28849c-0.28828-0.00002-0.57294-0.06432-0.83324-0.18821c-0.03273-0.01514-0.06834-0.023-0.10441-0.02304
	c-0.01353,0.00009-0.02704,0.00115-0.04044,0.00319l-0.92979,0.15488l0.15512-0.92979
	c0.00814-0.04912,0.00114-0.09956-0.0201-0.14459c-0.12361-0.2603-0.18774-0.54484-0.18771-0.83299
	c0-1.08278,0.87778-1.96056,1.96056-1.96056s1.96055,0.87777,1.96055,1.96056
	C80.08556,37.41071,79.20779,38.28849,78.12502,38.28849L78.12502,38.28849L78.12502,38.28849z"/>
<path class="st7" d="M78.12502,35.34765c-0.13535,0-0.24508,0.10972-0.24508,0.24508v0.73521
	c0,0.13535,0.10972,0.24508,0.24508,0.24508c0.13535,0,0.24506-0.10972,0.24506-0.24508v-0.73521
	C78.37008,35.45738,78.26036,35.34765,78.12502,35.34765z"/>
<path class="st7" d="M78.29901,36.88914c-0.0961-0.09531-0.25127-0.09467-0.34659,0.00142
	c-0.09531,0.0961-0.09467,0.25127,0.00143,0.34657c0.04556,0.04519,0.10701,0.07069,0.17116,0.07106
	c0.13667-0.00242,0.24551-0.11519,0.24308-0.25187C78.36699,36.99389,78.34231,36.93416,78.29901,36.88914z"/>
<g id="Layer_9_00000114773352187418324390000006781016877689841572_">
	<path class="st7" d="M51.90417,34.24439c-0.37274-0.0586-0.63473-0.40346-0.59314-0.76895
		c0.00563-0.04953,0.01689-0.09827,0.03355-0.14524c0.04301-0.12414-0.00126-0.26782-0.10776-0.3573
		c-0.2253-0.19444-0.48069-0.35097-0.75619-0.46349c-0.12385-0.05236-0.26744-0.01387-0.34848,0.09342
		c-0.216,0.28565-0.62266,0.34211-0.90831,0.12612c-0.00474-0.00358-0.00943-0.00724-0.01409-0.01096
		c-0.04177-0.03355-0.07915-0.07225-0.11123-0.11516c-0.08098-0.10706-0.22429-0.14553-0.348-0.09342
		c-0.25433,0.10352-0.49166,0.24469-0.70404,0.41874c-0.11186,0.0909-0.15864,0.23978-0.11311,0.36802
		c0.12698,0.33697-0.04442,0.73193-0.3929,0.87592c-0.0621,0.02578-0.12756,0.04259-0.19441,0.04993
		c-0.13957,0.01656-0.25385,0.1187-0.28593,0.25553c-0.06379,0.28321-0.06947,0.57642-0.0167,0.86189
		c0.02789,0.14134,0.14405,0.24839,0.2872,0.26467c0.3729,0.03923,0.65016,0.3688,0.62637,0.73555
		c-0.0048,0.07382-0.02216,0.14628-0.05136,0.21426c-0.05514,0.12729-0.01245,0.28183,0.10146,0.37589
		c0.22388,0.19131,0.47695,0.34554,0.74957,0.45686c0.03386,0.01304,0.06963,0.02038,0.10587,0.02174
		c0.0998,0.00188,0.19361-0.04746,0.2486-0.13076c0.19792-0.2974,0.59948-0.37804,0.89688-0.18011
		c0.06522,0.0434,0.12201,0.09829,0.16761,0.162c0.08115,0.11516,0.23292,0.15604,0.36093,0.09721
		c0.24945-0.1104,0.48146-0.25656,0.68877-0.43387c0.10854-0.09168,0.15234-0.23835,0.10634-0.36407
		c-0.13107-0.33508,0.03592-0.73161,0.38282-0.87907c0.05869-0.02501,0.12047-0.04202,0.18369-0.05058
		c0.13755-0.02002,0.24802-0.12365,0.27679-0.25963c0.02988-0.13929,0.04608-0.28118,0.04836-0.42362
		c-0.00018-0.15017-0.01602-0.29991-0.04726-0.44678C52.14695,34.3661,52.03882,34.2648,51.90417,34.24439L51.90417,34.24439z
		 M50.48458,34.94591c0.00009,0.4801-0.38905,0.86937-0.86915,0.86946c-0.48011,0.00009-0.86937-0.38904-0.86946-0.86915
		s0.38905-0.86937,0.86915-0.86946c0.00005,0,0.00011,0,0.00016,0C50.09428,34.07927,50.482,34.4669,50.48458,34.94591
		L50.48458,34.94591z"/>
	<path class="st7" d="M54.81676,30.75851c-0.30043-0.04726-0.51169-0.32516-0.47798-0.61976
		c0.00437-0.03994,0.01342-0.07923,0.02695-0.11705c0.03466-0.10004-0.00095-0.21552-0.0868-0.28799
		c-0.18168-0.15683-0.38772-0.28299-0.61-0.37352c-0.1-0.04214-0.21584-0.01076-0.28089,0.07609
		c-0.17429,0.23025-0.50224,0.2756-0.73248,0.10131c-0.00368-0.00279-0.00734-0.00563-0.01095-0.00852
		c-0.03344-0.02712-0.06339-0.05829-0.08916-0.09279c-0.06522-0.08633-0.18074-0.11736-0.28042-0.0753
		c-0.20491,0.08339-0.39611,0.19715-0.56714,0.33745c-0.09012,0.07325-0.12792,0.1933-0.09122,0.29664
		c0.1024,0.27144-0.03577,0.58983-0.31665,0.70593c-0.0501,0.02074-0.10287,0.03431-0.15675,0.04033
		c-0.11214,0.01317-0.20412,0.09497-0.23032,0.2048c-0.05151,0.22828-0.05612,0.46464-0.01355,0.69475
		c0.02283,0.11376,0.11633,0.19989,0.23158,0.21331c0.30043,0.03151,0.52398,0.29744,0.50413,0.59313
		c-0.00369,0.05968-0.01754,0.11829-0.04096,0.1733c-0.04443,0.10271-0.00992,0.22717,0.08193,0.30295
		c0.18042,0.15406,0.38433,0.27824,0.604,0.36786c0.02732,0.01045,0.05616,0.01636,0.08539,0.01749
		c0.08043,0.00145,0.15601-0.03831,0.20039-0.10539c0.15946-0.23972,0.48306-0.30476,0.72277-0.1453
		c0.05261,0.035,0.09842,0.07927,0.1352,0.13066c0.06538,0.09227,0.18696,0.12529,0.29002,0.07877
		c0.20115-0.08901,0.38828-0.20683,0.55548-0.34974c0.08744-0.07389,0.12273-0.1922,0.08554-0.2935
		c-0.10555-0.26987,0.02898-0.58952,0.30862-0.70893c0.04733-0.02014,0.09713-0.03386,0.14808-0.0408
		c0.11084-0.01619,0.19989-0.09965,0.22324-0.20922c0.02408-0.1123,0.03712-0.22671,0.0389-0.34155
		c-0.00014-0.12081-0.01281-0.24129-0.0378-0.3595c-0.02374-0.10697-0.11081-0.18834-0.21915-0.2048V30.75851z M53.67255,31.32392
		c0,0.38692-0.31367,0.70058-0.70058,0.70058s-0.70058-0.31366-0.70058-0.70058s0.31366-0.70058,0.70058-0.70058l0,0
		C53.35807,30.62533,53.67057,30.93783,53.67255,31.32392z"/>
	<path class="st7" d="M55.01147,35.2164c-0.1508-0.12927-0.1743-0.35384-0.05357-0.51154
		c0.01634-0.02075,0.035-0.03957,0.05562-0.05609c0.05448-0.04728,0.07458-0.12303,0.05072-0.19109
		c-0.04749-0.15039-0.11916-0.29203-0.2122-0.41937c-0.04129-0.05791-0.1166-0.08042-0.1829-0.05467
		c-0.1766,0.06873-0.37548-0.01873-0.4442-0.19532c-0.00122-0.00314-0.0024-0.0063-0.00353-0.00948
		c-0.00949-0.0267-0.01558-0.05449-0.01811-0.08271c-0.00672-0.0708-0.06064-0.12802-0.13092-0.13895
		c-0.14345-0.02406-0.2897-0.02644-0.43386-0.00709c-0.07423,0.00832-0.13541,0.06202-0.15329,0.13454
		c-0.0364,0.18716-0.22355,0.3176-0.4208,0.28547c-0.03517-0.00553-0.06934-0.01614-0.10146-0.03151
		c-0.0675-0.03132-0.14738-0.01709-0.19992,0.0356c-0.10752,0.10994-0.1916,0.24055-0.24718,0.38393
		c-0.02671,0.07147-0.0041,0.15201,0.05593,0.19913c0.15629,0.12113,0.19041,0.34341,0.07767,0.50586
		c-0.02259,0.032-0.05052,0.05987-0.08255,0.0824c-0.0613,0.04592-0.08519,0.12662-0.05876,0.19851
		c0.04783,0.14843,0.1191,0.28825,0.2111,0.41416c0.01162,0.01527,0.02568,0.02852,0.04159,0.03923
		c0.04446,0.02859,0.10044,0.03246,0.1484,0.01023c0.17205-0.07903,0.37558-0.0036,0.45459,0.16845
		c0.01728,0.03763,0.0276,0.07808,0.03048,0.11938c0.00447,0.07421,0.0611,0.13474,0.13485,0.14416
		c0.14315,0.01962,0.28841,0.0183,0.43119-0.00394c0.07314-0.00957,0.13264-0.06359,0.14919-0.13549
		c0.03403-0.18732,0.21961-0.31981,0.41702-0.28971c0.03344,0.00496,0.06604,0.0145,0.09688,0.02836
		c0.06762,0.02922,0.14629,0.01318,0.19708-0.04018c0.05221-0.05442,0.09896-0.11384,0.13958-0.17738
		c0.04172-0.06763,0.07625-0.13944,0.10303-0.21426C55.08708,35.33893,55.06652,35.26311,55.01147,35.2164L55.01147,35.2164z
		 M54.17651,35.13764c-0.13351,0.21646-0.41721,0.28371-0.63367,0.15021c-0.21646-0.13351-0.28371-0.41721-0.15021-0.63367
		s0.41721-0.28371,0.63367-0.15021c0.00002,0.00002,0.00005,0.00003,0.00007,0.00004
		c0.21539,0.13441,0.28236,0.4172,0.15013,0.63394C54.17651,35.13795,54.17651,35.13764,54.17651,35.13764z"/>
</g>
</svg>
