<?xml version="1.0" encoding="utf-8"?>
<!-- Generator: Adobe Illustrator 27.8.1, SVG Export Plug-In . SVG Version: 6.00 Build 0)  -->
<svg version="1.1" id="Ebene_1" xmlns="http://www.w3.org/2000/svg" xmlns:xlink="http://www.w3.org/1999/xlink" x="0px" y="0px"
	 viewBox="0 0 100 76.51418" style="enable-background:new 0 0 100 76.51418;" xml:space="preserve">
<style type="text/css">
	.st0{opacity:0.08;}
	.st1{fill:#3B6072;}
	.st2{fill:url(#SVGID_1_);}
	.st3{fill:#FFFFFF;}
	.st4{opacity:0.2;}
	.st5{opacity:0.3;fill:url(#SVGID_00000033360081151814603020000014762142564863845560_);enable-background:new    ;}
	.st6{fill:url(#SVGID_00000152256045573888859830000012604662489900091807_);}
	.st7{fill:url(#SVGID_00000024002796563492743370000005349833701444128156_);}
	.st8{fill:url(#SVGID_00000110472442242743826140000005654683174031208859_);}
	.st9{fill:url(#SVGID_00000126299007779930469980000016936564992726046907_);}
	.st10{fill:url(#SVGID_00000036973830044425689600000018044782497753213327_);}
	.st11{fill:url(#SVGID_00000008870143725560713830000007401993515580239746_);}
	.st12{fill:url(#SVGID_00000028315884903468703590000001208364874168844983_);}
	.st13{fill:url(#SVGID_00000174562904915744919010000015520264355327182488_);}
	.st14{fill:url(#SVGID_00000009591386829081396450000014411158866661039760_);}
	.st15{fill:url(#SVGID_00000177473862279702992160000004471554560947792818_);}
	.st16{fill:url(#SVGID_00000029749511158767698670000004779786684212744589_);}
	.st17{fill:url(#SVGID_00000055699305547124442120000011636770071787625655_);}
	.st18{opacity:0.3;fill:url(#SVGID_00000143586950179728108060000006409308387693207229_);enable-background:new    ;}
	.st19{opacity:0.3;fill:url(#SVGID_00000077286470701319085290000014288472250732347323_);enable-background:new    ;}
	.st20{opacity:0.3;fill:url(#SVGID_00000057836007707345519930000012136830398092283576_);enable-background:new    ;}
	.st21{opacity:0.3;fill:url(#SVGID_00000120541735533698948070000013271892432847017603_);enable-background:new    ;}
	.st22{opacity:0.3;fill:url(#SVGID_00000180357847023980957280000003362000826767024566_);enable-background:new    ;}
	.st23{opacity:0.3;fill:url(#SVGID_00000129887553504901776870000017374969173139397291_);enable-background:new    ;}
	.st24{opacity:0.3;fill:url(#SVGID_00000048470385888713483070000005874135440383946639_);enable-background:new    ;}
	.st25{opacity:0.3;fill:url(#SVGID_00000014632269910456975500000012168094481669844105_);enable-background:new    ;}
	.st26{opacity:0.3;fill:url(#SVGID_00000064315528940898695510000002596367862183450296_);enable-background:new    ;}
	.st27{fill:url(#SVGID_00000028323029390334779770000009669541225862226580_);}
	.st28{opacity:0.15;fill:#3B6072;enable-background:new    ;}
</style>
<g id="freepik--background-simple--inject-347" class="st0">
	<path class="st1" d="M90.1548,36.94951L70.94263,65.55449c-7.01824,10.45111-21.17995,13.234-31.63107,6.21576
		c-0.34594-0.23232-0.68546-0.47408-1.01815-0.72501L15.53739,53.87844C-1.14269,41.30001,6.4946,14.74859,27.32283,12.96847
		l14.52535-1.24143c2.91929-0.24842,5.76318-1.05804,8.3756-2.38443l10.69166-5.42786
		C81.86125-6.71677,103.25005,17.45022,90.1548,36.94951z"/>
</g>
<g>
	<g>
		
			<linearGradient id="SVGID_1_" gradientUnits="userSpaceOnUse" x1="48.38107" y1="64.17905" x2="87.06985" y2="114.44813" gradientTransform="matrix(1 0 0 1 0 -44)">
			<stop  offset="0" style="stop-color:#E4D6CA"/>
			<stop  offset="1" style="stop-color:#D4BDAC"/>
		</linearGradient>
		<circle class="st2" cx="63.13602" cy="39.35044" r="1.29734"/>
	</g>
	<g>
		<path class="st3" d="M59.52539,44.63017c2.18708,0.54292,2.53865,2.4675,4.46482,2.50538
			c2.9982,0.05896,3.83112-4.61639,7.3591-5.25524c3.1708-0.57418,4.55593,2.87002,7.5928,2.46141
			c0.70863-0.09534,1.52957-0.40441,2.42548-1.15672c-2.32163-3.2995-5.07054-7.18528-8.01112-11.62772
			c-0.40399-0.61031-1.33957-2.02874-2.84036-2.23939c-2.8163-0.39524-5.58613,3.73796-6.90136,5.67125
			c-2.56456,3.76978-4.93634,7.02099-7.05275,9.83141C57.58399,44.4888,58.58234,44.39607,59.52539,44.63017z"/>
		<g class="st4">
			
				<linearGradient id="SVGID_00000055690057468112931660000000127186546171554995_" gradientUnits="userSpaceOnUse" x1="56.562" y1="82.61066" x2="70.04855" y2="82.61066" gradientTransform="matrix(1 0 0 1 0 -44)">
				<stop  offset="0" style="stop-color:#F3E9E1"/>
				<stop  offset="1" style="stop-color:#E1D1C5"/>
			</linearGradient>
			<path style="opacity:0.3;fill:url(#SVGID_00000055690057468112931660000000127186546171554995_);enable-background:new    ;" d="
				M67.90937,30.08524c-1.81316,1.22788-3.39519,3.5818-4.29462,4.9039c-2.56456,3.76978-4.93634,7.02099-7.05275,9.83141
				c1.02198-0.33176,2.02033-0.42449,2.96339-0.19039c2.18708,0.54292,2.53865,2.4675,4.46482,2.50538
				c2.59082,0.05094,3.56382-3.42722,6.05834-4.79166c-1.24296-2.82753-3.62759-4.36809-3.7362-7.49218
				C66.26964,33.62314,66.57664,32.022,67.90937,30.08524z"/>
		</g>
		
			<linearGradient id="SVGID_00000130623168784339943600000011287355039261207739_" gradientUnits="userSpaceOnUse" x1="74.71905" y1="55.90097" x2="80.6234" y2="66.1276" gradientTransform="matrix(1 0 0 1 0 -44)">
			<stop  offset="0.03866" style="stop-color:#D8F7B7"/>
			<stop  offset="1" style="stop-color:#9AEBA3"/>
		</linearGradient>
		<path style="fill:url(#SVGID_00000130623168784339943600000011287355039261207739_);" d="M73.73264,14.65315
			c1.89907-0.80083,3.71005-0.58487,4.61426-0.24459c1.06892,0.40226,1.42351,0.70412,2.36979,0.85604
			c0.84108,0.13503,1.71423-0.74231,2.36979-0.12229c0.04414,0.04175,0.09846,0.09371,0.15951,0.18343
			c0.46964,0.69034-0.08515,1.52409,0.06836,2.98084c0.07854,0.74533,0.26857,0.95219,0.44433,2.38466
			c0.06684,0.54472,0.05288,0.62496,0.03418,0.68788c-0.28725,0.96659-2.56606,0.78395-4.16991,0.36687
			c-2.21118-0.57499-2.92307-1.5393-4.37499-1.10061c-0.66976,0.20236-1.17875,0.60711-1.50391,0.91718
			C73.89214,19.26962,73.58453,16.9461,73.73264,14.65315z"/>
		
			<linearGradient id="SVGID_00000147180984895767629040000003424928520696988586_" gradientUnits="userSpaceOnUse" x1="73.66177" y1="69.02607" x2="73.85143" y2="69.02607" gradientTransform="matrix(1 0 0 1 0 -44)">
			<stop  offset="0" style="stop-color:#5D535A"/>
			<stop  offset="1" style="stop-color:#464143"/>
		</linearGradient>
		<path style="fill:url(#SVGID_00000147180984895767629040000003424928520696988586_);" d="M73.75661,36.17549
			c-0.05238,0-0.09483-0.04244-0.09483-0.09482v-22.1092c0-0.05238,0.04244-0.09482,0.09483-0.09482
			c0.05238,0,0.09482,0.04244,0.09482,0.09482v22.1092C73.85143,36.13305,73.80898,36.17549,73.75661,36.17549z"/>
	</g>
	<g>
		
			<linearGradient id="SVGID_00000171686139269938649510000008390881612376838065_" gradientUnits="userSpaceOnUse" x1="73.00331" y1="81.46598" x2="47.45274" y2="112.10704" gradientTransform="matrix(1 0 0 1 0 -44)">
			<stop  offset="0" style="stop-color:#E4D6CA"/>
			<stop  offset="1" style="stop-color:#D4BDAC"/>
		</linearGradient>
		<path style="fill:url(#SVGID_00000171686139269938649510000008390881612376838065_);" d="M65.05127,46.94015
			c0.0555-0.02233,0.1101-0.04681,0.16418-0.07255C65.16137,46.89335,65.10676,46.91779,65.05127,46.94015z"/>
		
			<linearGradient id="SVGID_00000077288313067381132060000015882952625811225473_" gradientUnits="userSpaceOnUse" x1="73.246" y1="81.66834" x2="47.69544" y2="112.30942" gradientTransform="matrix(1 0 0 1 0 -44)">
			<stop  offset="0" style="stop-color:#E4D6CA"/>
			<stop  offset="1" style="stop-color:#D4BDAC"/>
		</linearGradient>
		<path style="fill:url(#SVGID_00000077288313067381132060000015882952625811225473_);" d="M65.92323,46.41705
			c0.0616-0.04922,0.12255-0.10032,0.18282-0.15325C66.04579,46.31677,65.98483,46.36779,65.92323,46.41705z"/>
		
			<linearGradient id="SVGID_00000003063876533561568710000013222876561709427336_" gradientUnits="userSpaceOnUse" x1="73.27795" y1="81.69497" x2="47.72738" y2="112.33606" gradientTransform="matrix(1 0 0 1 0 -44)">
			<stop  offset="0" style="stop-color:#E4D6CA"/>
			<stop  offset="1" style="stop-color:#D4BDAC"/>
		</linearGradient>
		<path style="fill:url(#SVGID_00000003063876533561568710000013222876561709427336_);" d="M66.12525,46.24676
			c0.06344-0.05623,0.12627-0.11422,0.18848-0.17411C66.25154,46.13258,66.18867,46.19048,66.12525,46.24676z"/>
		
			<linearGradient id="SVGID_00000178171385691108458520000001095874863573859255_" gradientUnits="userSpaceOnUse" x1="73.13947" y1="81.57951" x2="47.58891" y2="112.2206" gradientTransform="matrix(1 0 0 1 0 -44)">
			<stop  offset="0" style="stop-color:#E4D6CA"/>
			<stop  offset="1" style="stop-color:#D4BDAC"/>
		</linearGradient>
		<path style="fill:url(#SVGID_00000178171385691108458520000001095874863573859255_);" d="M65.26881,46.84265
			c0.22169-0.1108,0.4318-0.24943,0.634-0.40907C65.70065,46.59337,65.49046,46.73173,65.26881,46.84265z"/>
		
			<linearGradient id="SVGID_00000111909992128582781490000007132226010768677007_" gradientUnits="userSpaceOnUse" x1="72.91026" y1="81.38838" x2="47.3597" y2="112.02946" gradientTransform="matrix(1 0 0 1 0 -44)">
			<stop  offset="0" style="stop-color:#E4D6CA"/>
			<stop  offset="1" style="stop-color:#D4BDAC"/>
		</linearGradient>
		<path style="fill:url(#SVGID_00000111909992128582781490000007132226010768677007_);" d="M64.82449,47.01965
			c0.05128-0.01559,0.10186-0.03275,0.15188-0.05122C64.92636,46.98693,64.87574,47.00404,64.82449,47.01965z"/>
		
			<linearGradient id="SVGID_00000101085863622099570220000000075535224635877007_" gradientUnits="userSpaceOnUse" x1="72.67891" y1="81.19546" x2="47.12833" y2="111.83654" gradientTransform="matrix(1 0 0 1 0 -44)">
			<stop  offset="0" style="stop-color:#E4D6CA"/>
			<stop  offset="1" style="stop-color:#D4BDAC"/>
		</linearGradient>
		<path style="fill:url(#SVGID_00000101085863622099570220000000075535224635877007_);" d="M64.32812,47.11927
			c0.05721-0.00593,0.11406-0.01263,0.16969-0.02205C64.44218,47.10665,64.38531,47.11332,64.32812,47.11927z"/>
		
			<linearGradient id="SVGID_00000030462807346334142530000015743388205368491147_" gradientUnits="userSpaceOnUse" x1="72.80347" y1="81.29933" x2="47.25291" y2="111.94041" gradientTransform="matrix(1 0 0 1 0 -44)">
			<stop  offset="0" style="stop-color:#E4D6CA"/>
			<stop  offset="1" style="stop-color:#D4BDAC"/>
		</linearGradient>
		<path style="fill:url(#SVGID_00000030462807346334142530000015743388205368491147_);" d="M64.58598,47.07979
			c0.05179-0.0106,0.10314-0.02225,0.15364-0.03578C64.68912,47.05756,64.63776,47.06917,64.58598,47.07979z"/>
		
			<linearGradient id="SVGID_00000055679147865512201660000009033071646718387373_" gradientUnits="userSpaceOnUse" x1="72.51733" y1="81.06073" x2="46.96675" y2="111.7018" gradientTransform="matrix(1 0 0 1 0 -44)">
			<stop  offset="0" style="stop-color:#E4D6CA"/>
			<stop  offset="1" style="stop-color:#D4BDAC"/>
		</linearGradient>
		<path style="fill:url(#SVGID_00000055679147865512201660000009033071646718387373_);" d="M63.99022,47.13554
			c0.08809,0.00174,0.17398-0.00138,0.25844-0.00759C64.16419,47.13417,64.0783,47.13727,63.99022,47.13554z"/>
		
			<linearGradient id="SVGID_00000169524742406764995050000000635027533974416037_" gradientUnits="userSpaceOnUse" x1="84.06559" y1="90.69044" x2="58.51503" y2="121.33152" gradientTransform="matrix(1 0 0 1 0 -44)">
			<stop  offset="0.01804" style="stop-color:#4E616B"/>
			<stop  offset="1" style="stop-color:#43545C"/>
		</linearGradient>
		<path style="fill:url(#SVGID_00000169524742406764995050000000635027533974416037_);" d="M69.01627,52.97548
			c-0.07492,1.87506-0.05065,4.78835,4.61447,7.84025c0,0,14.79914,0,16.20226,0s-3.86494-11.09253-8.46542-17.63072
			c-0.8959,0.75229-1.71684,1.06137-2.42548,1.1567c-3.03687,0.40862-4.422-3.03558-7.59279-2.4614
			c-0.4797,0.08687-0.9082,0.25023-1.30047,0.46429c0.38564,0.87746,0.66254,1.88008,0.72911,3.09677
			C70.97244,48.99617,69.13059,50.11451,69.01627,52.97548z"/>
		
			<linearGradient id="SVGID_00000134232443452220184570000016659368278298445502_" gradientUnits="userSpaceOnUse" x1="73.47006" y1="81.85518" x2="47.91949" y2="112.49626" gradientTransform="matrix(1 0 0 1 0 -44)">
			<stop  offset="0" style="stop-color:#E4D6CA"/>
			<stop  offset="1" style="stop-color:#D4BDAC"/>
		</linearGradient>
		<path style="fill:url(#SVGID_00000134232443452220184570000016659368278298445502_);" d="M70.01378,42.36416
			c-1.56992,0.87426-2.53791,2.58761-3.69781,3.70634C67.47562,44.95298,68.44296,43.2409,70.01378,42.36416z"/>
		
			<linearGradient id="SVGID_00000074423447518544875280000002038022732585124239_" gradientUnits="userSpaceOnUse" x1="46.28928" y1="90.85513" x2="75.53831" y2="90.85513" gradientTransform="matrix(1 0 0 1 0 -44)">
			<stop  offset="0" style="stop-color:#A6B2C7"/>
			<stop  offset="1" style="stop-color:#7595B6"/>
		</linearGradient>
		<path style="opacity:0.3;fill:url(#SVGID_00000074423447518544875280000002038022732585124239_);enable-background:new    ;" d="
			M65.21545,46.8676c0.01772-0.00845,0.03578-0.01614,0.05337-0.02495C65.25123,46.85145,65.23318,46.85915,65.21545,46.8676z"/>
		
			<linearGradient id="SVGID_00000016038389290289485850000009723366999637626805_" gradientUnits="userSpaceOnUse" x1="46.28928" y1="91.03183" x2="75.53831" y2="91.03183" gradientTransform="matrix(1 0 0 1 0 -44)">
			<stop  offset="0" style="stop-color:#A6B2C7"/>
			<stop  offset="1" style="stop-color:#7595B6"/>
		</linearGradient>
		<path style="opacity:0.3;fill:url(#SVGID_00000016038389290289485850000009723366999637626805_);enable-background:new    ;" d="
			M64.73962,47.04401c0.02849-0.00766,0.05676-0.01582,0.08487-0.02436C64.79638,47.02817,64.7681,47.03637,64.73962,47.04401z"/>
		
			<linearGradient id="SVGID_00000123407426176113207800000017666927225274029461_" gradientUnits="userSpaceOnUse" x1="46.28928" y1="91.08851" x2="75.53831" y2="91.08851" gradientTransform="matrix(1 0 0 1 0 -44)">
			<stop  offset="0" style="stop-color:#A6B2C7"/>
			<stop  offset="1" style="stop-color:#7595B6"/>
		</linearGradient>
		<path style="opacity:0.3;fill:url(#SVGID_00000123407426176113207800000017666927225274029461_);enable-background:new    ;" d="
			M64.4978,47.09722c0.02972-0.00504,0.05888-0.01141,0.08817-0.01743C64.55666,47.0858,64.52754,47.09218,64.4978,47.09722z"/>
		
			<linearGradient id="SVGID_00000164482627890884716190000002981937034646021259_" gradientUnits="userSpaceOnUse" x1="46.28928" y1="90.07158" x2="64.1807" y2="90.07158" gradientTransform="matrix(1 0 0 1 0 -44)">
			<stop  offset="0" style="stop-color:#A6B2C7"/>
			<stop  offset="1" style="stop-color:#7595B6"/>
		</linearGradient>
		<path style="opacity:0.3;fill:url(#SVGID_00000164482627890884716190000002981937034646021259_);enable-background:new    ;" d="
			M66.31596,46.0705c-0.00075,0.00072-0.00148,0.00143-0.00224,0.00215C66.31448,46.07193,66.31522,46.07122,66.31596,46.0705z"/>
		
			<linearGradient id="SVGID_00000051365409287845817640000008405544429630573236_" gradientUnits="userSpaceOnUse" x1="46.28928" y1="90.95428" x2="75.53831" y2="90.95428" gradientTransform="matrix(1 0 0 1 0 -44)">
			<stop  offset="0" style="stop-color:#A6B2C7"/>
			<stop  offset="1" style="stop-color:#7595B6"/>
		</linearGradient>
		<path style="opacity:0.3;fill:url(#SVGID_00000051365409287845817640000008405544429630573236_);enable-background:new    ;" d="
			M64.97636,46.96842c0.02503-0.00926,0.05017-0.01831,0.07491-0.02827C65.02654,46.9501,65.0014,46.95918,64.97636,46.96842z"/>
		
			<linearGradient id="SVGID_00000042732494845406056270000013836326925629526453_" gradientUnits="userSpaceOnUse" x1="46.28928" y1="90.25528" x2="75.53831" y2="90.25528" gradientTransform="matrix(1 0 0 1 0 -44)">
			<stop  offset="0" style="stop-color:#A6B2C7"/>
			<stop  offset="1" style="stop-color:#7595B6"/>
		</linearGradient>
		<path style="opacity:0.3;fill:url(#SVGID_00000042732494845406056270000013836326925629526453_);enable-background:new    ;" d="
			M66.10604,46.2638c0.00642-0.00564,0.0128-0.01136,0.01921-0.01704C66.11886,46.25243,66.11245,46.25816,66.10604,46.2638z"/>
		
			<linearGradient id="SVGID_00000081623207063424967650000001211591961053135026_" gradientUnits="userSpaceOnUse" x1="46.28928" y1="86.35402" x2="75.53831" y2="86.35402" gradientTransform="matrix(1 0 0 1 0 -44)">
			<stop  offset="0" style="stop-color:#A6B2C7"/>
			<stop  offset="1" style="stop-color:#7595B6"/>
		</linearGradient>
		<path style="opacity:0.3;fill:url(#SVGID_00000081623207063424967650000001211591961053135026_);enable-background:new    ;" d="
			M70.04855,42.34388c-0.0118,0.00646-0.02303,0.01372-0.03477,0.02028c0.01169-0.00651,0.0233-0.01313,0.03506-0.01956
			C70.04874,42.34436,70.04865,42.34411,70.04855,42.34388z"/>
		
			<linearGradient id="SVGID_00000017514029733044997290000005761191728803466172_" gradientUnits="userSpaceOnUse" x1="46.28928" y1="90.42531" x2="75.53831" y2="90.42531" gradientTransform="matrix(1 0 0 1 0 -44)">
			<stop  offset="0" style="stop-color:#A6B2C7"/>
			<stop  offset="1" style="stop-color:#7595B6"/>
		</linearGradient>
		<path style="opacity:0.3;fill:url(#SVGID_00000017514029733044997290000005761191728803466172_);enable-background:new    ;" d="
			M65.90281,46.43358c0.00684-0.00541,0.01359-0.01108,0.02042-0.01654C65.9164,46.4225,65.90965,46.42818,65.90281,46.43358z"/>
		
			<linearGradient id="SVGID_00000046341297302595265800000000268655017800432787_" gradientUnits="userSpaceOnUse" x1="46.28928" y1="91.12361" x2="75.53831" y2="91.12361" gradientTransform="matrix(1 0 0 1 0 -44)">
			<stop  offset="0" style="stop-color:#A6B2C7"/>
			<stop  offset="1" style="stop-color:#7595B6"/>
		</linearGradient>
		<path style="opacity:0.3;fill:url(#SVGID_00000046341297302595265800000000268655017800432787_);enable-background:new    ;" d="
			M64.24866,47.12795c0.0269-0.00197,0.0529-0.00592,0.07946-0.00868C64.30156,47.12202,64.27556,47.12597,64.24866,47.12795z"/>
		
			<linearGradient id="SVGID_00000096753346797591724760000002089448774189350825_" gradientUnits="userSpaceOnUse" x1="75.90359" y1="83.85777" x2="50.26029" y2="114.61005" gradientTransform="matrix(1 0 0 1 0 -44)">
			<stop  offset="0.01804" style="stop-color:#677A84"/>
			<stop  offset="1" style="stop-color:#4E616B"/>
		</linearGradient>
		<path style="fill:url(#SVGID_00000096753346797591724760000002089448774189350825_);" d="M73.62748,60.81573h0.00326
			c-4.66512-3.0519-4.68939-5.96519-4.61447-7.84025c0.11433-2.86098,1.95618-3.97932,1.76169-7.53412
			c-0.06657-1.21668-0.34348-2.2193-0.72911-3.09677c-0.01176,0.00643-0.02338,0.01305-0.03506,0.01956
			c-1.57082,0.87675-2.53816,2.58883-3.69781,3.70634c-0.00075,0.00072-0.00148,0.00143-0.00224,0.00215
			c-0.0622,0.05988-0.12504,0.11788-0.18848,0.17411c-0.00641,0.00568-0.01279,0.0114-0.01921,0.01704
			c-0.06026,0.05293-0.12122,0.10403-0.18282,0.15325c-0.00683,0.00546-0.01357,0.01113-0.02042,0.01654
			c-0.20219,0.15964-0.4123,0.29826-0.634,0.40907c-0.01759,0.00881-0.03564,0.01651-0.05337,0.02495
			c-0.05408,0.02574-0.10867,0.05022-0.16418,0.07255c-0.02473,0.00996-0.04987,0.01901-0.07491,0.02827
			c-0.05002,0.01848-0.10059,0.03563-0.15188,0.05122c-0.02811,0.00854-0.05638,0.0167-0.08487,0.02436
			c-0.0505,0.01353-0.10185,0.02518-0.15364,0.03578c-0.0293,0.00601-0.05845,0.01239-0.08817,0.01743
			c-0.05563,0.00941-0.11247,0.01612-0.16969,0.02205c-0.02656,0.00275-0.05256,0.00671-0.07946,0.00868
			c-0.08447,0.00621-0.17036,0.00933-0.25844,0.00759c-1.92618-0.03787-2.27775-1.96245-4.46482-2.50538
			c-0.94305-0.23409-1.9414-0.14136-2.96338,0.1904c-7.13472,9.47434-11.79702,16.02077-10.06145,15.99517
			C46.50055,60.81573,73.62748,60.81573,73.62748,60.81573z"/>
	</g>
</g>
<g>
	<path class="st28" d="M68.21544,22.50739h-6.60091c0,0,1.47497-2.13698,2.63702-2.13698c1.16206,0,1.50545,1.42465,1.50545,1.42465
		s0.82008-0.66484,1.5799-0.54612C68.09672,21.36767,68.21544,22.50739,68.21544,22.50739z"/>
	<path class="st28" d="M83.8083,30.08524h-6.60091c0,0,1.47498-2.13698,2.63702-2.13698c1.16206,0,1.50545,1.42465,1.50545,1.42465
		s0.82008-0.66484,1.5799-0.54612C83.68958,28.94551,83.8083,30.08524,83.8083,30.08524z"/>
	<path class="st28" d="M64.56612,27.86182h-12.8574c0,0,1.76074-3.93092,3.6443-4.17661
		c1.88356-0.24568,2.78441,2.9209,2.78441,2.9209s1.21475-1.11922,2.17019-1.11922s1.69249,1.4741,1.69249,1.4741
		S63.91097,25.95095,64.56612,27.86182z"/>
</g>
</svg>
