<?xml version="1.0" encoding="utf-8"?>
<!-- Generator: Adobe Illustrator 27.8.1, SVG Export Plug-In . SVG Version: 6.00 Build 0)  -->
<svg version="1.1" id="Ebene_1" xmlns="http://www.w3.org/2000/svg" xmlns:xlink="http://www.w3.org/1999/xlink" x="0px" y="0px"
	 viewBox="0 0 100 76.51418" style="enable-background:new 0 0 100 76.51418;" xml:space="preserve">
<style type="text/css">
	.st0{opacity:0.08;}
	.st1{fill:#3B6072;}
	.st2{fill:#A4AFB5;}
	.st3{fill:#D7DDE0;}
	.st4{fill:url(#SVGID_1_);}
	.st5{fill:#23333A;}
	.st6{fill:#FAFAFA;}
	.st7{fill:#FFFFFF;}
	.st8{opacity:0.8;fill:#4E616B;enable-background:new    ;}
	.st9{fill:#263238;}
	.st10{opacity:0.08;fill:#3B6072;enable-background:new    ;}
	.st11{fill:#D8F7B7;}
	.st12{fill:#90E095;}
	.st13{fill:url(#SVGID_00000094587482287567147360000016545789570937978807_);}
	.st14{fill:#4E616B;}
</style>
<g id="freepik--background-simple--inject-3" class="st0">
	<path class="st1" d="M13.87319,55.04415l0.92974,1.5388c7.99098,10.30456,16.42101,16.36935,28.7938,18.56241
		c13.33266,2.36738,28.4925,0.93834,40.07759-6.69538c3.25191-2.15217,6.31014-4.79932,8.41496-8.29229
		c2.10481-3.49296,3.17014-7.90705,2.26407-11.99831c-1.45055-6.55119-7.44433-10.68334-13.34341-12.25657
		c-5.89908-1.57323-12.0887-1.30637-18.005-2.79781c-3.81794-0.97923-7.90705-3.14861-9.1015-7.28937
		c-0.95126-3.28851,0.2023-6.85464-0.08608-10.29165c-0.40676-4.89402-3.73831-8.99389-7.59283-11.40647
		C39.71853,0.02839,31.46498-0.09213,24.6663,3.28677S12.57113,13.32661,9.90245,21.05503
		c-0.42351,1.24055-0.77207,2.50543-1.0438,3.78781C6.64783,35.18178,8.43981,45.97443,13.87319,55.04415z"/>
</g>
<g>
	<path class="st2" d="M24.37503,42.38848c0,0,1.0266-0.30655,1.43692,2.0053c0.41032,2.31185,0.44385,3.58911,0.44385,3.58911
		s0.1421,0.50612,0.5141,0.31932c0.372-0.1868,0.98988-0.85417,1.45289-0.55401c0.46301,0.30016,0.45502,0.91803,0.10697,1.72271
		c-0.34805,0.80467-1.05534,2.59604-1.11761,2.75569c-0.06227,0.15966-0.04311,0.42789,0.2315,0.34167
		s2.01967-1.13836,2.46991-0.281s-0.89568,2.9377-1.03937,3.16761c-0.14369,0.2299-0.12773,0.35284-0.02714,0.45023
		s0.6546-0.30973,1.16231-0.59074c0.50771-0.281,1.14635-0.51729,1.36508,0c0.21873,0.5173-0.19319,2.26076-2.66788,4.54067
		l-1.21659,0.99148l-1.46885-0.53166c-3.08299-1.34751-4.04094-2.86266-4.00262-3.42307s0.71846-0.54762,1.29004-0.44864
		c0.57158,0.09899,1.22937,0.30655,1.29163,0.18041c0.06227-0.12613,0.03832-0.24747-0.17243-0.4183
		c-0.21075-0.17084-2.16017-1.69717-2.01488-2.65511s2.13782-0.53007,2.42521-0.53805
		c0.28738-0.00798,0.22192-0.27142,0.10857-0.39915s-1.36348-1.58859-1.95741-2.23521s-0.78712-1.24533-0.45982-1.66523
		c0.3273-0.4199,1.14155-0.00478,1.55347,0.05109c0.41192,0.05588,0.38318-0.4662,0.38318-0.4662s-0.38158-1.21659-0.75039-3.53802
		c-0.36881-2.32142,0.68174-2.36773,0.68174-2.36773"/>
	<path class="st3" d="M24.73267,44.51514c0.00639,0.03033,0.01437,0.07184,0.02555,0.12293
		c0.02075,0.11655,0.05109,0.27621,0.08941,0.47898l0.31932,1.75623c0.26184,1.48003,0.60191,3.52684,0.97391,5.79079
		s0.70888,4.31236,0.95795,5.79558c0.12453,0.73921,0.22671,1.33793,0.29696,1.75623
		c0.03353,0.20596,0.06067,0.36562,0.07823,0.47897l0.01916,0.12453c0.0021,0.01429,0.0021,0.02882,0,0.04311
		c-0.00523-0.01338-0.00898-0.02731-0.01118-0.04151c-0.00639-0.03194-0.01437-0.07185-0.02395-0.12453
		c-0.02235-0.11655-0.05109-0.27621-0.09101-0.47897l-0.31931-1.75623c-0.26184-1.48163-0.59872-3.53163-0.97391-5.79239
		s-0.71367-4.30757-0.95795-5.79399c-0.12453-0.73922-0.22512-1.33793-0.29696-1.75624
		c-0.03353-0.20596-0.05907-0.36721-0.07823-0.47897l-0.01916-0.12453v-0.04311
		C24.72684,44.48592,24.73059,44.50039,24.73267,44.51514z"/>
	<path class="st3" d="M23.73161,49.40068l0.24587,0.1852c0.20436,0.15965,0.48057,0.38956,0.78073,0.64661l0.76476,0.66578
		c0.11188,0.08673,0.21851,0.18002,0.31932,0.2794c-0.0349-0.01602-0.06763-0.03641-0.09739-0.06068
		c-0.05907-0.04151-0.1421-0.10537-0.24428-0.1868c-0.20277-0.16125-0.47738-0.39276-0.77753-0.65141l-0.76795-0.65939
		c-0.11325-0.08505-0.21998-0.17844-0.31932-0.2794C23.67004,49.35635,23.7022,49.37672,23.73161,49.40068z"/>
	<path class="st3" d="M26.96948,49.8014c0.562-0.72005,1.0282-1.29642,1.04097-1.28524s-0.43427,0.6099-0.99467,1.32197
		s-1.0266,1.28684-1.03937,1.27726C25.96203,51.10421,26.40748,50.52145,26.96948,49.8014z"/>
	<path class="st3" d="M26.78906,54.88012c0.21235-0.15486,0.50611-0.372,0.82543-0.62107
		c0.31931-0.24906,0.59712-0.48376,0.79829-0.65459c0.1057-0.09707,0.21713-0.18771,0.33368-0.27142
		c-0.02269,0.03164-0.04893,0.06058-0.07823,0.08622c-0.05109,0.05747-0.12932,0.12772-0.22671,0.21713
		c-0.20277,0.18041-0.48057,0.4199-0.79829,0.67056s-0.61788,0.46141-0.8382,0.6083
		c-0.10538,0.07344-0.20117,0.13251-0.26503,0.16924c-0.03166,0.02271-0.06597,0.04148-0.10218,0.05588
		C26.54901,55.04594,26.66635,54.959,26.78906,54.88012z"/>
	<path class="st3" d="M24.3447,54.14729c0.22512,0.09579,0.53645,0.23151,0.87652,0.38318s0.64821,0.29377,0.86854,0.39754
		c0.12228,0.05116,0.24027,0.11203,0.35284,0.18201c-0.1268-0.03818-0.2506-0.08568-0.37041-0.1421
		c-0.22512-0.09579-0.53645-0.23151-0.87652-0.38318s-0.64821-0.29218-0.86854-0.39754
		c-0.12228-0.05117-0.24027-0.11203-0.35284-0.18201C24.1012,54.04306,24.22503,54.09056,24.3447,54.14729z"/>
	<path class="st3" d="M24.05891,57.64699l0.34486,0.1405c0.28898,0.11815,0.68972,0.28738,1.12718,0.47897
		s0.83342,0.36881,1.11761,0.49813l0.33688,0.15966c0.04273,0.01623,0.08302,0.03825,0.11974,0.06546
		c-0.0445-0.01051-0.08783-0.02549-0.12932-0.04471l-0.34326-0.1389c-0.29058-0.11655-0.69132-0.28738-1.12718-0.47897
		c-0.43587-0.19158-0.83182-0.36721-1.11761-0.49813l-0.33688-0.15965c-0.04214-0.01749-0.08228-0.03943-0.11974-0.06547
		C23.97526,57.61338,24.01811,57.62783,24.05891,57.64699z"/>
	<path class="st3" d="M27.1419,58.83804l0.31932-0.24428c0.26344-0.20755,0.62745-0.49493,1.02181-0.82224
		s0.74401-0.63225,0.99627-0.85417c0.11815-0.10218,0.21873-0.19319,0.29856-0.26184c0.03426-0.03513,0.0729-0.06572,0.11495-0.091
		c-0.02948,0.03876-0.06263,0.07458-0.09899,0.10697c-0.06546,0.06705-0.16285,0.16285-0.28579,0.2778
		c-0.24587,0.2299-0.59073,0.53805-0.98669,0.86854c-0.39595,0.3305-0.76316,0.60989-1.03458,0.80947
		c-0.13092,0.09898-0.24268,0.17722-0.31932,0.2299c-0.03916,0.02964-0.08083,0.05582-0.12453,0.07823
		C27.03972,58.93064,27.07964,58.89712,27.1419,58.83804z"/>
</g>
<linearGradient id="SVGID_1_" gradientUnits="userSpaceOnUse" x1="45.98435" y1="45.95109" x2="75.58123" y2="-5.3122" gradientTransform="matrix(1 0 0 -1 0 56)">
	<stop  offset="0.01804" style="stop-color:#677A84"/>
	<stop  offset="1" style="stop-color:#4E616B"/>
</linearGradient>
<path class="st4" d="M85.99079,16.30263H35.5748c-0.86914,0-1.57371,0.70457-1.57371,1.57371l0,0v35.60843
	c0,0.86913,0.70457,1.57372,1.57371,1.57372l0,0h19.35175c0,0,1.23106,3.80655-2.58422,5.77525h18.09204
	c0,0-4.30746-1.47652-3.19975-5.77525h18.75616c0.86913,0,1.57371-0.70457,1.57371-1.57372l0,0V17.87634
	C87.5645,17.0072,86.85992,16.30263,85.99079,16.30263L85.99079,16.30263z"/>
<path class="st5" d="M61.45564,51.31421c0.68655,0.97936-0.38751,2.05343-1.37061,1.37061
	c-0.03259-0.02263-0.06086-0.0509-0.08348-0.08349c-0.68406-0.98061,0.38751-2.05217,1.37061-1.37061
	C61.40438,51.25378,61.43259,51.28199,61.45564,51.31421z"/>
<path class="st6" d="M35.54614,18.43704h50.36739c0.22503,0,0.40745,0.18242,0.40745,0.40744v29.54411
	c0,0.22503-0.18242,0.40744-0.40745,0.40744H35.54614c-0.22503,0-0.40744-0.18242-0.40744-0.40744V18.84448
	C35.1387,18.61946,35.32112,18.43704,35.54614,18.43704z"/>
<path class="st7" d="M85.91354,48.85833H35.54739c-0.25964,0-0.4703-0.21011-0.47099-0.46974V18.84448
	c0.00069-0.25963,0.21136-0.46975,0.47099-0.46975h50.36615c0.25943,0,0.46975,0.21031,0.46975,0.46975l0,0v29.54411
	C86.38329,48.64802,86.17297,48.85833,85.91354,48.85833L85.91354,48.85833z M35.54739,18.49934
	c-0.19082,0-0.3457,0.15433-0.34639,0.34515V48.3886c0.00069,0.19081,0.15557,0.34514,0.34639,0.34514h50.36615
	c0.19062,0,0.34515-0.15452,0.34515-0.34514l0,0V18.84448c0-0.19062-0.15453-0.34514-0.34515-0.34514l0,0H35.54739z"/>
<path class="st5" d="M39.3365,19.60953c0.00137,0.22571-0.18048,0.4098-0.40619,0.41117s-0.4098-0.18048-0.41117-0.40619
	c-0.00138-0.22571,0.18048-0.4098,0.40619-0.41117c0.00083,0,0.00166-0.00001,0.00249-0.00001
	C39.15255,19.20333,39.33513,19.38479,39.3365,19.60953z"/>
<path class="st5" d="M36.85944,19.60953c0,0.22572-0.18298,0.40869-0.40869,0.40869s-0.40869-0.18298-0.40869-0.40869
	s0.18298-0.40869,0.40869-0.40869l0,0C36.67646,19.20084,36.85944,19.38382,36.85944,19.60953z"/>
<path class="st5" d="M38.04813,19.60953c0,0.22572-0.18298,0.40869-0.40869,0.40869s-0.40869-0.18298-0.40869-0.40869
	s0.18298-0.40869,0.40869-0.40869l0,0C37.86515,19.20084,38.04813,19.38382,38.04813,19.60953z"/>
<path class="st8" d="M92.08913,50.68431c0.46636,0.2235,0.82191,0.62688,0.98508,1.11761
	c0.15836,0.48741,0.20313,1.00459,0.13092,1.51196c-0.11016,0.9819-0.66897,1.97177-1.27726,2.75729
	c-0.82703-0.72165-1.01702-1.97975-1.0729-2.62477c-0.08941-1.01862,0.36881-2.91376,1.22617-2.76208"/>
<path class="st8" d="M92.897,57.69009c-0.11422-0.57078,0.08553-1.15906,0.52368-1.54229
	c0.44379-0.37344,1.01927-0.55241,1.59658-0.49654c0.26344,0.02076,0.54603,0.09739,0.6977,0.31931
	c0.13058,0.21547,0.13485,0.4846,0.01118,0.70409c-0.12596,0.21375-0.30603,0.39053-0.52208,0.5125
	c-0.71526,0.45023-1.49121,0.75358-2.30067,0.50931"/>
<path class="st9" d="M91.83686,60.69965c0.004-0.06773,0.01361-0.13502,0.02874-0.20116
	c0.02714-0.1421,0.06067-0.31932,0.10059-0.54443c0.0947-0.60738,0.28661-1.19553,0.56838-1.74187
	c0.29165-0.54573,0.72308-1.00416,1.25012-1.32835c0.16034-0.09477,0.33129-0.17033,0.50931-0.22512
	c0.04825-0.01492,0.09728-0.02718,0.14689-0.03672c0.01699-0.00559,0.03481-0.00829,0.05269-0.00798
	c-0.23788,0.08334-0.4668,0.19032-0.68334,0.31931c-0.50842,0.33138-0.92516,0.78546-1.21181,1.32037
	c-0.27656,0.5402-0.47082,1.11869-0.57636,1.71632c-0.04949,0.22831-0.09101,0.41351-0.12294,0.54124
	C91.88473,60.57598,91.86388,60.6391,91.83686,60.69965z"/>
<path class="st9" d="M91.8672,52.15796c0.00744,0.02922,0.0112,0.05926,0.01118,0.08941c0,0.06387,0.00798,0.14848,0.01437,0.25226
	c0.01277,0.22033,0.02554,0.53805,0.03831,0.9308c0.02395,0.78712,0.04471,1.87438,0.03991,3.07501
	c-0.00479,1.20063-0.03512,2.2879-0.06705,3.07342c-0.01597,0.39436-0.03194,0.71207-0.0463,0.9308
	c0,0.10378-0.01277,0.18839-0.01596,0.25385c-0.00106,0.02955-0.00481,0.05894-0.01118,0.08781
	c-0.00351-0.0297-0.00351-0.05971,0-0.08941c0-0.06546,0-0.14848,0-0.25226c0-0.2299,0.01278-0.54603,0.02235-0.9324
	c0.01916-0.78551,0.04151-1.87279,0.0463-3.07182c0.00479-1.19903,0-2.2863-0.01916-3.07341
	c0-0.38638-0.01118-0.7025-0.01437-0.93081c0-0.10537,0-0.18839,0-0.25385C91.86377,52.21756,91.8643,52.18767,91.8672,52.15796z"/>
<path class="st8" d="M91.46645,58.28881c-0.20288-1.20753-0.97569-2.24309-2.07555-2.78124
	c-0.27621-0.13251-0.63863-0.21873-0.86375-0.01276c-0.22511,0.20596-0.17722,0.57477-0.06546,0.86056
	c0.49609,1.21201,1.67283,2.00637,2.98241,2.01328"/>
<path class="st9" d="M89.52821,56.43838c0.06104,0.01942,0.11988,0.0451,0.17562,0.07664
	c0.06797,0.03128,0.13407,0.06647,0.19798,0.10538c0.07345,0.0463,0.15966,0.091,0.25226,0.15966
	c0.09966,0.06712,0.19559,0.1396,0.28738,0.21713c0.10783,0.08732,0.21071,0.1806,0.30814,0.2794
	c0.22238,0.22736,0.4184,0.47909,0.58434,0.7504c0.16134,0.27348,0.28996,0.565,0.38318,0.86854
	c0.04062,0.13255,0.07314,0.26744,0.09739,0.40394c0.02393,0.1186,0.04045,0.23857,0.04949,0.35923
	c0.01067,0.09862,0.01548,0.19777,0.01437,0.29696c0.00438,0.07497,0.00438,0.15014,0,0.22512
	c-0.00021,0.06397-0.00771,0.12772-0.02235,0.18999c-0.01596,0,0.01278-0.27302-0.03512-0.70728
	c-0.01263-0.11806-0.03181-0.23532-0.05747-0.35125c-0.02696-0.13372-0.06107-0.26589-0.10219-0.39596
	c-0.09619-0.29734-0.22469-0.58324-0.38318-0.85257c-0.16328-0.2664-0.35433-0.51472-0.56998-0.74081
	c-0.0937-0.0986-0.19283-0.19188-0.29696-0.2794c-0.08969-0.07887-0.18348-0.15295-0.281-0.22192
	C89.76929,56.55973,89.52023,56.45275,89.52821,56.43838z"/>
<path class="st10" d="M86.38329,22.37067H35.0764v-3.64508c0-0.23001,0.18647-0.41648,0.41648-0.41648H85.9793
	c0.22311,0,0.40398,0.18087,0.40398,0.40398v3.65758H86.38329z"/>
<g>
	<path class="st11" d="M65.51163,27.58922h-8.32278v3.45139h10.1003v-1.67455
		C67.28915,28.38621,66.49174,27.58922,65.51163,27.58922z"/>
	<path class="st12" d="M60.80038,31.5717h-9.73433v-3.20251c0-1.17348,0.95493-2.128,2.12883-2.128h3.11241
		c0.30936,0,0.60736,0.0652,0.87811,0.18769c0.37815,0.17039,0.70301,0.45123,0.93084,0.81817L60.80038,31.5717z"/>
	
		<linearGradient id="SVGID_00000038386448978835762820000002388982178103859369_" gradientUnits="userSpaceOnUse" x1="51.06605" y1="18.55361" x2="69.20842" y2="18.55361" gradientTransform="matrix(1 0 0 -1 0 56)">
		<stop  offset="0.03866" style="stop-color:#D8F7B7"/>
		<stop  offset="1" style="stop-color:#9AEBA3"/>
	</linearGradient>
	<path style="fill:url(#SVGID_00000038386448978835762820000002388982178103859369_);" d="M69.20842,32.28869v10.31582
		c0,0.98109-0.79865,1.77905-1.78016,1.77905H52.84621c-0.9815,0-1.78016-0.79796-1.78016-1.77905V30.50922h16.36221
		C68.40977,30.50922,69.20842,31.30747,69.20842,32.28869z"/>
	<path class="st7" d="M64.90952,37.44618c0,2.63169-2.14087,4.7727-4.77229,4.7727s-4.77229-2.14101-4.77229-4.7727
		c0-2.63128,2.14087-4.77228,4.77229-4.77228C62.76865,32.6739,64.90952,34.81491,64.90952,37.44618z"/>
	<path class="st14" d="M61.67545,37.50473c-0.09952,0.0843-0.22147,0.1254-0.3423,0.1254c-0.15129,0-0.30161-0.06408-0.4068-0.18893
		l-0.25759-0.30534v1.99913c0,0.29344-0.23808,0.53152-0.53151,0.53152c-0.29344,0-0.53152-0.23808-0.53152-0.53152v-1.99913
		l-0.25759,0.30534c-0.18963,0.22437-0.52473,0.25302-0.7491,0.06353c-0.22423-0.18921-0.25302-0.52445-0.06381-0.74883
		l1.05209-1.24726c0.13717-0.16222,0.33732-0.25551,0.54993-0.25551c0.2126,0,0.41275,0.09329,0.54992,0.25551l1.05209,1.24726
		C61.92847,36.98028,61.89968,37.31552,61.67545,37.50473z"/>
</g>
</svg>
