<svg version="1.1" id="Ebene_1" xmlns="http://www.w3.org/2000/svg" x="0" y="0" viewBox="0 0 441.111 100" xml:space="preserve">
  <style>
    .st0{fill:#23333a}.st1{fill:#6b7477}.st17,.st3{opacity:.3;fill:#fff}.st17{opacity:.12}.st21,.st24{opacity:.15;fill:#fff}.st24{opacity:.1}
  </style>
  <path class="st0" d="M103.714 39.73v11.264h-6.061v-30.35H108.7c3.583 0 6.283.86 8.104 2.58 1.82 1.719 2.73 4.055 2.73 7.006 0 2.896-.94 5.202-2.816 6.921-1.877 1.72-4.55 2.58-8.018 2.58h-4.987zm9.673-9.5c0-1.518-.416-2.68-1.247-3.482-.831-.802-2.192-1.203-4.084-1.203h-4.342v9.328h4.342c3.554 0 5.33-1.548 5.33-4.642zM132.646 28.146c1.462-.874 3.095-1.312 4.9-1.312v6.491h-1.762c-4.442 0-6.663 2.064-6.663 6.191v11.478h-6.062V27.178h6.062v4.557c.888-1.519 2.063-2.715 3.525-3.59zM157.73 28.339c1.848.975 3.303 2.386 4.363 4.234 1.06 1.849 1.59 4.02 1.59 6.513 0 2.494-.53 4.658-1.59 6.491-1.06 1.835-2.515 3.246-4.363 4.235-1.849.989-3.934 1.483-6.255 1.483-2.321 0-4.406-.494-6.255-1.483a10.871 10.871 0 0 1-4.363-4.235c-1.06-1.833-1.591-3.997-1.591-6.49 0-2.494.53-4.665 1.59-6.514 1.06-1.848 2.515-3.26 4.364-4.234 1.849-.974 3.934-1.462 6.255-1.462 2.321 0 4.406.488 6.255 1.462zm-10.554 5.567c-1.175 1.19-1.763 2.916-1.763 5.18 0 2.265.588 3.992 1.763 5.18 1.175 1.19 2.608 1.784 4.299 1.784 1.69 0 3.123-.594 4.299-1.784 1.175-1.189 1.763-2.915 1.763-5.18 0-2.264-.588-3.99-1.763-5.18-1.176-1.189-2.608-1.784-4.299-1.784-1.691 0-3.124.595-4.299 1.784zM181.159 28.296c1.419.946 2.443 2.221 3.074 3.826v-12.94h6.018v31.812h-6.018v-4.987a8.128 8.128 0 0 1-3.074 3.848c-1.419.96-3.132 1.44-5.137 1.44-2.006 0-3.812-.487-5.417-1.462-1.605-.973-2.859-2.385-3.761-4.234-.903-1.849-1.355-4.02-1.355-6.513 0-2.493.452-4.664 1.355-6.513.902-1.848 2.156-3.26 3.761-4.234 1.605-.974 3.41-1.462 5.417-1.462 2.005 0 3.718.473 5.137 1.419zm-7.803 5.718c-1.146 1.232-1.72 2.923-1.72 5.072 0 2.15.574 3.833 1.72 5.051 1.146 1.219 2.666 1.828 4.557 1.828 1.834 0 3.346-.624 4.536-1.87 1.189-1.247 1.784-2.917 1.784-5.009 0-2.12-.595-3.804-1.784-5.051-1.19-1.247-2.702-1.87-4.536-1.87-1.891 0-3.41.616-4.557 1.849zM218.108 27.178v23.816h-6.061V46.18c-.631 1.606-1.67 2.859-3.117 3.762-1.448.902-3.117 1.354-5.008 1.354-2.751 0-4.944-.903-6.578-2.708-1.633-1.806-2.45-4.327-2.45-7.566V27.178h6.019v13.155c0 1.891.486 3.36 1.461 4.406.974 1.047 2.293 1.57 3.955 1.57 1.748 0 3.138-.56 4.17-1.677 1.032-1.118 1.548-2.723 1.548-4.815V27.178h6.061zM240.698 29.37c2.049 1.663 3.332 3.927 3.848 6.793h-6.406c-.258-1.26-.845-2.257-1.762-2.988-.918-.73-2.078-1.096-3.482-1.096-1.606 0-2.945.595-4.02 1.784-1.075 1.19-1.612 2.93-1.612 5.223 0 2.293.537 4.034 1.612 5.223 1.075 1.19 2.414 1.784 4.02 1.784 1.404 0 2.564-.365 3.482-1.096.917-.73 1.504-1.726 1.762-2.988h6.406c-.516 2.867-1.799 5.131-3.848 6.793s-4.607 2.493-7.673 2.493c-2.322 0-4.385-.494-6.19-1.483-1.806-.989-3.21-2.4-4.214-4.235-1.003-1.833-1.504-3.997-1.504-6.49 0-2.494.5-4.665 1.504-6.514 1.003-1.848 2.408-3.26 4.213-4.234 1.806-.974 3.87-1.462 6.19-1.462 3.067 0 5.625.832 7.674 2.494zM261.139 45.792v5.202h-3.181c-2.666 0-4.708-.645-6.126-1.935-1.419-1.289-2.128-3.438-2.128-6.448V32.294h-3.31v-5.116h3.31v-5.89h6.061v5.89h5.331v5.116h-5.33v10.403c0 1.147.229 1.95.687 2.408.458.458 1.232.687 2.322.687h2.364zM280.053 20.644v30.35h-6.061v-30.35h6.061zM305.03 29.542c1.633 1.806 2.45 4.342 2.45 7.61v13.842h-6.019V37.84c0-1.892-.487-3.36-1.461-4.407-.975-1.046-2.307-1.57-3.998-1.57-1.72 0-3.095.56-4.127 1.678-1.032 1.117-1.548 2.723-1.548 4.814v12.64h-6.061V27.177h6.061v4.772c.63-1.605 1.67-2.859 3.117-3.761 1.447-.903 3.117-1.355 5.008-1.355 2.752 0 4.944.903 6.578 2.708zM327.556 29.07c1.747 1.461 2.837 3.41 3.267 5.846h-5.675c-.23-1.146-.745-2.063-1.548-2.751-.802-.688-1.848-1.032-3.138-1.032-1.031 0-1.834.244-2.407.73-.574.489-.86 1.148-.86 1.978 0 .66.23 1.19.688 1.591.458.402 1.032.717 1.72.946.687.23 1.676.502 2.966.817 1.805.401 3.274.824 4.406 1.268a7.301 7.301 0 0 1 2.924 2.106c.816.96 1.225 2.257 1.225 3.89 0 2.036-.796 3.684-2.386 4.945-1.591 1.261-3.734 1.891-6.427 1.891-3.095 0-5.575-.694-7.437-2.085-1.863-1.39-2.995-3.375-3.397-5.954h5.804c.143 1.175.66 2.1 1.548 2.773.888.674 2.048 1.01 3.482 1.01 1.032 0 1.82-.25 2.364-.752.544-.501.817-1.153.817-1.956 0-.688-.236-1.247-.71-1.677-.472-.43-1.06-.759-1.762-.989-.702-.229-1.698-.5-2.988-.816-1.777-.401-3.217-.81-4.32-1.225a6.89 6.89 0 0 1-2.837-2c-.789-.916-1.183-2.177-1.183-3.783 0-2.063.788-3.74 2.365-5.03 1.576-1.29 3.754-1.934 6.534-1.934 2.895 0 5.216.731 6.965 2.193zM347.072 45.792v5.202h-3.182c-2.665 0-4.707-.645-6.125-1.935-1.42-1.289-2.128-3.438-2.128-6.448V32.294h-3.31v-5.116h3.31v-5.89h6.061v5.89h5.33v5.116h-5.33v10.403c0 1.147.23 1.95.688 2.408.458.458 1.232.687 2.321.687h2.365zM364.61 28.296a7.729 7.729 0 0 1 3.053 3.826v-4.944h6.018v23.816h-6.018v-4.987a7.839 7.839 0 0 1-3.052 3.848c-1.434.96-3.153 1.44-5.159 1.44s-3.812-.487-5.416-1.462c-1.606-.973-2.86-2.385-3.762-4.234-.903-1.849-1.354-4.02-1.354-6.513 0-2.493.451-4.664 1.354-6.513.903-1.848 2.156-3.26 3.762-4.234 1.604-.974 3.41-1.462 5.416-1.462 2.006 0 3.725.473 5.159 1.419zm-7.823 5.718c-1.147 1.232-1.72 2.923-1.72 5.072 0 2.15.573 3.833 1.72 5.051 1.146 1.219 2.665 1.828 4.557 1.828 1.833 0 3.345-.624 4.535-1.87 1.189-1.247 1.784-2.917 1.784-5.009 0-2.12-.595-3.804-1.784-5.051-1.19-1.247-2.702-1.87-4.535-1.87-1.892 0-3.411.616-4.557 1.849zM384.816 19.182v31.812h-6.062V19.182h6.062zM395.95 19.182v31.812h-6.062V19.182h6.062zM422.345 40.247h-17.454c.086 2.121.66 3.683 1.72 4.686 1.06 1.003 2.378 1.504 3.955 1.504 1.404 0 2.572-.344 3.503-1.031.931-.688 1.526-1.62 1.784-2.795h6.406a10.248 10.248 0 0 1-2.02 4.471c-1.032 1.319-2.358 2.35-3.977 3.095-1.62.746-3.418 1.118-5.395 1.118-2.322 0-4.385-.494-6.19-1.483-1.806-.989-3.21-2.4-4.214-4.235-1.003-1.833-1.504-3.997-1.504-6.49 0-2.494.5-4.665 1.504-6.514 1.003-1.848 2.408-3.26 4.213-4.234 1.806-.974 3.87-1.462 6.19-1.462 2.35 0 4.407.488 6.17 1.462 1.762.975 3.123 2.315 4.084 4.02.96 1.705 1.44 3.647 1.44 5.824 0 .602-.072 1.29-.215 2.064zm-7.416-7.093c-1.103-1.003-2.457-1.505-4.062-1.505-1.634 0-3.01.502-4.127 1.505-1.118 1.003-1.735 2.479-1.849 4.428h11.564c.086-1.95-.423-3.425-1.526-4.428zM435.155 28.146c1.461-.874 3.095-1.312 4.9-1.312v6.491h-1.762c-4.443 0-6.663 2.064-6.663 6.191v11.478h-6.062V27.178h6.062v4.557c.888-1.519 2.063-2.715 3.525-3.59z"/>
  <path class="st1" d="M102.79 63.837c-.603.552-.905 1.505-.905 2.86v.478h4.132v2.542h-4.132v14.905h-2.892V69.717h-2.51v-2.542h2.51v-.7c0-4.173 2.34-6.165 7.024-5.974v2.542c-1.547-.02-2.622.244-3.226.794zM121.255 68.033c1.324.72 2.362 1.759 3.114 3.114.752 1.356 1.128 2.945 1.128 4.767 0 1.822-.376 3.406-1.128 4.751-.752 1.346-1.79 2.378-3.114 3.099-1.324.72-2.824 1.08-4.497 1.08-1.674 0-3.173-.36-4.497-1.08-1.324-.72-2.367-1.753-3.13-3.099-.763-1.345-1.144-2.929-1.144-4.75 0-1.823.381-3.412 1.144-4.768.763-1.355 1.806-2.394 3.13-3.114 1.324-.72 2.823-1.08 4.497-1.08 1.673 0 3.173.36 4.497 1.08zm-7.373 2.16c-.88.467-1.589 1.182-2.13 2.146-.54.964-.81 2.156-.81 3.575 0 1.398.27 2.58.81 3.543.541.965 1.25 1.68 2.13 2.146a6.05 6.05 0 0 0 2.876.699 6.052 6.052 0 0 0 2.876-.699c.879-.466 1.59-1.181 2.13-2.146.54-.963.81-2.145.81-3.543 0-1.42-.27-2.61-.81-3.575-.54-.964-1.251-1.679-2.13-2.145a6.052 6.052 0 0 0-2.876-.7 6.05 6.05 0 0 0-2.876.7zM134.364 67.89c1.101-.668 2.415-1.002 3.94-1.002v3.147h-.89c-1.631 0-2.966.418-4.004 1.255-1.038.837-1.557 2.22-1.557 4.147v9.185h-2.892V67.175h2.892v3.527c.572-1.207 1.409-2.145 2.51-2.812zM165.063 64.012c1.78 1.346 3.008 3.184 3.686 5.514h-3.05c-.572-1.482-1.494-2.663-2.765-3.543-1.272-.879-2.829-1.32-4.672-1.32-1.462 0-2.77.356-3.925 1.066-1.155.71-2.065 1.727-2.733 3.05-.667 1.325-1 2.877-1 4.656 0 1.76.333 3.295 1 4.609.668 1.313 1.578 2.324 2.733 3.034s2.463 1.065 3.925 1.065c1.843 0 3.4-.44 4.672-1.319 1.271-.879 2.193-2.06 2.765-3.544h3.05c-.678 2.331-1.906 4.169-3.686 5.514-1.78 1.346-4.036 2.018-6.77 2.018-2.097 0-3.95-.482-5.56-1.446-1.61-.963-2.866-2.309-3.767-4.035-.9-1.727-1.35-3.692-1.35-5.896 0-2.225.45-4.205 1.35-5.943.9-1.737 2.156-3.087 3.766-4.052 1.61-.963 3.464-1.446 5.562-1.446 2.733 0 4.99.673 6.769 2.018zM184.718 68.033c1.324.72 2.362 1.759 3.115 3.114.751 1.356 1.128 2.945 1.128 4.767 0 1.822-.377 3.406-1.128 4.751-.753 1.346-1.791 2.378-3.115 3.099-1.324.72-2.823 1.08-4.497 1.08s-3.173-.36-4.497-1.08c-1.324-.72-2.367-1.753-3.13-3.099-.763-1.345-1.144-2.929-1.144-4.75 0-1.823.381-3.412 1.144-4.768.763-1.355 1.806-2.394 3.13-3.114 1.324-.72 2.823-1.08 4.497-1.08s3.173.36 4.497 1.08zm-7.373 2.16c-.88.467-1.589 1.182-2.129 2.146s-.81 2.156-.81 3.575c0 1.398.27 2.58.81 3.543.54.965 1.25 1.68 2.13 2.146a6.05 6.05 0 0 0 2.875.699 6.051 6.051 0 0 0 2.876-.699c.88-.466 1.59-1.181 2.13-2.146.54-.963.81-2.145.81-3.543 0-1.42-.27-2.61-.81-3.575-.54-.964-1.25-1.679-2.13-2.145a6.051 6.051 0 0 0-2.876-.7 6.05 6.05 0 0 0-2.876.7zM206.535 68.843c1.25 1.303 1.875 3.183 1.875 5.641v10.138h-2.892v-9.884c0-1.737-.445-3.072-1.335-4.004-.89-.932-2.097-1.398-3.623-1.398-1.589 0-2.86.514-3.813 1.541-.954 1.028-1.43 2.527-1.43 4.497v9.248h-2.892V67.175h2.892v4.13c.444-1.418 1.233-2.51 2.367-3.272 1.133-.763 2.442-1.145 3.925-1.145 2.034 0 3.675.652 4.926 1.955zM220.868 82.08v2.542h-2.161c-1.78 0-3.11-.424-3.989-1.271-.88-.847-1.319-2.267-1.319-4.26v-9.406h-2.606v-2.51h2.606V62.82h2.924v4.354h4.513v2.51h-4.513v9.47c0 1.124.207 1.891.62 2.304s1.128.62 2.145.62h1.78zM235.533 68.223c1.176.848 1.997 1.982 2.463 3.4v-4.448h2.892v17.447h-2.892v-4.45c-.466 1.42-1.287 2.554-2.463 3.4-1.176.849-2.611 1.272-4.306 1.272-1.547 0-2.924-.36-4.131-1.08s-2.156-1.753-2.845-3.099c-.688-1.345-1.033-2.929-1.033-4.75 0-1.823.345-3.412 1.033-4.768.689-1.355 1.637-2.394 2.845-3.114 1.207-.72 2.584-1.08 4.131-1.08 1.695 0 3.13.423 4.306 1.27zm-7.754 3.004c-1.07 1.133-1.605 2.696-1.605 4.687 0 1.992.535 3.555 1.605 4.688 1.07 1.133 2.495 1.7 4.274 1.7 1.145 0 2.167-.265 3.067-.795.9-.529 1.605-1.276 2.113-2.24.509-.964.763-2.082.763-3.353 0-1.27-.254-2.394-.763-3.369-.508-.974-1.213-1.72-2.113-2.24-.9-.519-1.922-.779-3.067-.779-1.78 0-3.204.568-4.274 1.7zM257.589 68.033c1.323.72 2.362 1.759 3.114 3.114.752 1.356 1.128 2.945 1.128 4.767 0 1.822-.376 3.406-1.128 4.751-.752 1.346-1.79 2.378-3.114 3.099-1.325.72-2.824 1.08-4.497 1.08-1.674 0-3.173-.36-4.497-1.08-1.324-.72-2.368-1.753-3.13-3.099-.763-1.345-1.145-2.929-1.145-4.75 0-1.823.382-3.412 1.145-4.768.762-1.355 1.806-2.394 3.13-3.114 1.324-.72 2.823-1.08 4.497-1.08 1.673 0 3.172.36 4.497 1.08zm-7.373 2.16c-.88.467-1.59 1.182-2.13 2.146-.54.964-.81 2.156-.81 3.575 0 1.398.27 2.58.81 3.543.54.965 1.25 1.68 2.13 2.146a6.05 6.05 0 0 0 2.876.699 6.051 6.051 0 0 0 2.876-.699c.879-.466 1.589-1.181 2.129-2.146.54-.963.81-2.145.81-3.543 0-1.42-.27-2.61-.81-3.575-.54-.964-1.25-1.679-2.13-2.145a6.051 6.051 0 0 0-2.875-.7 6.05 6.05 0 0 0-2.876.7z"/>
  <linearGradient id="SVGID_1_" gradientUnits="userSpaceOnUse" x1="39.413" y1="72.639" x2="58.636" y2="72.639">
    <stop offset=".167" stop-color="#1b75b6"/>
    <stop offset=".333" stop-color="#1b79b6"/>
    <stop offset=".499" stop-color="#1b85b6"/>
    <stop offset=".665" stop-color="#1a99b6"/>
    <stop offset=".831" stop-color="#19b5b6"/>
    <stop offset=".995" stop-color="#18d9b6"/>
    <stop offset="1" stop-color="#18dab6"/>
  </linearGradient>
  <path d="m56.446 72.636-.005.007.005-.007z" fill="url(#SVGID_1_)"/>
  <path class="st3" d="M58.44 68.466c-.005.03-.015.058-.022.088.007-.03.017-.058.023-.088z"/>
  <path class="st3" d="M58.44 68.466c-.005.03-.015.058-.022.088.007-.03.017-.058.023-.088z"/>
  <linearGradient id="SVGID_00000152246818122618901800000017936909196539707280_" gradientUnits="userSpaceOnUse" x1="297.034" y1="-30.675" x2="221.526" y2="-43.013" gradientTransform="rotate(-18.856 433.47 641.402)">
    <stop offset="0" stop-color="#fd166f"/>
    <stop offset="1" stop-color="#255cfb"/>
  </linearGradient>
  <path d="M66.73 52.623z" fill="url(#SVGID_00000152246818122618901800000017936909196539707280_)"/>
  <linearGradient id="SVGID_00000109748143930145834250000005248876135785984666_" gradientUnits="userSpaceOnUse" x1="296.789" y1="-29.173" x2="221.28" y2="-41.511" gradientTransform="rotate(-18.856 433.47 641.402)">
    <stop offset="0" stop-color="#fd166f"/>
    <stop offset="1" stop-color="#255cfb"/>
  </linearGradient>
  <path d="M62.712 55.294z" fill="url(#SVGID_00000109748143930145834250000005248876135785984666_)"/>
  <linearGradient id="SVGID_00000132047193545284126390000015167580838048025499_" gradientUnits="userSpaceOnUse" x1="296.929" y1="-30.033" x2="221.421" y2="-42.37" gradientTransform="rotate(-18.856 433.47 641.402)">
    <stop offset="0" stop-color="#fd166f"/>
    <stop offset="1" stop-color="#255cfb"/>
  </linearGradient>
  <path d="M64.964 54.151z" fill="url(#SVGID_00000132047193545284126390000015167580838048025499_)"/>
  <linearGradient id="SVGID_00000033369243933842337220000012385607317646159006_" gradientUnits="userSpaceOnUse" x1="297.786" y1="-35.277" x2="222.278" y2="-47.614" gradientTransform="rotate(-18.856 433.47 641.402)">
    <stop offset="0" stop-color="#fd166f"/>
    <stop offset="1" stop-color="#255cfb"/>
  </linearGradient>
  <path d="M50.434 50.626z" fill="url(#SVGID_00000033369243933842337220000012385607317646159006_)"/>
  <linearGradient id="SVGID_00000124864980374844481760000005300607316964122038_" gradientUnits="userSpaceOnUse" x1="296.846" y1="-29.524" x2="221.338" y2="-41.862" gradientTransform="rotate(-18.856 433.47 641.402)">
    <stop offset="0" stop-color="#fd166f"/>
    <stop offset="1" stop-color="#255cfb"/>
  </linearGradient>
  <path d="M63.848 54.81z" fill="url(#SVGID_00000124864980374844481760000005300607316964122038_)"/>
  <linearGradient id="SVGID_00000003090787117059023660000002639090101027483268_" gradientUnits="userSpaceOnUse" x1="296.714" y1="-28.718" x2="221.206" y2="-41.056" gradientTransform="rotate(-18.856 433.47 641.402)">
    <stop offset="0" stop-color="#fd166f"/>
    <stop offset="1" stop-color="#255cfb"/>
  </linearGradient>
  <path d="M75.462 53.439c.006-.012.007-.023.011-.035-.021.047-.038.093-.06.14l.05-.105z" fill="url(#SVGID_00000003090787117059023660000002639090101027483268_)"/>
  <linearGradient id="SVGID_00000106869635510544151080000007792977878999206570_" gradientUnits="userSpaceOnUse" x1="298.466" y1="-39.438" x2="222.958" y2="-51.776" gradientTransform="rotate(-18.856 433.47 641.402)">
    <stop offset="0" stop-color="#fd166f"/>
    <stop offset="1" stop-color="#255cfb"/>
  </linearGradient>
  <path d="M49.242 46.791z" fill="url(#SVGID_00000106869635510544151080000007792977878999206570_)"/>
  <linearGradient id="SVGID_00000083089982058912439520000006109645327194386598_" gradientUnits="userSpaceOnUse" x1="297.942" y1="-36.23" x2="222.434" y2="-48.568" gradientTransform="rotate(-18.856 433.47 641.402)">
    <stop offset="0" stop-color="#fd166f"/>
    <stop offset="1" stop-color="#255cfb"/>
  </linearGradient>
  <path d="M50.02 49.778z" fill="url(#SVGID_00000083089982058912439520000006109645327194386598_)"/>
  <linearGradient id="SVGID_00000028318617841834961560000015917583520275425671_" gradientUnits="userSpaceOnUse" x1="298.286" y1="-38.337" x2="222.778" y2="-50.675" gradientTransform="rotate(-18.856 433.47 641.402)">
    <stop offset="0" stop-color="#fd166f"/>
    <stop offset="1" stop-color="#255cfb"/>
  </linearGradient>
  <path d="m49.413 47.899.036.157-.036-.157z" fill="url(#SVGID_00000028318617841834961560000015917583520275425671_)"/>
  <linearGradient id="SVGID_00000157987058327546108160000013172293032612048319_" gradientUnits="userSpaceOnUse" x1="297.223" y1="-31.833" x2="221.715" y2="-44.171" gradientTransform="rotate(-18.856 433.47 641.402)">
    <stop offset="0" stop-color="#fd166f"/>
    <stop offset="1" stop-color="#255cfb"/>
  </linearGradient>
  <path d="M61.66 55.608c-4.098.97-8.443-.782-10.77-4.229 2.315 3.476 6.603 5.233 10.77 4.23z" fill="url(#SVGID_00000157987058327546108160000013172293032612048319_)"/>
  <linearGradient id="SVGID_00000051346217997398442820000012781793479648706733_" gradientUnits="userSpaceOnUse" x1="298.641" y1="-40.51" x2="223.133" y2="-52.848" gradientTransform="rotate(-18.856 433.47 641.402)">
    <stop offset="0" stop-color="#fd166f"/>
    <stop offset="1" stop-color="#255cfb"/>
  </linearGradient>
  <path d="m49.191 45.85.002-.13-.002.13z" fill="url(#SVGID_00000051346217997398442820000012781793479648706733_)"/>
  <linearGradient id="SVGID_00000142878893985475200970000011929831698400898736_" gradientUnits="userSpaceOnUse" x1="296.758" y1="-28.987" x2="221.25" y2="-41.325" gradientTransform="rotate(-18.856 433.47 641.402)">
    <stop offset="0" stop-color="#fd166f"/>
    <stop offset="1" stop-color="#255cfb"/>
  </linearGradient>
  <path d="M62.619 55.33c-.162.056-.326.097-.489.144.148-.043.296-.076.443-.127l.046-.017z" fill="url(#SVGID_00000142878893985475200970000011929831698400898736_)"/>
  <linearGradient id="SVGID_00000081648181334502443850000003509556401222358685_" gradientUnits="userSpaceOnUse" x1="298.105" y1="-37.227" x2="222.597" y2="-49.565" gradientTransform="rotate(-18.856 433.47 641.402)">
    <stop offset="0" stop-color="#fd166f"/>
    <stop offset="1" stop-color="#255cfb"/>
  </linearGradient>
  <path d="M49.756 49.116c-.012-.033-.026-.066-.037-.1l.007.026c.009.025.02.049.03.074z" fill="url(#SVGID_00000081648181334502443850000003509556401222358685_)"/>
  <path class="st17" d="M49.45 48.056zM49.26 46.961zM36.515 79.781c.273-.05.53-.115.78-.186-.255.067-.51.136-.78.186zM49.243 44.74zM47.15 59.493a6.176 6.176 0 0 0-.29-.61c.111.201.2.406.29.61zM62.712 55.294l-.093.036.031-.01c.022-.007.04-.018.062-.026zM65.836 53.483c.044-.037.088-.074.13-.112-.042.038-.086.075-.13.112zM50.02 49.778a10.175 10.175 0 0 1-.264-.662c.053.152.106.305.168.456.028.07.065.136.095.206zM50.248 50.27zM67.373 52.298h-.351c-.094.111-.194.218-.293.325.02-.021.043-.04.062-.06a.785.785 0 0 1 .582-.265zM64.852 54.224c.037-.025.076-.048.112-.073-.036.025-.075.048-.112.073zM50.787 51.222c.034.052.068.105.104.157a9.988 9.988 0 0 1-.104-.157zM63.81 54.829c.012-.007.025-.012.038-.018l-.039.018zM49.242 46.791zM61.66 55.608c.158-.037.314-.089.47-.134-.156.046-.312.096-.47.134z"/>
  <linearGradient id="SVGID_00000041287434742602048130000009271961233364112806_" gradientUnits="userSpaceOnUse" x1="83.078" y1="38.148" x2="10.52" y2="55.927">
    <stop offset="0" stop-color="#fd166f"/>
    <stop offset="1" stop-color="#255cfb"/>
  </linearGradient>
  <path d="M49.243 44.74c.394-3.807 2.93-7.227 6.789-8.545a10.115 10.115 0 0 1 10.176 2.18c.356.332.682.7.986 1.088.158.2.395.322.65.322h7.34c.572 0 .95-.588.725-1.114-.228-.53-.48-1.048-.757-1.552-4.845-8.816-16.897-13.379-26.773-6.131-3.081 1.981-6.122 2.032-9.304-.005-1.674-1.072-3.362-2.13-5.135-3.027-3.858-1.953-5.52-4.874-5.508-9.334 0-.147-.01-.29-.013-.435C28.13 8.06 16.85 1.77 7.976 6.744a14.504 14.504 0 0 0-2.639 1.908C.697 12.85-.622 19.605 2.371 25.395c.093.18.173.364.275.543 2.816 4.942 8.251 7.413 13.682 6.72 1.876-.238 3.752-.85 5.52-1.875 3.18-1.845 6.229-1.668 9.355.528 1.554 1.092 3.137 2.154 4.863 2.946 3.62 1.66 5.4 4.226 5.312 7.728a18.052 18.052 0 0 0 .157 7.812 18.134 18.134 0 0 0 5.325 9.085c.113.204.206.408.29.611.938 2.109.83 4.349-.304 6.734a563.626 563.626 0 0 0-4.072 8.683c-1.13 2.485-2.922 4.01-5.48 4.685-.25.071-.506.136-.779.186-4.96.923-8.376 5.57-7.865 10.49.446 5.325 4.976 8.692 9.615 8.82 2.743.077 5.524-.978 7.521-3.434 2.693-3.044 3.142-7.315 1.093-11.043-.643-1.17-.991-2.317-1.093-3.462-.135-1.528.181-3.05.947-4.615 1.382-2.824 2.688-5.684 4.013-8.535 1.175-2.528 2.962-4.006 5.37-4.577 7.708 1.31 15.674-2.506 19.296-9.881.023-.047.04-.093.062-.14a.803.803 0 0 0-.746-1.106h-7.355a.785.785 0 0 0-.582.264c-.02.022-.042.04-.062.061-.24.262-.494.512-.762.748l-.13.112c-.278.237-.567.461-.873.668-.036.025-.075.048-.112.073-.321.212-.654.41-1.004.587l-.039.018c-.351.175-.718.33-1.097.465-.021.008-.04.019-.062.027l-.031.009-.046.017c-.147.05-.295.084-.443.127-.156.045-.312.097-.47.134-4.167 1.004-8.455-.753-10.77-4.229l-.103-.157a10.036 10.036 0 0 1-.768-1.444c-.03-.07-.067-.135-.095-.206a10.073 10.073 0 0 1-.168-.456c-.01-.025-.021-.049-.03-.074l-.007-.026a9.977 9.977 0 0 1-.27-.96l-.036-.157a9.972 9.972 0 0 1-.171-1.108c-.031-.314-.05-.628-.05-.941-.001-.044 0-.087.001-.13.003-.329.017-.656.05-.98z" fill="url(#SVGID_00000041287434742602048130000009271961233364112806_)"/>
  <path class="st17" d="M74.728 52.298h-7.355a.785.785 0 0 0-.582.264c-.02.022-.042.04-.062.061-.24.262-.494.512-.762.748l-.13.112c-.278.237-.568.461-.873.668-.036.025-.075.048-.112.073a9.96 9.96 0 0 1-1.004.587l-.039.018c-.351.175-.718.33-1.097.465-.021.008-.04.019-.062.027-.01.003-.021.005-.031.009l-.046.017c-.147.05-.295.084-.443.127-.156.045-.312.097-.47.134-4.167 1.004-8.455-.753-10.77-4.229l-.103-.157a10.032 10.032 0 0 1-.768-1.444c-.03-.07-.067-.135-.095-.206a10.073 10.073 0 0 1-.168-.456c-.01-.025-.021-.049-.03-.074l-.007-.026a9.977 9.977 0 0 1-.27-.96l-.036-.157a9.969 9.969 0 0 1-.171-1.108c-.031-.314-.05-.628-.05-.941-.001-.044 0-.087.001-.13.003-.329.017-.656.05-.98a61.179 61.179 0 0 0-7.708 5.057 18.133 18.133 0 0 0 5.325 9.085c.113.204.206.408.29.611.938 2.109.83 4.349-.304 6.734a563.671 563.671 0 0 0-4.072 8.683c-1.13 2.485-2.922 4.01-5.48 4.685a8.6 8.6 0 0 1-.779.186c-4.96.924-8.376 5.57-7.865 10.49.446 5.325 4.976 8.692 9.615 8.82 2.743.077 5.524-.978 7.521-3.434 2.693-3.044 3.142-7.315 1.093-11.043-.643-1.17-.991-2.317-1.093-3.462-.135-1.528.181-3.05.947-4.615 1.382-2.824 2.688-5.684 4.013-8.535 1.175-2.528 2.962-4.005 5.37-4.577 7.708 1.31 15.674-2.506 19.296-9.881.023-.047.04-.093.062-.14a.803.803 0 0 0-.746-1.106z"/>
  <linearGradient id="SVGID_00000025427420666605841750000003394916701283933079_" gradientUnits="userSpaceOnUse" x1="222.751" y1="-20.467" x2="242.43" y2="-20.467" gradientTransform="rotate(-18.856 433.47 641.402)">
    <stop offset=".167" stop-color="#1b75b6"/>
    <stop offset=".333" stop-color="#1b79b6"/>
    <stop offset=".499" stop-color="#1b85b6"/>
    <stop offset=".665" stop-color="#1a99b6"/>
    <stop offset=".831" stop-color="#19b5b6"/>
    <stop offset=".995" stop-color="#18d9b6"/>
    <stop offset="1" stop-color="#18dab6"/>
  </linearGradient>
  <path d="m36.65 77.517-.003.008.003-.008z" fill="url(#SVGID_00000025427420666605841750000003394916701283933079_)"/>
  <path class="st3" d="M37.203 72.817c.004.03.003.062.007.092-.004-.03-.003-.061-.007-.092z"/>
  <path class="st3" d="M37.203 72.817c.004.03.003.062.007.092-.004-.03-.003-.061-.007-.092z"/>
  <linearGradient id="SVGID_00000116951467118404148650000010236679980500624803_" gradientUnits="userSpaceOnUse" x1="222.709" y1="-49.36" x2="244.2" y2="-33.008" gradientTransform="rotate(-18.856 433.47 641.402)">
    <stop offset="0" stop-color="#ff5f6d"/>
    <stop offset=".513" stop-color="#ffc24c"/>
    <stop offset="1" stop-color="#c50048"/>
  </linearGradient>
  <path d="M15.881 50.618a8.213 8.213 0 0 0-5.227 10.388c1.397 4.263 6.14 6.623 10.424 5.187a8.234 8.234 0 0 0 3.551-2.35c1.888-2.126 2.62-5.16 1.654-8.046a8.184 8.184 0 0 0-10.402-5.179z" opacity=".8" fill="url(#SVGID_00000116951467118404148650000010236679980500624803_)"/>
  <path class="st21" d="M10.812 56.833c-.156.053-.302.121-.454.18a8.255 8.255 0 0 0 .296 3.993c1.397 4.263 6.14 6.623 10.424 5.187a8.234 8.234 0 0 0 3.551-2.35c-.028-.088-.046-.178-.076-.266-1.932-5.657-8.084-8.676-13.74-6.744z"/>
  <linearGradient id="SVGID_00000131366551624349284090000007679903985261530769_" gradientUnits="userSpaceOnUse" x1="219.238" y1="-44.799" x2="240.729" y2="-28.447" gradientTransform="rotate(-18.856 433.47 641.402)">
    <stop offset="0" stop-color="#ff5f6d"/>
    <stop offset=".107" stop-color="#ff7466"/>
    <stop offset=".513" stop-color="#ffc24c"/>
    <stop offset="1" stop-color="#c50048"/>
  </linearGradient>
  <path d="M68.206 74.258a6.386 6.386 0 0 0-4.137.009 6.369 6.369 0 0 0-2.742 10.221 6.384 6.384 0 0 0 6.892 1.847c3.346-1.15 5.093-4.736 3.954-8.115a6.295 6.295 0 0 0-3.967-3.962z" opacity=".8" fill="url(#SVGID_00000131366551624349284090000007679903985261530769_)"/>
  <path class="st21" d="M68.206 74.258a6.386 6.386 0 0 0-4.137.009 6.369 6.369 0 0 0-2.742 10.221 10.817 10.817 0 0 0 6.879-10.23z"/>
  <linearGradient id="SVGID_00000043448730388575428510000005137840635990167742_" gradientUnits="userSpaceOnUse" x1="256.971" y1="-94.39" x2="278.462" y2="-78.038" gradientTransform="rotate(-18.856 433.47 641.402)">
    <stop offset="0" stop-color="#ff5f6d"/>
    <stop offset=".513" stop-color="#ffc24c"/>
    <stop offset="1" stop-color="#c50048"/>
  </linearGradient>
  <path d="M47.388 1.435a8.27 8.27 0 0 0-2.271 1.162 8.212 8.212 0 0 0-2.98 9.22c1.407 4.301 6.092 6.653 10.398 5.22a8.27 8.27 0 0 0 5.391-5.73 8.116 8.116 0 0 0-.135-4.654C56.365 2.345 51.713.012 47.388 1.435z" opacity=".8" fill="url(#SVGID_00000043448730388575428510000005137840635990167742_)"/>
  <path class="st21" d="M47.388 1.435a8.27 8.27 0 0 0-2.271 1.162c.096.54.22 1.078.403 1.612 1.78 5.215 7.147 8.178 12.406 7.098a8.116 8.116 0 0 0-.135-4.654C56.365 2.345 51.713.012 47.388 1.435z"/>
  <path class="st24" d="M5.337 8.652C.696 12.85-.622 19.605 2.371 25.395c.093.18.173.364.275.543 2.816 4.942 8.251 7.413 13.682 6.72.654-2.967.691-6.1.035-9.212A21.874 21.874 0 0 0 5.338 8.652z"/>
  <path class="st24" d="M7.976 6.744a14.503 14.503 0 0 0-2.639 1.908C.696 12.85-.622 19.605 2.371 25.395c4.635.017 9.338-.61 13.992-1.949.785-.226 1.57-.466 2.352-.733a50.152 50.152 0 0 0 9.704-4.526C28.13 8.06 16.85 1.77 7.976 6.744zM38.265 99.092c2.743.076 5.524-.979 7.521-3.435 2.693-3.044 3.142-7.315 1.093-11.043-.643-1.17-.991-2.317-1.093-3.462-5.823 3.882-8.86 10.943-7.52 17.94z"/>
  <path class="st17" d="M76.343 39.785a17.82 17.82 0 0 0-1.191-2.666 61.354 61.354 0 0 0-8.944 1.256c.454.423.857.903 1.231 1.41h8.904z"/>
</svg>
