<?xml version="1.0" encoding="utf-8"?>
<!-- Generator: Adobe Illustrator 25.4.1, SVG Export Plug-In . SVG Version: 6.00 Build 0)  -->
<svg version="1.1" id="Logo_v12_Kopie_Kopie_2" xmlns="http://www.w3.org/2000/svg" xmlns:xlink="http://www.w3.org/1999/xlink"
	 x="0px" y="0px" viewBox="0 0 429.936 136.278" style="enable-background:new 0 0 429.936 136.278;" xml:space="preserve">
<style type="text/css">
	.st0{fill:#30302F;}
	.st1{fill:#AB1D37;}
	.st2{fill:#E3771A;}
	.st3{fill:#4D9E6D;}
	.st4{fill:#AA6E5D;}
	.st5{fill:#C15923;}
	.st6{fill:#D3D17F;}
	.st7{fill:#3662AB;}
	.st8{fill:#D34726;}
	.st9{fill:#DE5323;}
	.st10{fill:#2A80C1;}
	.st11{fill:#AAC96F;}
	.st12{fill:#3F8EC4;}
	.st13{fill:#71B3C9;}
	.st14{fill:#BC9467;}
	.st15{fill:#9F9885;}
	.st16{fill:#3F79B9;}
	.st17{fill:#B7C49B;}
	.st18{fill:#5380B0;}
	.st19{fill:#99C355;}
	.st20{fill:#965B49;}
	.st21{fill:#A9633D;}
	.st22{fill:#B4C486;}
</style>
<path class="st0" d="M374.88101,103.93c0-9.436,0.021-18.875-0.02701-28.311c0-1.091,0.33499-1.3,1.33301-1.282
	c3.789,0.054,7.57999,0.043,11.36899,0c0.78299-0.008,1.035,0.182,1.022,1c-0.04999,2.955-0.02802,5.911-0.01401,8.868
	c0,0.223-0.20001,0.569,0.16101,0.655c0.091,0.022,0.284-0.3,0.40701-0.484c4.18701-6.266,10.276-9.425,17.517-10.63
	c3.99106-0.82994,8.12637-0.64774,12.02899,0.53c5.23499,1.778,8.246,5.687,9.79999,10.83
	c1.02023,3.61368,1.50372,7.3577,1.435,11.112c0.00601,12.09-0.009,24.18,0.02499,36.27099c0,0.912-0.26001,1.10699-1.12601,1.10001
	c-4.32065-0.04533-8.64099-0.04533-12.961,0c-0.85101,0.009-1.05499-0.2-1.05399-1.05499
	c0.03201-10.45999,0.01901-20.92099,0.021-31.37999c0.0994-2.7294-0.22101-5.45788-0.95001-8.09c-1.61301-5.12-6-7.515-11.392-6.018
	c-5.59653,1.49346-10.12393,5.60354-12.14999,11.03c-0.21866,0.60497-0.31387,1.24762-0.28,1.89
	c0.00699,10.8-0.01199,21.6,0.03201,32.39999c0,1.022-0.26199,1.235-1.241,1.224c-4.284-0.05901-8.56601-0.052-12.849,0
	c-0.89099,0.009-1.125-0.222-1.12201-1.121c0.03101-9.51299,0.017-19.02599,0.017-28.53799"/>
<path class="st0" d="M94.262,133.567c-2.424,0-4.851-0.021-7.275,0.013c-0.55901,0.10471-1.10201-0.24704-1.235-0.8
	c-7.018-19.11599-14.057-38.22466-21.117-57.326c-0.344-0.926-0.2-1.124,0.776-1.113c4.43201,0.04333,8.86533,0.04333,13.3,0
	c0.70089-0.13084,1.37514,0.33127,1.50599,1.03216c0.00217,0.01159,0.00417,0.0232,0.00601,0.03484
	c4.70534,14.79199,9.43733,29.57967,14.196,44.363c0.123,0.38,0.089,0.989,0.489,1.053c0.225,0.036,0.305-0.644,0.425-1.013
	c4.786-14.81,9.565-29.62301,14.337-44.439c0.101-0.67232,0.72789-1.13547,1.40022-1.03447
	c0.00727,0.00109,0.01453,0.00225,0.02178,0.00347c4.017,0.043,8.035,0.053,12.052,0c1.021-0.013,1.066,0.237,0.743,1.113
	c-7.04466,19.06667-14.06967,38.13967-21.075,57.219c-0.10844,0.59842-0.66963,1.00476-1.272,0.92101
	c-2.425-0.064-4.851-0.02699-7.278-0.02699"/>
<path class="st0" d="M203.11801,51.039c4.507-0.005,9.017,0.018,13.52499-0.041c0.92799-0.012,1.11,0.277,1.108,1.139
	c-0.028,11.74533-0.03433,23.49067-0.019,35.23601c0,8.71467,0.00232,17.429,0.007,26.143
	c0.00041,0.83273,0.04446,1.66488,0.132,2.493c0.405,3.793,3.15601,5.929,6.95399,5.411c1.50206-0.19537,2.96834-0.6052,4.354-1.217
	c0.56599-0.253,0.83299-0.228,0.948,0.461c0.573,3.394,1.16,6.787,1.8,10.169c0.127,0.68201-0.289,0.748-0.692,0.923
	c-3.2587,1.32997-6.69563,2.17236-10.2,2.5c-2.78287,0.39018-5.61296,0.28217-8.358-0.319c-6.108-1.46001-9.806-6.12399-10-12.67399
	c-0.093-3.105-0.034-6.214-0.043-9.32c-0.26801-0.988,0.627-1.622,0.755-2.488c0.28275-0.54414,0.52087-1.11033,0.71201-1.693
	c0.72136-1.7136,1.32085-3.47598,1.79401-5.274c1.45856-4.63548,2.40814-9.41598,2.832-14.257c0.2-1.056,0.15199-2.136,0.3-3.2
	c0.1458-1.65216,0.1792-3.31232,0.10001-4.969c0.03799-0.792-0.02499-1.585,0.02699-2.377
	c0.04344-1.35718-0.02344-2.71564-0.2-4.062c-0.17754-3.60207-0.74347-7.17444-1.688-10.655
	c-0.07114-0.23644-0.11673-0.47984-0.136-0.726c-0.95984-3.4397-2.246-6.77987-3.841-9.975c-0.18401-0.388-0.55499-0.762-0.159-1.23
	"/>
<path class="st1" d="M103.25,8.896c5.41142-3.56407,11.43595-6.0954,17.769-7.466c5.36666-1.19592,10.8717-1.65215,16.36201-1.356
	c0.64313,0.02875,1.28322,0.10529,1.91499,0.229c2.3,0.46,3.7,1.758,3.687,4.092c-0.033,5.449,0.386,10.914-0.173,16.35
	c-0.369,3.584-2.81599,5.277-6.162,4.576c-0.78381-0.17876-1.43559-0.72023-1.755-1.458c-0.64587-1.33564-0.91125-2.82342-0.767-4.3
	c0.089-2.309,0.194-4.617,0.29201-6.925c0.006-0.153,0-0.3,0-0.455c-0.02299-2.887-0.319-3.209-3.146-3.223
	c-7.03379,0.03375-13.94353,1.85513-20.08001,5.293c-0.264,0.141-0.537,0.263-0.807,0.393c-0.43,0.175-0.61-0.187-0.844-0.405
	c-1.86066-1.76672-3.86452-3.37623-5.991-4.812c-0.177-0.123-0.408-0.23-0.3-0.526"/>
<path class="st2" d="M90.114,39.876c-0.71725,2.62022-1.23804,5.29029-1.558,7.988c-0.148,1.494-0.184,1.476,1.335,1.506
	c3.7,0.07,7.412-0.057,11.11,0.252c0.159,0.25,0.471,0.216,0.68,0.368c0.24096,0.13004,0.36785,0.40295,0.312,0.671
	c-0.06268,0.26534-0.29457,0.45633-0.567,0.467c-0.263,0.031,0.023,0.045,0.016,0.088c-0.206,1.726,1.3,1.258,2.131,1.66
	c0.10245,0.04829,0.1932,0.11823,0.266,0.205c0.16428,0.3599,0.22356,0.75888,0.171,1.151c0.082,0.646-0.791,1.512,0.439,1.892
	c0.693,0.218,1.442-0.079,2.129,0.23c0.259,0.116,0.436-0.023,0.5-0.291c0.259-1.219,1.132-2.336,0.536-3.7
	c-0.1098-0.44209-0.14194-0.8999-0.095-1.353c0.034-0.423-0.277-0.865,0.066-1.272c5.69733,0.15867,11.39433,0.31933,17.091,0.482
	c1.208,0.035,2.41299,0.1,3.61901,0.152c1.55299,0.528,2.2,2.077,3.37199,3.039c0.53609,0.64564,0.85518,1.44374,0.912,2.281
	c0.09802,0.51521,0.38292,0.97604,0.8,1.294c0.67819,0.3819,1.01787,1.16968,0.83,1.925c-5.72,0.058-11.43501-0.2-17.14801-0.387
	c-10.712-0.36-21.422-0.764-32.123-1.376c-1.1015-0.0127-2.18423-0.28689-3.159-0.8c-0.76676-0.35578-1.33115-1.03967-1.535-1.86
	c0.539-0.5,1.146-0.135,1.708-0.1c1.537,0.1,1.993-0.164,2.254-1.688c0.544-3.164,1.46-6.234,2.2-9.347
	c0.23-0.967,0.949-1.715,1.117-2.7c0.025-0.141-0.048,0.016,0.048-0.1c0.459-0.55,1.107-0.291,1.648-0.434
	c0.278-0.068,0.412-0.7,0.9-0.242"/>
<path class="st3" d="M165.871,136.246c-8.35234,0.19208-16.56667-2.15273-23.55901-6.72501
	c-0.7146-3.88995-0.95535-7.85214-0.717-11.8c-0.02983-0.45197,0.01889-0.90568,0.144-1.341
	c0.17053-0.34303,0.50903-0.57098,0.89101-0.6c0.18246-0.03412,0.36931-0.03783,0.55299-0.011c0.207,0.038,0.409-0.089,0.612,0
	c-0.13499-0.148-0.39999,0.018-0.5-0.207c-0.06799-0.155-0.537-1.153-0.457-1.283c0.45805-0.05883,0.90857-0.1661,1.34399-0.32
	c3.11069,2.75987,6.77966,4.8169,10.757,6.031c0.06499,0.05203,0.13837,0.09261,0.217,0.12v-0.007
	c0.51401,1.233,1.879,1.19,2.784,1.836c0.416,0.295,0.94099,0.432,1.383,0.709c0.08418,0.06201,0.15837,0.13654,0.22,0.221
	c0.16719,0.8501,0.73218,1.56832,1.519,1.931c0.07649,0.07276,0.14366,0.15472,0.2,0.244c0.252,0.61301,0.67101,1.207,0.25,1.91
	c-0.043,0.075,0.164,0.043,0.14799,0.082c1.226-0.10001,0.493,1.292,1.10001,1.70798c0.25482,0.50378,0.41449,1.05026,0.47099,1.612
	c0.07837,0.33415,0.25911,0.63551,0.517,0.862c0.923,0.71899,1.689,1.474,1.43201,2.812c-0.075,0.39999,0.3,0.561,0.674,0.60001
	c0.26355-0.00096,0.52696,0.01273,0.789,0.041c0.448,0.10001,1.207,0.05701,0.395,0.80499c-0.188,0.173-0.168,0.492-0.3,0.71899
	c-0.20673,0.06313-0.42387,0.08488-0.63901,0.064L165.871,136.246z"/>
<path class="st4" d="M203.11801,51.039c0.3624,1.10244,0.82744,2.16845,1.38901,3.184c1.19363,2.55804,2.14481,5.22237,2.841,7.958
	c-0.257,0.429-0.416,0.168-0.58-0.08c-0.12801-0.248-0.162-0.7-0.548-0.562c-0.776,0.271-1.181-0.021-1.481-0.709
	c-0.222-0.512-0.855-0.385-1.235-0.676c-0.245-0.314-0.47099-0.755-0.282-1.046c0.58299-0.908-0.136-1.1-0.675-1.356
	c-0.5081-0.17655-0.89742-0.5909-1.04201-1.109c-0.20653-0.82582-0.85992-1.4653-1.69-1.654c-1.164-0.4-1.287-0.96-0.5-1.917
	c0.071-0.087,0.2-0.132,0.22501-0.243c0.007-0.03-0.11501-0.048-0.19501-0.009c-0.41048,0.20739-0.90337,0.16194-1.269-0.117
	c-0.244-0.152-0.166,0.251-0.14301,0.371c0.21349,0.79932,0.21349,1.64067,0,2.44c-0.172,0.53,0.27299,0.978,0.674,1.356
	c0.25157,0.19025,0.35678,0.51786,0.263,0.819c-0.134,0.353-0.47501,0.293-0.77699,0.309c-0.77901,0.041-1.40601,0.023-1.82401-0.9
	c-0.28413-0.67076-1.05824-0.98418-1.729-0.70004c-0.06628,0.02808-0.13017,0.06154-0.19099,0.10004
	c-0.62991,0.41219-1.28043,0.79201-1.94901,1.138c-1.79669-4.20678-4.3981-8.02193-7.658-11.231
	c-1.187-1.151-2.44-2.238-3.66299-3.352c1.34776-1.19001,2.98964-1.99731,4.755-2.338c1.028-0.2,2.08701-0.212,3.11101-0.446
	c0.68401-0.121,0.655-0.742,0.84599-1.208c0.12053-0.1918,0.31821-0.322,0.54201-0.357c0.80701,0.146,1.25999-0.577,1.923-0.789
	c0.11035,0.01949,0.21902,0.04757,0.325,0.084c1.83682,1.50587,3.49529,3.217,4.94299,5.1
	c1.86122,2.24404,3.51814,4.64994,4.951,7.189c0.166,0.293,0.284,0.632,0.651,0.751"/>
<path class="st5" d="M190.375,38.955l-0.46899,0.219c-0.3,0.416-0.332,0.966-0.675,1.362
	c-0.7126,0.2542-1.47054,0.35639-2.22501,0.3c-2.272,0.014-3.98801,1.413-5.938,2.225
	c-4.73871-3.6121-9.82628-6.74196-15.18698-9.343c0.68201-0.972,0.8-2.2,1.44099-3.2c0.224-0.345,0.41-0.719,0.66499-1.051
	c1.01199-1.2,2.245-2.169,3.32899-3.29c0.30478-0.40676,0.86234-0.52739,1.308-0.283c0.241,0.255,0.15401,0.619,0.368,0.922
	c0.75301,1.062,0.735,1.1,1.7,0.2c0.3665-0.33644,0.87505-0.47105,1.36-0.36c4.66228,2.16552,9.03058,4.91452,13,8.181
	c-0.64247,0.50381-0.84039,1.39087-0.47301,2.12c0.179,0.618,1.492,0.828,2.272,0.355c0.295-0.18,0.51199-0.449,0.873-0.176
	c0.37581,0.18266,0.67758,0.48869,0.855,0.867l-0.368,0.048c-0.666,0.179-1.08701,0.862-1.826,0.9"/>
<path class="st6" d="M145.552,85.79c-1.46695,1.76434-2.7493,3.67431-3.827,5.7c-0.96899-0.582-1.39999,0.534-2.136,0.68
	c-0.39377,0.08441-0.80235,0.06963-1.189-0.043c-0.53458-0.29558-0.94308-0.77589-1.149-1.351
	c-0.43413-1.11707-1.69162-1.67069-2.80869-1.23656c-0.1503,0.05841-0.29362,0.13339-0.42731,0.22356
	c-0.10001,0.058-0.23399,0.114-0.216,0.226c0.15401,0.932-0.539,0.805-1.078,0.878c-0.75056,0.07141-1.49849-0.1605-2.077-0.644
	c-0.36372-0.25871-0.76982-0.45195-1.2-0.571c-0.437-0.152-0.94901-0.28-0.939-0.912c1.20599-3.50861,3.11757-6.73316,5.617-9.475
	c2.52351-2.97285,5.62585-5.40082,9.118-7.136c0.78-0.216,1.26199,0.521,1.95599,0.616c0.21201,0.03,0.17101,0.294,0.114,0.478
	c-0.08936,0.2451-0.138,0.50318-0.144,0.764c0.021,1.458,0.21899,1.658,1.64,1.612c0.18556-0.01959,0.37282,0.01515,0.539,0.1
	c0.26601,0.368,0,0.609-0.2,0.862c-0.07191,0.09852-0.06041,0.23492,0.02699,0.32c0.24651,0.78746,0.30576,1.6216,0.173,2.436
	c-0.028,0.739-1.08299,1.067-1.76601,1.408c-1.35001,0.673-1.423,0.712-1,2.035c0.02299,0.073,0.08501,0.148,0.071,0.214
	c-0.14795,1.02552,0.18393,2.0621,0.89999,2.811"/>
<path class="st7" d="M203.58101,109.50401c-0.10001,0.9-0.75999,1.581-0.96001,2.441c-1.28,2.046-2.317,4.239-3.714,6.22
	c-1.28726,1.96223-2.76364,3.79365-4.408,5.468c-0.19299-0.019-0.42-0.078-0.47-0.249c-0.34399-1.157-1.39999-1.685-2.14301-2.492
	c-0.07401-0.057-0.145-0.12-0.213-0.182c-0.16803-0.14763-0.38922-0.21991-0.612-0.2
	c-0.33398-0.08601-0.57236-0.38042-0.58701-0.725c-0.146-0.453-0.28,0.077-0.423,0.011c-0.91975-0.1866-1.73976-0.70257-2.306-1.451
	c0.052-1.1,0.564-1.376,1.617-0.88c0.44299,0.209,0.808,0.782,1.38499,0.022c0.246-0.322,0.93201-0.1,1.244,0.4
	c0.10001,0.159,0.075,0.378,0.25301,0.486c0.006,0-0.064-0.072-0.048-0.095c0.791-1.08,0.73-1.626-0.041-1.371
	c-0.77528,0.13181-1.57071,0.07939-2.32201-0.153c-0.22099-0.023-0.507-0.052-0.562-0.3c-0.082-0.368,0.3-0.35,0.5-0.48
	c0.129-0.082,0.382-0.022,0.375-0.232c0-0.07-0.259-0.127-0.407-0.143c-1.1109,0.03445-2.13918-0.58432-2.629-1.582
	c-0.382-0.813-1.526-0.761-2.15401-1.377c2.58954-3.01324,4.72569-6.38811,6.341-10.018
	c0.16994-0.16681,0.43558-0.18626,0.62801-0.046c1.489,1.038,3.291,1.24,4.933,1.868c0.43611,0.12444,0.82951,0.36663,1.13699,0.7
	c1.16177,1.28813,2.59068,2.30717,4.187,2.986c0.362,0.278,0.83,0.329,1.207,0.578c0.20235,0.21042,0.27402,0.51434,0.187,0.793"/>
<path class="st8" d="M103.25,8.896c2.57176,1.65998,4.96308,3.58409,7.135,5.741c-3.27444,2.02834-6.33006,4.39026-9.118,7.048
	c-0.13608,0.08654-0.31655,0.04638-0.40309-0.0897c-0.01931-0.03036-0.03284-0.06403-0.03991-0.0993
	c-0.043-1.483-1.179-1.074-2.011-1.185c-0.184-0.025-0.437-0.059-0.464,0.182c-0.034,0.291,0.237,0.332,0.462,0.366
	c0.07478,0.008,0.15022,0.008,0.225,0c0.466-0.02,1.076-0.346,1.324,0.23c0.25859,0.56571,0.12242,1.23367-0.337,1.653
	c-0.077,0.073-0.077,0.209-0.088,0.321c-0.114,0.134-0.228,0.268-0.344,0.4c-0.218,0.082-0.284,0.3-0.423,0.462
	c-0.312,0.37733-0.62267,0.75467-0.932,1.132c-0.735-0.361-1.545-0.65-1.178-1.774c0.1-0.323-0.062-0.511-0.492-0.466
	c-0.65347,0.0482-1.29565-0.1897-1.76-0.652c-0.145-0.13-0.271-0.617-0.375,0.068c-0.09273,1.39721-0.5424,2.74725-1.306,3.921
	c-0.17838,0.29332-0.27345,0.6297-0.275,0.973c0.01288,0.39062-0.21958,0.7477-0.582,0.894
	c-0.71745,0.28107-1.23637,0.91597-1.36901,1.675c-0.123,0.437-0.287,0.971-0.85,0.907
	c-0.55601-0.08348-0.94208-0.59779-0.867-1.155c-0.01551-0.37421-0.07594-0.74521-0.18-1.105c-0.2-0.392-0.619-0.319-0.946-0.444
	c0.257,0.148,0.6,0.068,0.823,0.3c0.05049,0.05572,0.08564,0.12361,0.102,0.197c-0.79263,0.60901-1.05007,1.69011-0.617,2.591
	c0.44584,1.26408-0.21748,2.65023-1.48155,3.09607c-0.28409,0.1002-0.58436,0.14663-0.88544,0.13693
	c-0.919-0.041-1.847,0.446-2.749-0.05c1.59949-4.76608,3.97181-9.23672,7.022-13.233c1.39732-1.97292,3.00069-3.7915,4.783-5.425
	c0.21051-0.08708,0.37656-0.25602,0.46-0.468c0.82968-0.91926,1.75151-1.75095,2.751-2.482
	c0.16158-0.10345,0.31116-0.22453,0.446-0.361c1.39353-1.2547,2.91409-2.36068,4.537-3.3"/>
<path class="st2" d="M107.549,31.423c0.04603-3.09143,2.07118-5.80413,5.022-6.727c4.3-1.608,8.742,0.364,10.056,4.459
	c1.436,4.477-1.121,9.73-5.374,10.735c-2.76472,0.69072-5.67669-0.31417-7.427-2.563c-1.37315-1.67329-2.17149-3.74398-2.277-5.906"
	/>
<path class="st9" d="M88.938,28.259c0.646,0.11,0.649,0.785,0.605,1.088c-0.075,0.527,0.069,0.939,0.446,1.062
	c0.523,0.17,0.552-0.412,0.621-0.739c0.2-0.958,0.582-1.711,1.649-1.916c0.111-0.02,0.288-0.218,0.273-0.3
	c-0.226-1.071,0.723-1.692,0.961-2.569c0.38997-1.02546,0.62032-2.10468,0.683-3.2c-0.007-0.207-0.082-0.514,0.218-0.557
	c0.223-0.032,0.216,0.254,0.291,0.414c0.31295,0.72596,1.08502,1.14038,1.863,1c0.951-0.141,0.928,0.632,0.8,0.955
	c-0.275,0.669-0.221,0.917,0.514,0.9c0.537-0.011,0.168,0.489,0.377,0.664c-3.54501,4.43045-6.29292,9.4434-8.121,14.815
	c-0.769,0.17-1.408,0.789-2.267,0.662c-0.03,0-0.119,0.125-0.112,0.182c0.161,1.212-0.875,1.965-1.14,3.065
	c-0.777,3.251-1.635,6.478-2.267,9.764c-0.24735,0.85242-1.10178,1.37746-1.974,1.213c-0.7-0.107-1.41-0.187-2.118-0.278l0.01-0.014
	c0.031-0.132-0.093-0.186-0.139-0.282c-0.578-1.869-0.212-3.745-0.025-5.615c0.40231-4.73967,1.38775-9.41162,2.934-13.91
	c0.06985-0.17069,0.14862-0.33759,0.236-0.5c1.21635-0.21577,2.45355-0.29027,3.687-0.222
	c0.34705,0.02219,0.66509-0.19341,0.773-0.524c0.307-0.7-0.082-1.567,0.515-2.2c0.02446-0.07041,0.01328-0.14831-0.03-0.209
	c-0.958-0.445-0.1-1.219-0.31-1.837c-0.234-0.694,0.774-0.5,1.051-0.915"/>
<path class="st10" d="M187.88101,118.315c0.755,0.455,1.507,0.912,2.263,1.367c0.11761-0.12289,0.31259-0.12715,0.43547-0.00954
	c0.00325,0.00311,0.00642,0.00629,0.00954,0.00954c0.175,0.286,0.25301,0.673,0.7,0.682
	c0.17287,0.00321,0.33424,0.08723,0.436,0.227l0.01401,0.014c0.291,0.348,0.30499,0.864-0.084,0.932
	c-0.86,0.148-0.476,0.442-0.235,0.83c0.30476,0.38078,0.43541,0.87214,0.36,1.354c-0.14101,0.682,0.83701,0.766,0.92101,1.387
	c0.08875,0.13595,0.06355,0.31653-0.05901,0.423c-5.00711,4.8942-11.31683,8.24416-18.17599,9.64999
	c-1.10001-0.10001-0.642-1.39999-1.36501-1.786c0.17949-0.25549,0.49536-0.3775,0.8-0.30901
	c0.63309,0.09862,1.27435-0.11876,1.717-0.582c0.537-0.507,0.34599-0.355-0.05-0.657c-0.466-0.362,0.14999-0.755,0.173-1.15401
	c0.011-0.186,0.564-0.367,0-0.561c-0.16901-0.05701-0.39999-0.12801-0.343-0.368c0.058-0.267,0.32401-0.284,0.543-0.319
	c0.64098-0.03745,1.28023,0.09793,1.851,0.392c0.22301,0.338,0.694,0.263,0.937,0.563c0.064-0.229-0.07001-0.291-0.259-0.291
	c-0.22437,0.02798-0.4491-0.04913-0.60899-0.209c-0.942-0.33701-1-1-0.658-1.8c0.32457-0.54763,0.60963-1.11774,0.853-1.70599
	c0.125-0.46001,0.60699-0.31799,0.92599-0.02699c0.14015,0.16429,0.34827,0.2547,0.564,0.245
	c-0.2-0.02699-0.38499-0.08099-0.41901-0.31799c-0.01236-0.64639,0.1973-1.2775,0.59399-1.788c0.116-0.216,0.548-0.437-0.183-0.618
	c-0.7-0.176-0.02901-0.883,0.121-1.07c0.32401-0.4-0.22-0.081-0.118-0.193c-0.755-0.312-0.5-0.914-0.39999-1.453s0.2-1.144,0.97-0.9
	c0.4061,0.06873,0.82161,0.05888,1.224-0.029c0.189,0.01326,0.37781-0.02805,0.54401-0.119
	c-0.15898,0.09024-0.34642,0.11636-0.524,0.073c-0.129,0.032,0.02299-0.5-0.27901-0.141c-0.735-0.03-0.77299-0.573-0.384-0.869
	c0.89101-0.677,0.22501-1.262-0.13699-1.589c-0.564-0.511-0.243-0.751,0.05701-1.1c0.95134-0.77533,1.90268-1.55,2.854-2.324
	c0.328-0.112,0.353,0.143,0.44099,0.348c0.47153,1.38088,1.54005,2.47586,2.909,2.981c0.41991,0.17152,0.78944,0.44678,1.07401,0.8"
	/>
<path class="st11" d="M138.298,91.922l1.355,0.023c0.52992,0.27827,0.99614,0.66378,1.369,1.132
	c-0.64101,1.942-1.10001,3.932-1.55299,5.922c-0.2103,0.19705-0.51988,0.24508-0.78,0.121c-0.114-0.1,0.036,0.032-0.08701-0.057
	c-0.08099-0.061,0.116,0.011-0.008,0.007c0.10001,0.034-0.076-0.075,0,0c0.2,0.571,0.231,1.008-0.60001,0.746
	c-0.157-0.089-0.248-0.344-0.5-0.2c0.2-0.086,0.30701,0.044,0.423,0.164c0.062,0.418-0.214,0.539-0.537,0.553
	c-1.17101,0.05-2.29401,0.55-3.48801,0.382c-0.39999-0.057-0.439,0.111-0.30499,0.452c0.271,0.687-0.114,0.96-0.726,1.085
	c-0.573,0.116-1.089,0.275-1.064,1.046c0.011,0.341-0.423,0.385-0.63,0.594c-0.27219,0.24926-0.39171,0.6242-0.314,0.985
	c0.08728,0.41856-0.11186,0.84455-0.489,1.046c-0.08417,0.00182-0.16284-0.04171-0.20599-0.114
	c-0.10001,0.2,0.15199,0.148,0.186,0.257c0.81674,0.50926,1.37126,1.34891,1.519,2.3c0.15199,0.791-0.23199,1.342-1.01199,1.267
	c-1.19655-0.22217-2.42601-0.19596-3.61201,0.077c-1.07462-3.4653-1.46021-7.10751-1.135-10.721
	c0.11572-2.48351,0.58996-4.93723,1.408-7.285c1.012-0.925,0.96401-0.853,2.12901-0.074c1.10001,0.734,2.5,0.768,3.68201,1.351
	c0.22301,0.109,0.382-0.187,0.567-0.3c0.32423-0.30013,0.8304-0.28059,1.13052,0.04365
	c0.02513,0.02715,0.04834,0.05599,0.06947,0.08635c0.11301,0.143,0.209,0.423,0.377,0.373c0.194-0.057,0.071-0.325,0.076-0.5
	c0.011-0.386,0.026-0.766,0.465-0.943c0.75932-0.23346,1.5795-0.16431,2.289,0.193"/>
<path class="st2" d="M168.06801,29.628c-0.562,1.235-1.155,2.455-1.658,3.714c-0.129,0.328-0.246,0.4-0.534,0.376
	c-3.871-1.713-7.767-3.373-11.60001-5.158c-2.627-1.222-3.47099-3.023-2.7-5.241c0.85439-2.54658,3.44257-4.08555,6.088-3.62
	c1.58694,0.34738,3.14255,0.825,4.651,1.428c0.02299,0.219-0.341,0.546-0.13,0.58c0.91499,0.154,0.909,1.292,1.72501,1.515
	c0.22,0.061,0.30901,0.318,0.418,0.516c0.339,0.614,0.187,1.678,1.45799,1.422c0.368-0.076,0.243,0.443,0.291,0.739
	c0.06665,0.6288,0.35147,1.21438,0.80499,1.655c0.33932,0.32087,0.47626,0.80148,0.35699,1.253
	c-0.10899,0.539-0.10001,0.539,0.33701,0.578c0.19124,0.00565,0.37051,0.09437,0.491,0.243"/>
<path class="st12" d="M209.274,85.146c0.04695,1.05846-0.05164,2.11835-0.293,3.15c-0.093,1.1-0.925,0.958-1.65401,0.968
	c-0.52699,0.009-1.05499,0.012-1.58-0.031c-0.261-0.02-0.54601-0.075-0.673,0.252c-0.341,0.89-0.655,0.46-0.94901-0.025
	c-0.09941-0.20064-0.28244-0.34706-0.5-0.4c-0.327-0.072-0.416-0.092-0.23801,0.307c0.159,0.362-0.009,0.81,0.05,1.227
	c0.086,0.591-0.01401,0.938-0.8,0.7c-0.42999-0.13-0.942,0.243-1.27699,0.564c-0.32849,0.31689-0.80833,0.42-1.23801,0.266
	c-0.09589-0.0449-0.17856-0.11378-0.24001-0.2c-0.091-0.086,0.214-0.271-0.03101-0.275c-0.467-0.01-0.92599,0.211-1.20599-0.469
	c-0.2-0.478-0.72099-0.266-1.084-0.077c-0.528,0.275-1.013,0.48-1.55901,0.022c-0.377-0.316-0.868,0.335-1.269-0.088
	c0.451-2.941,0.769-5.9,1.03799-8.861c0.33713-0.25031,0.75914-0.35806,1.175-0.3c1.319-0.047,1.31-0.047,1.356-1.321
	c0.022-0.6,0.093-1.089-0.646-1.483c-0.657-0.35,0.2-0.571,0.35001-0.867c0.45367-0.31402,0.94102-0.57632,1.453-0.782
	c0.10846-0.01782,0.21889-0.02018,0.328-0.007c0.976,0.724,1.84399,1.549,3.28,1.356c0.89182-0.17163,1.79417,0.24219,2.246,1.03
	c0.15738,0.26336,0.42105,0.4457,0.72301,0.5c0.349,0.095,0.66499,0.245,0.619,0.682c-0.02901,0.282,0.028,0.453,0.339,0.435
	c0.7-0.039,1,0.5,1.47301,0.882c0.83769,0.68384,1.1626,1.81601,0.815,2.84"/>
<path class="st13" d="M159.44,103.32101c-0.97951,0.12812-1.97549,0.01307-2.89999-0.335c-1.45599-0.587-1.763-1.444-0.883-2.743
	c1.14343-1.46339,2.5659-2.68533,4.185-3.595c1.765-1.167,3.709-2.054,5.367-3.387c1.44011-1.05653,2.59589-2.45351,3.364-4.066
	c1.2-2.777,0.30499-5.579-2.392-7.391c-0.28-0.19-0.569-0.365-0.856-0.546c-0.02-0.762,0.565-1.026,1.10001-1.333
	c0.15578-0.04709,0.31593-0.07825,0.478-0.093c0.31442-0.04883,0.61058-0.17915,0.85899-0.378
	c1.21971-0.68924,2.50337-1.25857,3.83299-1.7c0.634-0.254,1.339-0.593,2.049-0.109c0.06496,1.46602-0.10382,2.93304-0.5,4.346
	c-0.16595,0.46615-0.1506,0.97765,0.043,1.433c0.45642,0.80251,0.51945,1.77006,0.17101,2.625
	c-0.17722,0.61877-0.23592,1.26544-0.173,1.906c-0.06921,0.91701-0.04173,1.83875,0.082,2.75
	c-0.159,0.507-0.39999,0.93-1.01401,0.944c-0.121,0.029-0.142-0.23-0.3-0.107c0.06744,0.05768,0.10588,0.14227,0.105,0.231
	c-0.78101,0.619-1.29201,1.572-2.343,1.852c-0.38901,0.1-0.42999,0.489-0.592,0.78c-0.2849,0.78151-1.10947,1.22623-1.91901,1.035
	c-0.33701-0.078-0.66701-0.207-0.851,0.354c-0.12772,0.43909-0.5872,0.69152-1.02631,0.5638
	c-0.06306-0.01835-0.12372-0.04413-0.18069-0.07681c-0.22838-0.14313-0.52953-0.07402-0.67265,0.15435
	c-0.02612,0.04169-0.04579,0.08708-0.05835,0.13465c-0.39777,1.20528-1.46077,2.06873-2.722,2.211
	c-0.05701,0.006-0.14799-0.016-0.14999,0.091c0.06493-0.03897,0.14607-0.03897,0.211,0c0.571,0.473,0.87801,0.86-0.131,1.235
	c-0.58701,0.218-0.64101,0.928-0.67999,1.469c-0.05,0.712,0.166,1.4-0.39999,1.776l-0.47301-0.016
	c-0.20915,0.01482-0.41917,0.01282-0.62801-0.006"/>
<path class="st4" d="M207.481,62.796c1.04311,3.47577,1.62805,7.07282,1.74001,10.7c-0.89999,1.052-1.743,2.149-3.256,2.449
	c-0.616,0.123-0.985,0.953-1.774,0.828c-0.293,0.016-0.589,0.013-0.882,0.016c-0.75406-0.04222-1.51031-0.02182-2.261,0.061
	c-0.15367,0.0448-0.31042,0.07822-0.46899,0.1c-0.19678,0.02997-0.38379,0.10566-0.54601,0.221
	c-0.11931,0.09638-0.25874,0.16473-0.408,0.2c-0.524,0.084-1.215,0.5-0.66701-0.669c0.491-1.049,0.291-1.2-0.939-1.228
	c-1.10001-0.028-1.32001-0.285-1.27-1.483c0.02299-0.53-0.554-0.8-0.56799-1.31c0.01601-0.107-0.01401-0.245,0.161-0.253
	c-0.077-0.054-0.125-0.027-0.145,0.082c-0.077,0.323-0.116,0.687-0.60699,0.56c-0.23248-1.43539-0.37543-2.88385-0.42799-4.337
	c0.39999-0.4,0.89999-0.3,1.38499-0.307c1.3-0.03,1.526-0.4,0.974-1.524c-0.09735-0.20322-0.21637-0.39534-0.355-0.573
	c-0.22501-0.287-0.62801-0.6-0.38-0.971c0.31419-0.35735,0.83788-0.44128,1.248-0.2c0.63499,0.257,1.08299,0.916,1.875,0.871
	c0.114-0.007,0.05701-0.041,0.05901,0.073c0.011,0.868,0.673,0.516,1.08701,0.582c0.664,0.107,0.914-0.261,0.819-0.867
	c-0.01726-0.67764-0.08411-1.35311-0.2-2.021c-0.20264-0.60252,0.12154-1.25523,0.72404-1.45786
	c0.00729-0.00246,0.01462-0.00484,0.02196-0.00714c0.634-0.289,0.95,0.234,1.244,0.685c0.24718,0.42228,0.45633,0.86568,0.625,1.325
	c0.069,0.1-0.118,0.219,0.021,0.319c0.00586-0.07626,0.0504-0.14421,0.118-0.18c0.605-0.154,0.994-0.846,1.72099-0.7
	c0.55099,0.485,0.26401,1.23301,0.571,1.80001c0.01199,0.018,0.05,0.111,0.082,0.045c0.06599-0.134-0.02499,0.059-0.077-0.077
	C206.38705,64.5625,206.68703,63.47057,207.481,62.796"/>
<path class="st14" d="M149.89401,69.442c4.49655-1.36335,9.26163-1.58672,13.866-0.65c0.269,0.332,0.05499,0.646-0.05099,0.953
	c-0.267,0.767-1.147,1.264-0.91901,2.267c0.05701,0.253-0.339,0.444-0.62801,0.574c-0.18401,0.083-0.60899-0.169-0.535,0.311
	c0.03519,0.27622,0.26385,0.48717,0.54201,0.5c0.8779,0.10909,1.64445,0.64672,2.04601,1.435
	c0.52612,1.00442,0.63187,2.17664,0.29401,3.259c-0.11099,0.73-1.04401,0.471-1.67,0.366
	c-1.10799-1.26476-2.95772-1.56515-4.409-0.716c-1.29401,0.605-2.375-0.389-3.48-0.871c-0.54401-0.239-1.073-0.528-1.63499-0.737
	c-0.36995-0.60565-0.91594-1.08396-1.565-1.371c-0.39572-0.14463-0.66637-0.51218-0.687-0.933
	c-0.117-0.73853-0.34456-1.45523-0.675-2.126c-0.121-0.764-0.80499-1.408-0.494-2.266"/>
<path class="st10" d="M164.086,121.328c3.27637-0.02783,6.53391-0.49877,9.68401-1.4c0.67101,0.73,0.507,1.337-0.3,1.812
	c-0.509,0.3-0.371,0.546,0.056,0.7c0.965,0.352,0.87801,0.923,0.476,1.676c-0.082,0.153,0.2,0.5,0.073,0.814
	c-0.27499,0.7,0.34599,0.3,0.537,0.387c0.254,0.12,0.714,0.023,0.707,0.4s-0.44299,0.39999-0.716,0.35001
	c-0.769-0.138-0.10699,0.26601-0.14799,0.38699c-0.2533,0.89647-0.25572,1.84524-0.007,2.74299
	c0.10001,0.45-0.243,0.72099-0.584,0.869c-0.8,0.35001-0.867,0.93201-0.7,1.67999c0.22701,1.028-0.10001,1.474-1.13699,1.515
	c-0.771,0.032-1.485,0.034-1.95599,0.834c-0.23752,0.36269-0.72408,0.46417-1.08678,0.22665
	c-0.0092-0.00603-0.01828-0.01225-0.02722-0.01866c-0.464-0.819,0-1.733-0.383-2.636c-0.62-1.47701-0.48599-1.54201-1.99001-1.547
	c-0.8,0-1.383-0.7-2.188-0.66901c-0.12886-0.8284-0.3824-1.6325-0.752-2.38499c-0.31599-1.08501,0.243-1.631,1.084-2.067
	c0.255-0.133,0.63499-0.187,0.481-0.619c-0.11798-0.33874-0.47293-0.53347-0.82201-0.451c-0.416,0.041-0.97301,0.137-1.043-0.375
	c-0.05582-0.54983,0.30498-1.05571,0.843-1.182c0.11188-0.03668,0.22833-0.05755,0.34599-0.062
	c-0.1133-0.00735-0.22701,0.00518-0.336,0.037c-0.14438,0.04857-0.29785,0.06395-0.44901,0.045
	c-0.18201-0.032-0.39999-0.071-0.42-0.3c-0.0042-0.17392,0.13339-0.31831,0.30731-0.3225
	c0.02406-0.00058,0.04813,0.0016,0.07169,0.0065c0.38699,0.062,0.39999-0.089,0.37801-0.446"/>
<path class="st11" d="M135.011,123.355c-2.20583-2.18164-4.01186-4.73331-5.336-7.539
	c0.12198-0.24774,0.39729-0.38024,0.66701-0.321c0.29765,0.09225,0.62083-0.01804,0.8-0.273
	c0.8009-1.11193,1.75041-2.10887,2.82201-2.963c0.364-0.237-0.10001-2.216-0.56799-2.675c-0.244-0.241-0.558-0.437-0.565-0.807
	c-0.013-0.689-0.02-1.352-0.83-1.647c-0.168-0.061-0.22701-0.3-0.2-0.5c0.01108-0.31071,0.20496-0.58544,0.494-0.7
	c0.034-0.014-0.214-0.121-0.22301-0.287c-0.02299-0.366,0.31799-0.484,0.47-0.728c0.46523-0.63296,0.7606-1.37452,0.858-2.154
	c0.02696-0.10117,0.09467-0.18662,0.187-0.236c0.564-0.121,0.786,0.264,1.05099,0.655c0.12399,0.187-0.032,0.742,0.5,0.507
	c0.34358-0.09959,0.54712-0.4528,0.461-0.8c-0.22-0.973,0.564-1.133,1.067-0.921c0.873,0.366,1.82899,0.239,2.66299,0.649
	c0.095,0.836,0.19299,1.671,0.289,2.508c-0.46719,0.23363-0.90663,0.5191-1.31,0.851c-0.20038,0.17372-0.43515,0.30321-0.689,0.38
	c-0.653,0.272-1.05299,0.443-1.187-0.114c-0.01401-0.06,0.2-0.355,0.118-0.353c-0.69856,0.05139-1.39482-0.12663-1.983-0.507
	c-0.31799-0.216-0.39999,0.13-0.33,0.448c0.24098,1.19926,0.57533,2.37785,1,3.525c0.06213,0.25933,0.24522,0.47293,0.492,0.574
	c0.95056,0.45977,1.83429,1.04646,2.627,1.744c0.52121,0.93659,0.77965,1.99662,0.748,3.068
	c-0.10899,0.684,0.69099,0.651,1.119,0.878c0.35699,0.189,0.96201,0,0.994,0.67c-0.01842,0.34972-0.23235,0.65919-0.55299,0.8
	c-1.79201,1.076-2.69,2.9-3.851,4.519c-0.48801,0.68-0.64999,1.74-1.8,1.749"/>
<path class="st15" d="M162.871,78.29601c0.339,0,0.67799,0,1.02,0c0.23599,0,0.575-0.095,0.5-0.322
	c-0.317-0.929,0.209-1.988-0.3-2.794c-0.464-0.739-1-1.6-2.2-1.458c-0.623,0.076-0.493-0.511-0.591-0.957
	c-0.159-0.709,0.323-0.329,0.5-0.37c0.672-0.148,1.245-0.3,0.55099-1.115c-0.186-0.218-0.14799-0.5,0.082-0.564
	c1.00999-0.268,0.992-1.205,1.326-1.915c3.91277,0.63975,7.60091,2.25629,10.72299,4.7c0.08134,1.43118-0.2442,2.85614-0.939,4.11
	c-1.80005,0.29028-3.52426,0.93617-5.07201,1.9c-0.26932,0.13006-0.56746,0.18893-0.866,0.171c-0.17799,0.188-0.457,0.22-0.642,0.4
	l-0.506,0.021c-0.33501-0.068-0.66,0.116-1,0.036c-0.18584-0.02193-0.36165-0.09614-0.507-0.214
	c-0.27499-0.272,0.373-0.461,0.132-0.545c-0.205-0.071-0.524,0.2-0.83,0.243c-0.883,0.116-1.3-0.491-1.7-1.089
	c-0.084-0.125,0.048-0.364,0.31599-0.23"/>
<path class="st16" d="M199.925,91.94c0.31799-0.261,1.166,0.618,1.121-0.562c-0.01199-0.27,0.746,0.273,1.061-0.236
	c0.10001-0.167,0.465-0.912,0.726,0.011c0.05099,0.175,0.55099-0.048,0.39999-0.219c-0.47099-0.529,0.42999-1.357-0.47501-1.773
	c-0.323-0.15,0.116-0.282,0.19099-0.293c0.60001-0.081,1.369-0.523,1.46201,0.62c0.009,0.118,0.089,0.33,0.286,0.268
	c0.04401-0.013,0.028-0.252,0.024-0.386c-0.024-0.537,0.213-0.664,0.707-0.5c0.25253,0.07728,0.51602,0.11275,0.78,0.105
	c0.978-0.01,2.028,0.257,2.783-0.679c-0.19365,3.14178-0.6801,6.25862-1.453,9.31c-0.30695,1.73095-0.78358,3.42747-1.423,5.065
	c-0.82401,0.6-1.81799,0.366-2.72701,0.513c-0.567,0.092-1.024-0.459-1.2-0.886c-0.25301-0.619,0.438-0.38,0.72301-0.508
	c0.10001-0.045,0.25-0.1,0.325-0.05c0.121,0.08,0.05701-0.157,0.045-0.007c-0.11157-0.00946-0.22394,0.00069-0.332,0.03
	c-0.48399,0.093-0.959,0.059-1.10001-0.494s0.314-0.786,0.739-0.982c0.70078-0.41139,1.35463-0.89793,1.95-1.451
	c-0.02936-0.08988-0.06755-0.17664-0.114-0.259c-0.69774-0.634-1.47696-1.17207-2.317-1.6
	c-1.42572-0.98544-2.96225-1.80002-4.578-2.427c-0.67293-0.18069-1.20331-0.69858-1.39999-1.367
	c-0.03687-0.26936-0.21219-0.49971-0.46201-0.607c-0.632-0.221-0.758-0.787-0.951-1.312l0.01401-0.229
	c0.621-0.073,1.274-0.878,1.862,0.154c0.121,0.212,0.5-0.207,0.75999-0.341c0.83701-0.437,1.03799-0.389,1.54201,0.446
	c0.237,0.391,0.54401,0.009,0.812,0.1c0.30701,0.1,0.73199,0.121,0.21899,0.544c-0.0356,0.04134-0.07475,0.07948-0.117,0.114
	c0.021-0.023,0.06-0.059,0.117-0.114"/>
<path class="st12" d="M169.01001,134.24699c0.519-0.062,0.946-0.05,1.084-0.826c0.105-0.58,1-0.416,1.5-0.47701
	c1.36-0.164,1.55701-0.21899,1.26401-1.388c-0.27257-0.61438,0.00452-1.3334,0.6189-1.60597
	c0.07587-0.03366,0.15498-0.05946,0.2361-0.07703c0.364-0.145,0.60001-0.35001,0.366-0.92599
	c-0.17039-0.65871-0.17416-1.34945-0.011-2.00999c0.039-0.3,0.22501-0.851-0.494-0.668
	c-0.13031,0.04727-0.27428-0.02005-0.32155-0.15036c-0.00583-0.01608-0.00999-0.03271-0.01245-0.04964
	c-0.011-0.205,0.18401-0.2,0.325-0.22301c0.517-0.077,1.05299,0.118,1.558-0.116c-0.491-0.257-1.021-0.05901-1.528-0.132
	c-0.14101-0.021-0.328,0.007-0.362-0.19099s0.16-0.2,0.28-0.277c0.55-0.344,0.814-0.669-0.07899-0.89
	c-0.153-0.038-0.433,0.064-0.353-0.243c0.022-0.089,0.241-0.157,0.377-0.18c0.34599-0.054,0.14999-0.148,0.26199-0.353
	c0.478-0.88-0.25101-0.743-0.658-0.893c0.119-0.289-0.688-0.566,0.06-0.916c0.62558-0.21882,0.95531-0.90334,0.7365-1.52892
	c-0.02364-0.06754-0.05325-0.13283-0.0885-0.19508c0.127-0.053,0.293-0.1,0.42101-0.151
	c0.16022-0.04158,0.31812-0.09165,0.47301-0.15c2.05713-0.88006,4.04134-1.92165,5.93401-3.115
	c-0.38499,0.741,0.52499,1.018,0.62,1.655c0.069,0.46,0.39999,0.662-0.218,1.01c-0.452,0.255-0.58501,0.767,0.27299,0.732
	l0.011,0.011c0.46899,0.421,0.5-0.248,0.776-0.322c0.14799-0.042,0.237-0.349,0.44299-0.1
	c0.11934,0.12276,0.11658,0.31902-0.00618,0.43836c-0.02159,0.02099-0.04611,0.03872-0.07281,0.05264
	c-0.73,0.314-1.37601,1.033-2.286,0.582c-0.218-0.107-0.519-0.263-0.55701-0.016c-0.09399,0.576-0.54601,1.144-0.218,1.729
	c0.181,0.325,0.47099,0.286,0.63901-0.132c0.07201-0.184,0.248-0.082,0.334,0.068s0.252,0.328,0.248,0.489
	c-0.007,0.286-0.282,0.148-0.42999,0.152c-0.72501,0.021-0.646,0.084-0.043,0.31c0.257,0.095,0.14799,0.27-0.084,0.361
	c-0.17999,0.069-0.444-0.115-0.54201,0.185c0.185,0.023,0.368,0.048,0.55299,0.066s0.368,0.031,0.55499,0.048
	c-0.02299,0.259-0.38901,0.158-0.39999,0.307c-0.04601,0.688-0.823,1.035-0.78999,1.753c0.009,0.17-0.16299,0.334,0,0.52299
	c0.18201,0.207,0.564-0.089,0.666,0.282c-0.336,0-0.73399,0.118-1-0.02c-0.561-0.3-1.061-0.758-0.80499,0.427
	c0.021,0.09399-0.15199,0.23399-0.24699,0.341c-0.924,1.044-0.951,1.47399-0.153,2.479
	c-0.44888-0.00812-0.89445-0.07845-1.32401-0.209c-0.29999-0.01636-0.60077-0.01102-0.89999,0.01601
	c0.09,0.373,0.459,0.179,0.675,0.325c0.39101,0.26401,0.03,0.248-0.075,0.39999c-0.187,0.26801-0.507,0.485-0.412,0.92101
	c0.03,0.136-0.541,0.423,0.13,0.373c0.33363-0.02643,0.62553,0.22263,0.65195,0.55627c0.00504,0.06363,0,0.12767-0.01495,0.18973
	c-0.10001,0.662-0.371-0.095-0.575,0.007c-0.164,0.082-0.472,0.13699-0.481,0.228c-0.125,1.2-0.93201,0.623-1.52299,0.61301
	c-0.22301,0-0.446,0.026-0.66901,0.039c0.04601,0.323,0.341,0.13,0.5,0.241s0.37801,0.30499,0.255,0.42999
	c-0.616,0.63699,0.14301,0.791,0.35699,1.13499c-1.84753,0.55464-3.76147,0.85738-5.69,0.89999
	c-0.435-0.679-0.53-1.313,0.23399-1.838"/>
<path class="st12" d="M193.82901,95.124c0.29399-1.28667,0.58833-2.57467,0.883-3.864c0.51601,0.882,1.54401,1.262,1.951,2.365
	c0.328,0.885,1.645,0.955,2.53101,1.324c1.836,0.759,3.29401,2.115,5.045,2.993c0.32771,0.13089,0.51913,0.47327,0.459,0.821
	c-0.077,0.093,0.086,0.029-0.011,0.077c0.11099-0.013-0.06799,0.014,0.013-0.075c0.33299,0.036,0.425,0.3,0.13901,0.387
	c-0.89999,0.279-1.34399,1.241-2.27699,1.439c-0.32401,0.069-0.61099,0.226-0.536,0.592c0.082,0.391,0.416,0.489,0.789,0.443
	c0.03644-0.00959,0.07217-0.02162,0.10699-0.036c0.35356-0.13628,0.74474-0.13877,1.10001-0.007
	c-0.254,0.437-0.687,0.328-1.08,0.373c-0.21899,0.025-0.746,0.1-0.56599,0.225c0.39999,0.282,0.60001,1.056,1.332,0.76
	c0.79041-0.16048,1.59364-0.24951,2.39999-0.266c-0.42203,1.79816-1.03415,3.54633-1.826,5.215c-0.185,0.109-0.382-0.059-0.537,0
	c-0.17599,0.068,0.02901,0.041,0.045,0.059c0.369,0.439,0.332,0.5-0.461,0.837c-0.435-0.016-0.89999,0.036-1.12601-0.471
	c-0.38499-0.441-0.05901-0.791,0.145-1.157c-0.44095,0.12233-0.91235,0.06592-1.312-0.157
	c-0.839-0.50764-1.24074-1.5093-0.985-2.456c0.048-0.228,0.00999-0.091-0.054-0.148c-0.26971-0.20866-0.58862-0.34435-0.92599-0.394
	c-0.207-0.05-0.487-0.077-0.47301-0.377c0.009-0.214,0.23199-0.273,0.39999-0.355c0.32899-0.166,0.761-0.257,0.72701-0.746
	c-0.02901-0.4-0.407-0.5-0.7-0.671c-0.43401-0.248-0.64999,0-0.93201,0.321c-0.61,0.689-1.133,0.616-1.533-0.185
	c-0.25706-0.55398-0.80003-0.91981-1.41-0.95c-0.3-0.032-0.646-0.014-0.737-0.387c-0.086-0.354,0.186-0.578,0.436-0.723
	c0.487-0.282,0.25999-0.323-0.08299-0.462c-0.35559-0.21035-0.72864-0.38969-1.11501-0.536c-0.23199-0.053-0.42999-0.189-0.38-0.471
	c0.03096-0.19815,0.19949-0.34562,0.39999-0.35c0.58,0.013,0.92999-0.2,0.97301-0.812c0.10001-0.041,0.19299,0.123,0.26199,0.058
	s-0.123-0.12-0.08-0.225c0.01906-0.14923,0.13919-0.26521,0.289-0.279c-0.077-0.1-0.146,0-0.209,0.018
	c-0.49677,0.19741-1.06415,0.03271-1.37801-0.4c0.00282-0.39072,0.101-0.77484,0.286-1.119L193.82901,95.124z"/>
<path class="st17" d="M162.871,78.29601c-0.03101,0.02-0.084,0.036-0.091,0.064c-0.15199,0.527,0.935,0.211,0.59399,0.871
	c0.535,0.163,1.08501,0.325,1.54201-0.151c0.328-0.341,0.571-0.293,0.80499,0.069c0.27299,0.423-0.2,0.327-0.33701,0.466
	c-0.07755,0.06693-0.16281,0.12434-0.254,0.171c0.12334,0.04395,0.24924,0.08035,0.377,0.109c0.321,0.056,0.689-0.128,0.95399,0.2
	c-0.44254,0.3199-0.82593,0.71447-1.133,1.166c-5.01431-2.01768-10.67245-1.65701-15.39,0.981
	c-1.60381,0.99609-3.07689,2.18866-4.38499,3.55c-0.91655-0.30539-1.44846-1.25986-1.226-2.2
	c0.05832-0.37083,0.00252-0.75062-0.16-1.089c-0.33633-0.65611-0.07712-1.46066,0.57901-1.797
	c0.16652-0.08537,0.34914-0.13477,0.536-0.145c0.755-0.146,1.112-0.974,1.883-1.1c0.04828-0.08729,0.0598-0.19021,0.032-0.286
	c-0.32806-0.55861-0.35876-1.24328-0.082-1.829c0.077-0.277-0.15401-0.387-0.39999-0.421
	c-0.12564-0.11549-0.13388-0.31096-0.0184-0.43661c0.00587-0.00639,0.01201-0.01252,0.0184-0.01839
	c0.437-0.011,0.5-0.386,0.66499-0.673c0.16299-0.711,0.72099-0.48,1.17599-0.493c0.5202,0.11227,0.89981,0.5604,0.92502,1.09198
	c0.127,0.892,0.582,1.049,1.39999,0.614c0.233-0.123,0.5-0.347,0.72301-0.24c0.909,0.429,1.243-0.292,1.7-0.776
	c1.20599-0.225,2.07201,0.687,2.923,1.174c0.974,0.59111,2.196,0.59111,3.17,0c0.78336-0.63512,1.93324-0.51496,2.56837,0.26839
	c0.05206,0.06423,0.09972,0.13193,0.14262,0.20261c0.22839,0.24516,0.48215,0.46539,0.757,0.657"/>
<path class="st18" d="M173.54501,77.607c0.21051-1.39148,0.52336-2.76554,0.93599-4.111
	c3.71921,2.63943,6.22823,6.65679,6.968,11.157c-0.343,0.128-0.76801,0.087-0.98,0.484
	c-0.06837,0.07641-0.14635,0.14363-0.23199,0.2c-0.53235,0.39708-1.19623,0.57592-1.856,0.5c0.28,0.977-0.828,0.9-1.13,1.457
	c-0.146,0.267-0.59399,0.312-0.937,0.319c-0.37149,0.00271-0.71887,0.18441-0.933,0.488
	c-0.60843,0.68507-1.65701,0.74719-2.34207,0.13876c-0.05853-0.05199-0.11331-0.10805-0.16393-0.16776
	c-0.14378-0.90162-0.02435-1.82558,0.34399-2.661c0.11258-0.20217,0.13544-0.44222,0.063-0.662
	c-1.14799-2.433,0.125-4.769,0.25999-7.148"/>
<path class="st12" d="M171.957,91.47601c0.58299,0.114,0.814-0.341,1.11-0.689c0.575,0.227,0.575,0.227,0.48199,1.394
	c-0.056,0.034-0.168,0.082-0.16299,0.114c0.013,0.086,0.14301,0.045,0.2,0.116c0.10001,0.125,0.2,0.323,0.12199,0.416
	c-0.83501,1.05-0.491,2.354-0.76401,3.523c-0.153,0.65-0.58501,0.639-1.019,0.611c-0.341-0.022-1,0.155-0.707-0.632
	c0.02699-0.075,0.091-0.141,0.013-0.154c-0.1158-0.02824-0.23553,0.0285-0.287,0.136c-0.25,0.907-0.65199,1.553-1.75301,1.108
	c-0.10899,0.391-0.416,0.7-0.53,1.067c-0.10001,0.345,0.314,0.177,0.476,0.279c0.98569,0.57336,2.19205,0.61873,3.218,0.121
	c0.79045-0.41496,1.75893-0.26746,2.39,0.364c-2.64986,1.59928-5.55476,2.73141-8.588,3.347
	c-1.64285,0.43388-3.32965,0.67979-5.028,0.733c-0.37198,0.07986-0.76035,0.01894-1.09-0.171c0.55099-0.818,0.48199-1.856,0.951-2.7
	c0.18201-0.329-0.01601-1.189,0.851-0.645c0.10001,0.061,0.222-0.053,0.186-0.176c-0.084-0.271-0.06599-0.625-0.5-0.651
	c-0.164-0.009-0.36301,0.071-0.48199-0.126c0.15884-0.09157,0.32632-0.16727,0.5-0.226
	c1.21162-0.19231,2.21071-1.05244,2.58099-2.222c0.134-0.395,0.466-1.014,1.12399-0.38c0.44099,0.426,0.748,0.007,0.841-0.325
	c0.2-0.712,0.71001-0.68,1.192-0.557c1.04601,0.271,1.48-0.369,1.66901-1.162c0.121-0.512,0.27299-0.723,0.785-0.7
	c0.18697,0.01273,0.37236-0.04151,0.52299-0.153c0.578-0.529,1.12601-1.091,1.685-1.642L171.957,91.47601z"/>
<path class="st16" d="M174.74101,99.25201c-1.02797-0.36195-2.15674-0.3074-3.145,0.152c-0.597,0.37232-1.36295,0.33238-1.918-0.1
	c-0.061-0.043-0.116-0.12-0.18201-0.132c-1.039-0.154-1.923-0.361-0.629-1.5c0.02499-0.021-0.119-0.239-0.192-0.362
	c-0.10001-0.175-0.16299-0.361,0.037-0.493s0.31599-0.007,0.47501,0.132c0.707,0.623,1.162,0.443,1.40601-0.548
	c0.13901-0.564,0.31599-0.964,0.927-0.4c0.071,0.063,0.16701,0.113,0.20799,0.193c0.123,0.223-0.91901,0.18-0.155,0.487
	c0.42,0.168,1.12399,0.249,1.08501-0.669c0.02017-0.36784,0.09048-0.73119,0.209-1.08c0.02299-0.089,0.507-0.2,0.03799-0.239
	c-1.218-0.1-0.345-0.573-0.168-0.855c0.287-0.453,1.119-0.667,0.576-1.447c-0.06599-0.048-0.089-0.095-0.06599-0.143
	s0.043-0.07,0.06599-0.07c-0.14999-0.451,0.5-1.047-0.248-1.388c-0.24129-0.88202-0.30486-1.8032-0.187-2.71
	c0.994,0.6,1.981,0.356,2.327-0.6c0.12801-0.353,0.31599-0.166,0.519-0.153c0.7,0.05,1.453,0.2,1.714-0.761
	c0.089-0.328,0.33701-0.167,0.548-0.164c0.31,0,0.39999-0.2,0.2-0.43c-0.09399-0.107-0.439,0.075-0.41901-0.2
	c0.01601-0.207,0.3-0.226,0.46899-0.185c0.78799,0.2,1.412-0.323,2.12399-0.462l0,0c0.01401-0.976,0.55499-0.7,1.08299-0.459
	c0.15645,0.75342,0.22058,1.52308,0.19099,2.292c-0.05901,0.314,0,0.637-0.06599,0.951c-0.009,0.125-0.01801,0.248-0.02901,0.373
	c0.03839,0.08891,0.03053,0.19101-0.021,0.273c-0.13255,1.97881-0.68623,3.90647-1.62399,5.654
	c-0.31772-0.12333-0.51718-0.44019-0.491-0.78c0-0.257-0.18401-0.266-0.384-0.217c-0.09843,0.02163-0.19951,0.0287-0.3,0.021
	c-0.40453-0.11594-0.74342-0.39336-0.937-0.767c-0.38043-0.62859-1.14011-0.91728-1.842-0.7
	c-0.57875,0.00671-1.0425,0.48132-1.03578,1.06008c0.00233,0.20142,0.06267,0.3979,0.17378,0.56592
	c0.446,0.71,0.084,1.469,0.282,2.2c0.2753,0.97366,0.43935,1.97539,0.489,2.986c-0.30447,0.321-0.68689,0.55769-1.11,0.687"/>
<path class="st19" d="M139.332,102.616c-0.5522,0.08307-1.1115,0.10887-1.66901,0.077c-0.5-0.077-0.8-0.757-1.492-0.525
	c-1.037,0.347,0.39101,1.054-0.25,1.428c-0.37801,0.22-0.75101,0.6-1.13699,0.614s-0.21201-0.537-0.314-0.826
	c-0.10663-0.44103-0.50127-0.75179-0.955-0.752l0,0c0.10776,0.95731-0.18544,1.91653-0.81,2.65
	c-0.03101,0.05-0.134,0.068-0.207,0.081c-0.616,0.11,0.658,0.537-0.222,0.931c-0.774,0.344-0.08501,0.839,0.589,0.909
	c0.513,0.055,0.243,0.405,0.22501,0.683c-0.039,0.573-0.237,1.176,0.584,1.492c0.41701,0.159,0.51401,0.707,0.51601,1.182
	c-0.01131,0.26333-0.00194,0.52714,0.028,0.789c0.05701,0.342,0.991,0.587,0.036,1.047c-0.418,0.2-0.466,0.967-1.14799,0.935
	c-0.321-0.016-0.43201,0.186-0.54401,0.459c-0.33333,1.29566-1.55908,2.15678-2.89101,2.031
	c-1.10329-1.90912-1.92065-3.9697-2.426-6.116c0.99242-0.61504,2.20846-0.75231,3.31301-0.374c0.92799,0.218,1.258-0.183,0.981-1.1
	c-0.09587-0.72336-0.52425-1.36036-1.158-1.722c-0.3-0.134-0.271-0.423-0.282-0.686c0.621-0.605,0.623-0.822,0-1.145
	c-0.086-0.045-0.31799-0.2-0.10001-0.165c0.91901,0.134,0.57401-1.292,1.472-1.113c0.19299,0.039,0.237-0.159,0.17999-0.311
	c-0.30499-0.812,0.355-0.942,0.83299-1.035c0.77-0.152,1.38901-0.2,0.668-1.208c-0.246-0.343,0.44299-0.527,0.55901-0.5
	c0.88548,0.32082,1.87279,0.17704,2.63-0.383c0.10001-0.093,0.425,0.048,0.64101,0.1c0.384,0.094,0.76601,0.2,0.853-0.375l0,0
	c0.72301,0.266,0.72099-0.192,0.68401-0.685c0.31599,0,0.633,0.007,0.951,0.011c-0.041,0.674-0.084,1.347-0.125,2.022
	c-0.13365,0.11308-0.15033,0.3131-0.03725,0.44675c0.01137,0.01343,0.02382,0.02589,0.03725,0.03725
	c0,0.372-0.006,0.742-0.009,1.111"/>
<path class="st20" d="M206.08801,63.773c-0.576,0.37001-1.035,0.973-1.83099,0.889l-0.02-0.021
	c-0.487-0.427-0.508-1.118-0.94701-1.60501c-0.243-0.271-0.386-0.756-0.761-0.512c-0.33701,0.218-0.89999,0.527-0.58701,1.164
	c0.364,0.735,0.125,1.53801,0.248,2.307s-0.15199,1.276-1.10001,0.989c-0.29683-0.05333-0.5988-0.07246-0.89999-0.057
	c-0.14999-0.009-0.3-0.021-0.45-0.032c0.27901-1.3-1.5-0.336-1.565-1.408c-0.01401-0.23-0.856-0.286-1.2-0.009
	c-0.125,0.1,0.248,0.533,0.521,0.755c0.541,0.444,0.439,1.276,0.97501,1.74c-0.48286,0.43241-1.09019,0.7009-1.735,0.767
	c-0.52299,0.018-1.048,0-1.571-0.007c-0.34999-1.81267-0.69933-3.62466-1.048-5.436c0.927-0.373,1.48-1.244,2.342-1.737
	c0.53867-0.40076,1.20822-0.58457,1.87601-0.515c0.88901,0.153,0.619-0.313,0.369-0.748c-0.034-0.343-0.162-0.181-0.285-0.049
	c-0.34781,0.10568-0.71956-0.06642-0.864-0.4c0.19299-1.039,0.951-0.677,1.467-0.475c0.56178,0.20943,1.11015,0.45322,1.642,0.73
	c0.89886,0.51525,2.00433,0.51182,2.89999-0.009c0.814-0.059,1.5,0.05,1.64,1.067c0.02995,0.20772,0.22263,0.35183,0.43034,0.32187
	c0.06943-0.01001,0.13472-0.03904,0.18866-0.08387c1.39999-1.2,0.907,0.317,1.144,0.778
	c-0.03363,0.06709-0.10297,0.10877-0.17799,0.107c0.04977,0.06014,0.07063,0.13912,0.05701,0.216
	c-0.05481,0.11187-0.13329,0.21049-0.23,0.289c-0.08357,0.09299-0.13602,0.20975-0.14999,0.334
	c0.00148,0.13651-0.02225,0.27211-0.07001,0.4c-0.04532,0.08111-0.10736,0.15167-0.18201,0.207
	c-0.04601,0.014-0.089,0.03-0.132,0.046"/>
<path class="st7" d="M169.01001,134.24699c-0.39101,0.57201-0.2,1.21899-0.237,1.838c-0.229,0.045-0.50999,0.07899-0.739,0.12399
	c-0.162,0.01199-0.2,0.02499-0.407,0.03c-0.14799,0.007-0.3,0.011-0.446,0.01801h-0.368l-0.252-0.03
	c0.127-0.347-0.306-0.94099,0.491-1.127c0.118-0.028,0.09-0.162-0.242-0.17599c-0.37749-0.028-0.75652-0.028-1.134,0
	c-0.617,0.07001-0.96899-0.33-0.79201-0.767c0.207-0.507-1.021-1.02299,0.075-1.42101c0.12801-0.04601-0.009-0.239-0.168-0.30499
	c-1.62399-0.686-1.97-2.133-2.179-3.66299c-0.382-1.34199-0.582-2.75999-1.576-3.85099l-0.009-0.011
	c-0.644-0.585-1.41-1.074-1.58099-2.027l-0.01801-0.023c-0.84801-0.955-0.84801-1.078,0.01601-1.842
	c1.58667,0.10466,3.174,0.21,4.76199,0.316c-0.231,0.2,0.67799,0.43-0.011,0.617c-0.207,0.054-0.62801-0.041-0.60001,0.106
	c0.05901,0.287,0.42101,0.094,0.64799,0.13c0.284,0.046,0.57401,0.064,0.86,0.091c-0.194,0.264-0.5,0.148-0.73199,0.168
	c-0.642,0.055-0.539,0.71-0.839,1.031c-0.17101,0.182,0.35001,0.293,0.634,0.209c0.39301-0.114,0.783-0.312,1.132,0.107
	c0.60001,0.726,0.517,1.051-0.388,1.378c-1.067,0.387-1.278,1.22401-0.78101,2.577c0.13499,0.36799,0.908,0.682,0.244,1.24799
	c-0.064,0.05499,0.116,0.407,0.321,0.373c1.01801-0.172,1.924,1,3,0.233c0.155-0.112,0.5,0.077,0.54401,0.3
	c0.27,1.257,1.27499,2.36099,0.80701,3.77901c-0.03601,0.18605-0.05043,0.37564-0.043,0.565"/>
<path class="st19" d="M135.011,123.355c0.66898-0.42081,1.19258-1.03691,1.5-1.765c0.84785-1.438,1.83456-2.78946,2.946-4.035
	c0.457-0.522,1.33701-0.518,1.565-1.3c0.13344-0.1109,0.29964-0.17485,0.47301-0.182c0.17537-0.00072,0.34061,0.08208,0.44501,0.223
	c0,2.7-0.075,5.412,0.017,8.115c-0.05887,1.27477,0.1268,2.54903,0.547,3.754c0.25639,0.44235,0.17844,1.00247-0.189,1.358
	c-2.75293-1.64768-5.2206-3.73069-7.30701-6.16799"/>
<path class="st21" d="M203.56601,60.096c-0.437,0.791-1.73599,0.948-2.825,0.42c-0.79445-0.48532-1.66139-0.84047-2.56799-1.052
	c-0.338-0.048-0.5,0.082-0.53,0.405c-0.09825,0.11036-0.25238,0.15232-0.39301,0.107c-0.10899-0.144-0.21899-0.173-0.325,0
	c-0.12337,0.05032-0.26074,0.05458-0.38699,0.012c-0.039-0.05-0.136-0.1-0.14799-0.075c-0.032,0.068,0.062,0.125,0.06599,0.2
	c-0.50026,0.98479-1.70413,1.37757-2.68892,0.87731c-0.09425-0.04788-0.18457-0.10316-0.27008-0.16531l0.007-0.005
	c-0.052-0.165-0.039-0.35-0.157-0.493c-0.31999-0.896-0.63968-1.79267-0.959-2.69c0.455-1.086,1.592-1.363,2.474-1.69
	c0.586-0.219,1.562,0.35,1.858,1.28c0.10699,0.337,1.75301,0.744,1.91499,0.469c0.19299-0.33-0.05-0.583-0.31-0.737
	c-0.73692-0.38922-1.0188-1.30215-0.62956-2.03907c0.01907-0.03613,0.03961-0.07147,0.06157-0.10593
	c0.35899-0.764-0.3-1.337-0.173-2.04c0.05499-0.289-0.064-0.637,0.285-0.751c0.257-0.084,0.368,0.18,0.452,0.4
	c0.271,0.7,0.619,0.254,0.957,0.066c0.282-0.157,0.653-0.239,0.83299,0.034c0.26601,0.4-0.25,0.457-0.435,0.6
	c-0.332,0.261-0.718,0.434-0.636,0.959c0.086,0.549,0.57001,0.578,0.94299,0.674c0.92755,0.12268,1.65515,0.85644,1.77,1.785
	c0.14999,1.083,1.46001,0.807,1.87199,1.6c0.05,0.1,0.48199,0.1,0.213,0.291c-0.67999,0.494-0.261,1.1-0.272,1.656"/>
<path class="st16" d="M194.92101,97.396c-0.134,0.817-0.739,0.928-1.414,1.042c-0.16,0.027,0.056,0.344,0.24699,0.275
	c0.38-0.136,0.55,0.15,0.787,0.3c0.79401,0.528,0.79201,0.53,0.189,1.34c-0.05247,0.08733-0.09508,0.18024-0.127,0.277
	c0.129,0.052,0.26601,0.159,0.38901,0.146c1.028-0.105,1.755,0.165,1.842,1.348c0.01801,0.241,0.23801,0.246,0.43201,0.259
	c0.31026,0.05326,0.60497-0.15508,0.65822-0.46535c0.00026-0.00155,0.00052-0.00311,0.00078-0.00465
	c0.112-0.364,0.371-0.858,0.771-0.585c0.494,0.334,1.32201,0.291,1.44901,1.085c0.112,0.693-0.39999,0.907-0.91901,1.085
	c-0.134,0.045-0.271,0.091-0.405,0.134c0.112,0.216,0.31599,0.121,0.467,0.109c0.41893-0.09611,0.84326,0.13757,0.98599,0.543
	c0.076,0.185,0.74699,0.29-0.03101,0.414c-0.23,0.037-0.189,0.141-0.089,0.385c0.42799,1.037,0.77299,2.1,2.24699,1.86
	c0.25301-0.041,0.342,0.073,0.14999,0.307c-0.24997,0.29079-0.37503,0.6685-0.34801,1.051
	c-1.43263-0.42646-2.72818-1.22164-3.757-2.306c-0.60234-0.7672-1.44106-1.31416-2.386-1.556
	c-1.66515-0.36858-3.26559-0.98477-4.748-1.828c0.73732-2.05201,1.47333-4.10433,2.20799-6.157c0.51199,0.087,1,0.4,1.547,0.168
	c0.215-0.09,0.51601-0.184,0.55901,0.1c0.05,0.327-0.366,0.118-0.5,0.269c-0.08455,0.1226-0.15343,0.25529-0.205,0.395"/>
<path class="st8" d="M134.20601,58.915c-0.31799-0.79-0.494-1.672-1.485-1.965c-0.353-0.105-0.3-0.462-0.35699-0.76
	c-0.27299-1.362-0.507-2.747-1.952-3.468c-0.23604-0.1202-0.41087-0.33385-0.48199-0.589
	c0.01668-0.50009-0.37521-0.91901-0.87531-0.93568c-0.05069-0.00169-0.10143,0.00088-0.15169,0.00768
	c-0.464-0.014-0.537-0.455-0.612-0.831c2.576,0.087,5.16,0.076,7.72501,0.39c0.578,1,0.02299,1.735-0.548,2.494
	c-0.17999,0.242-0.882,0.728,0.153,0.817c0.15775,0.02565,0.27705,0.15656,0.28799,0.316c0.041,1.151,1.08701,1.763,1.45599,2.745
	c0.207,0.553,0.45,1.044,0.01199,1.574c-1.03619,0.25801-2.11061,0.32577-3.17101,0.2"/>
<path class="st9" d="M168.06801,29.628c-0.15199,0-0.30499,0.012-0.455,0c-0.459-0.043-1.3,0.366-0.69099-0.78
	c0.517-0.98-0.616-1.376-1.049-2c-0.189-0.276-0.85001-0.412,0.007-0.637c0.08501-0.023,0.23199-0.175,0.11-0.16
	c-0.785,0.1,0.36301-0.866-0.42799-0.739c-0.30124,0.03649-0.60576,0.03649-0.907,0c-0.2-0.016-0.508,0.173-0.347-0.385
	c0.22023-0.54956-0.04674-1.17361-0.5963-1.39384c-0.10275-0.04118-0.21127-0.0662-0.3217-0.07416
	c-0.38901-0.066-0.31799-0.474-0.45-0.726s-0.16901-0.573-0.576-0.6c-0.26801-0.019-0.707,0.159-0.759-0.262
	c-0.05701-0.439,0.30701-0.646,0.714-0.732c0.291,0.054,0.60899,0.031,0.834,0.279c-0.093,0.144-0.23801,0.14-0.384,0.132
	c0.052,0.039,0.14999,0,0.17101,0.046c0.47099,0.882,0.11099-0.469,0.37-0.136c0.70988,0.13983,1.39816,0.37284,2.047,0.693
	c0.32552,0.17394,0.67201,0.30535,1.03101,0.391c2.37976,0.74771,4.69611,1.68401,6.927,2.8c0.28,0.446-0.082,0.567-0.366,0.726
	c-0.10669,0.02698-0.21986,0.00175-0.30499-0.068c-0.52075-0.06295-1.0361,0.1533-1.356,0.569
	c-1.02699,1.059-2.14101,2.043-3.22,3.06"/>
<path class="st6" d="M138.272,111.742c-0.30701,0-0.623-0.02-0.8-0.318c-0.15678-0.2607-0.39821-0.45976-0.68401-0.564
	c-2.043-0.8-2.509-2.493-2.573-4.437c0-0.153-0.186-0.293-0.27-0.448c-0.164-0.3-0.351-0.635-0.064-0.935
	c0.22952-0.22107,0.59479-0.21423,0.81586,0.01529c0.00308,0.0032,0.00613,0.00644,0.00914,0.00971
	c0.60001,0.68,1.53999,0.261,2.19099,0.732c0.213,0.155,0.23399,0.157,0.06799,0.235s-0.382-0.071-0.494,0.159
	c0.2123,0.05538,0.43295,0.07131,0.651,0.047c0.414-0.136,1.089-0.281,1.151-0.543c0.218-0.925,0.89101-0.423,1.342-0.571
	c0.41531,2.16721,1.20551,4.24535,2.33501,6.141c-0.49051,0.29464-1.08905,0.34808-1.62399,0.145
	c-0.70288-0.1441-1.4342-0.02601-2.056,0.332"/>
<path class="st22" d="M148.76901,75.55601c-0.464,0.086-0.992-0.182-1.39999,0.246c-0.03763-0.0025-0.07538-0.0025-0.11301,0
	c-0.735,0.077-1.924,0.518-2.10001,0.079c-0.35611-0.80788-0.42973-1.71216-0.209-2.567c0.118-0.374,0.22701-0.567-0.255-0.469
	c-0.694,0.141-0.828-0.769-1.453-0.714c2.0712-1.22422,4.31409-2.13129,6.65401-2.691c0.16,0.765,0.69,1.417,0.685,2.231
	c0.02699,1.592-0.23199,3.046-1.81,3.885"/>
<path class="st9" d="M137.38101,58.714c0.06816-1.09875-0.42026-2.15823-1.3-2.82c-0.29703-0.301-0.43294-0.72546-0.366-1.143
	c0.007-0.656-0.22099-0.637-0.662-0.376c-0.15199,0.089-0.30701,0.3-0.48199,0.107s0.06799-0.327,0.14101-0.487
	c0.15598-0.46526,0.42462-0.88472,0.782-1.221c0.683-0.53,0.371-1.333,0.533-2.006l2.3,0.1c0.577-0.025,0.506,0.589,0.8,0.81
	c0.519,0.393,0.162,1.512,1.224,1.434c0.10001-0.006,0.186,0.258,0.14301,0.394c-0.11404,0.70454-0.16956,1.4173-0.166,2.131
	c-0.08701,0.578-0.39999,1.126-0.009,1.74c0.216,0.341-0.30701,0.446-0.42101,0.7c-0.76007,0.45021-1.63435,0.67044-2.517,0.634"/>
<path class="st16" d="M187.88101,118.315c-1.69331-0.46895-3.14394-1.56622-4.056-3.068c-0.211-0.368,0.01401-0.816-0.373-1.062
	l1.515-1.54c1.245,0.239,2.39101,0.526,2.855,2c0.136,0.432,0.909,0.6,1.48399,0.568c0.233-0.011,0.474-0.083,0.631,0.1
	c0.186,0.218,0.66901,0.17,0.621,0.478c-0.08586,0.30277-0.37086,0.50498-0.685,0.486c-0.134,0-0.312-0.057-0.39999,0.127
	c0.12437,0.05131,0.25531,0.08496,0.38901,0.1c0.80499-0.036,1.53799,0.476,2.435,0.059c0.66701-0.309,0.95599,0.126,0.89999,1
	c-0.02699,0.415-1.24001,0.361-0.321,0.916c-0.10063,0.03029-0.2032,0.05367-0.30701,0.07c-0.34801,0.039-0.51801-0.168-0.72-0.427
	c-0.47099-0.609-0.453-0.535-1.086-0.075c-0.31969,0.31136-0.83124,0.3046-1.14258-0.01508
	c-0.01439-0.01477-0.02821-0.03009-0.04143-0.04592c-0.89999-0.874-1.467-0.7-1.7,0.336"/>
<path class="st7" d="M175.858,98.563c-0.53587-1.3467-0.83069-2.77716-0.871-4.226c-0.01601-0.175,0.138-0.5,0.088-0.523
	c-0.868-0.478-0.468-0.992-0.30499-1.722c0.144-0.636,0.362-0.541,0.746-0.616c1.07225-0.37867,2.25854,0.10184,2.765,1.12
	c0.12027,0.28786,0.39815,0.47846,0.71001,0.487l0.013-0.016c0.308-0.5,0.644-0.582,0.683,0.1
	c0.01157,0.35345,0.08292,0.70238,0.211,1.032c-0.84175,1.85288-2.25992,3.384-4.043,4.365"/>
<path class="st17" d="M138.272,111.742c0.769-1.469,2.022-0.327,3.02299-0.552c0.22227-0.01081,0.44484,0.01452,0.659,0.075
	c0.754,0.90933,1.507,1.81833,2.259,2.727c-0.43431,0.22375-0.69235,0.68587-0.655,1.173c-0.032,0.1-0.114,0.228-0.084,0.308
	c0.089,0.224,0.5-0.006,0.5,0.281c0,0.087-0.377,0.191-0.593,0.241c-0.18434,0.02377-0.37056,0.02947-0.556,0.017
	c-0.57001-0.615-0.877,0.356-1.369,0.229l-0.43401,0.012c-0.54524-0.26026-1.11203-0.47272-1.694-0.635
	c-0.5-0.1-0.664-0.355-0.571-0.76c0.22025-0.84279,0.05701-1.73981-0.446-2.451c-0.10699-0.158-0.02901-0.439-0.039-0.665"/>
<path class="st19" d="M135.8,91.938c0.00726,0.07499,0.00491,0.1506-0.007,0.225c-0.161,0.557,0.537,1.307-0.168,1.642
	c-0.3,0.141-0.55701-0.642-0.83-1.008c-0.10464-0.1645-0.32281-0.21301-0.4873-0.10838
	c-0.03918,0.02493-0.07306,0.05733-0.0997,0.09538c-0.55701,1.048-1.451,0.45-1.95799,0.2c-0.694-0.344-1.435-0.471-2.12399-0.776
	c-0.134-0.059-0.38901-0.011-0.42999-0.091c-0.548-1.1-1.328-0.905-2.172-0.42c0.075-0.3,0.15199-0.6,0.23-0.9
	c-0.03209-0.07758,0.00479-0.16647,0.08237-0.19855c0.00121-0.0005,0.00241-0.00098,0.00363-0.00144
	c0.11208-0.651,0.33858-1.277,0.66901-1.849c1.42101,0.643,2.60001,1.849,4.29401,1.86
	c0.08513,0.05766,0.15985,0.12934,0.22099,0.212c0.211,0.675,0.85899,0.577,1.34801,0.762c0.14999,0.195,0.284,0.131,0.414-0.028
	c0.31963-0.13388,0.68437-0.10404,0.978,0.08c0.09125,0.07589,0.10707,0.20995,0.036,0.305"/>
<path class="st8" d="M139.892,58.078c0.286-0.655-0.46899-1.324-0.034-1.938c0.591-0.835-0.161-1.86,0.448-2.67
	c0.02901-0.039-0.02299-0.139-0.037-0.212c-1.118,0.617-0.7-0.434-1-0.816c-0.39-0.5-0.487-1.151-0.95399-1.578
	c1.55252-0.16896,3.05035,0.62914,3.776,2.012c1.189,2.156,0.261,4.34-2.2,5.2"/>
<path class="st15" d="M196.28601,72.381c0.173,0.386,0.218,0.921,0.64799,1.067c0.536,0.181,0.26601,0.357,0.127,0.618
	c-0.1118,0.24889-0.20441,0.50598-0.27699,0.769c0.5-0.164,0.67999,0.723,1.289,0.338c0.55-0.348,1.04201,0.331,1.62601,0.239
	c0.14999-0.022,0.146,0.289,0,0.316c-0.789,0.146-0.46899,0.931-0.681,1.356s0.422-0.066,0.653,0.059
	c0.07887,0.00415,0.13943,0.07145,0.13528,0.15031c-0.00078,0.01496-0.00392,0.0297-0.00928,0.04369
	c-0.075,0.131-0.214,0.177-0.332,0.254c-0.40602,0.31562-0.86719,0.55299-1.36,0.7c-0.728,0.4-1.452,0.851-2.27901,0.216
	c-0.076-1.812-0.15199-3.62434-0.228-5.437c0.37601-0.081,0.407-0.51,0.692-0.685"/>
<path class="st9" d="M107.581,49.742c0.073,0.421,0.145,0.844,0.218,1.265c-0.71959,0.30743-1.52406,0.35342-2.274,0.13
	c-0.58-0.18-0.8-0.016-0.919,0.55c-0.03642,0.56812-0.36658,1.07608-0.871,1.34c-0.85246,0.10582-1.7139-0.10793-2.418-0.6
	c-0.252-0.214-0.7-0.457-0.095-0.8c0.152-0.087,0.193-0.246,0-0.332c-0.14194-0.04118-0.28833-0.06501-0.436-0.071
	c-0.141-0.023-0.371-0.016-0.334-0.2s0.24-0.045,0.375-0.041c0.37,0.009,0.832,0.112,0.971-0.339s-0.348-0.468-0.612-0.641
	c-0.1-0.066-0.123-0.253-0.179-0.385c2.192-0.01,4.386-0.045,6.577,0.123"/>
<path class="st16" d="M195.819,78.506c0.76501,0.00515,1.52858-0.06721,2.27901-0.216c-0.03799,0.284-0.85899,0.868,0.271,0.707
	c0.06599-0.009,0.2,0.041,0.2,0.064c0.07066,0.87281,0.06532,1.75011-0.01601,2.622c-0.127,0.71-0.687,0.439-1.089,0.468
	c-0.567,0.041-1.13499,0.017-1.7,0.021c-0.00116-0.05672,0.00592-0.11331,0.021-0.168c0.02501-0.25954,0.03569-0.52028,0.032-0.781
	c-0.00002-0.90533-0.00002-1.811,0-2.717"/>
<path class="st4" d="M193.5,60.828c0.709,0.181,1.489,0.666,1.881-0.467c0.047-0.139,0.16299-0.189,0.354-0.114
	c0.42799,0.167,0.437,0.142,0.55099-0.373c0.0379-0.06739,0.12326-0.09129,0.19066-0.05339
	c0.01596,0.00898,0.03,0.021,0.04134,0.03539h0.44299c0.07185-0.06357,0.18094-0.05961,0.248,0.009h0.439
	c0.27283,0.17674,0.59741,0.25603,0.92101,0.225c0.05624-0.0593,0.14993-0.06178,0.20923-0.00553
	c0.00417,0.00394,0.00809,0.00813,0.01176,0.01253c0.261,0.327,0.88499,0.509,0.62,1.059c-0.265,0.55-0.752,0.26-1.17799,0.153
	c-0.577-0.146-1.146-0.146-1.459,0.471c-0.10901,0.24207-0.35963,0.38826-0.62399,0.364c-0.295,0.007-0.493-0.1-0.539,0.464
	c-0.05499,0.673-0.955,0.488-1.487,0.684c-0.214-0.823-0.41901-1.644-0.623-2.467"/>
<path class="st16" d="M192.65401,125.152c-0.10001-0.227-1.056,0.455-0.494-0.467c0.01801-0.029,0.034-0.063,0.05-0.095
	c-1.319-0.25-0.345-1.608-1.039-2.163c-0.08299-0.066-0.10899-0.2-0.173-0.286c-0.157-0.23-0.744-0.153-0.47099-0.7
	c0.291-0.585,0.52299,0,0.782,0c0.63699,0,0.353-0.516,0.42599-0.835c0.93201,0.744,2.183,1.19,2.408,2.6
	c0.02499,0.155,0.235,0.28,0.358,0.419c-0.54161,0.74615-1.18831,1.41003-1.92,1.97101c-0.207,0,0.332-0.307,0.078-0.446"/>
<path class="st21" d="M191.716,37.136c-0.6974,0.5798-1.60909,0.83446-2.506,0.7c-0.49004,0.04031-0.92499-0.31223-0.987-0.8
	c-0.07845-0.55365-0.10655-1.11327-0.084-1.672c-0.089-0.65,0.532-0.452,0.89999-0.521c0.98137,0.65532,1.8793,1.42767,2.674,2.3"/>
<path class="st16" d="M159.44901,121.022c-0.57401,0.609-0.308,1.225-0.01601,1.842c-1.315-0.282-2.32201-1.281-3.66701-1.542
	c-0.52499-0.1-0.536-0.742-0.60699-1.219c1.42934,0.30401,2.85933,0.61033,4.28999,0.919"/>
<path class="st21" d="M172.64401,25.996l0.216-0.007c0.351-0.218,0.78999-0.161,1.144-0.37
	c0.71817,0.26565,1.40282,0.61435,2.03999,1.039c-0.64752,0.17091-1.21965,0.55268-1.62601,1.085
	c-0.22501,0.318-0.894,0.969-1.14799-0.151c-0.05499-0.234-0.244-0.6-0.405-0.62
	C171.79601,26.838,172.66501,26.323,172.64401,25.996"/>
<path class="st9" d="M99.934,23.067c-0.641-0.557,0.25-0.9,0.269-1.419c0.023-0.717-0.171-0.712-0.614-0.6
	c-0.4211,0.17361-0.89095,0.18819-1.322,0.041c-0.3-0.139-0.527-0.32-0.373-0.7c0.137-0.332,0.3-0.621,0.753-0.464
	c0.544,0.189,1.056,0.53,1.59-0.168c0.264-0.344,0.455,0.05,0.534,0.387c0.126,0.525-0.081,1.164,0.5,1.544
	c-0.37731,0.51974-0.82607,0.98364-1.333,1.378"/>
<path class="st17" d="M141.022,93.079c-0.60674-0.14553-1.11209-0.56341-1.369-1.132c0.07094-0.02997,0.13806-0.06824,0.2-0.114
	c0.55499-0.5,1.084-1.132,1.87601-0.341c-0.15012,0.56192-0.38625,1.09725-0.7,1.587"/>
<path class="st5" d="M174.00401,25.617c-0.22,0.62-0.75,0.279-1.144,0.37c0.123-0.237,0.478-0.311,0.455-0.653
	C173.54501,25.434,173.77502,25.523,174.00401,25.617"/>
<path class="st11" d="M139.339,101.508c-0.246-0.034-0.63699,0.02-0.62601-0.286c0.01401-0.349,0.414-0.121,0.631-0.2
	c0,0.162,0,0.323,0,0.485"/>
<path class="st2" d="M163.31001,21.445c-0.06599,0.219,0.14799,0.592-0.145,0.628c-0.159,0.021-0.366-0.364-0.55-0.566l0.539-0.1
	C163.20807,21.37789,163.27539,21.39428,163.31001,21.445"/>
<path class="st9" d="M95.518,15.045c0.04123,0.21703-0.10128,0.4264-0.31831,0.46763
	c-0.04677,0.00889-0.09475,0.00935-0.14169,0.00137C95.21,15.357,95.365,15.2,95.518,15.045"/>
<path class="st9" d="M98.715,12.203c-0.032,0.266-0.2,0.357-0.445,0.361L98.715,12.203"/>
<path class="st2" d="M80.10699,54.196c0.048,0.093,0.093,0.187,0.139,0.282C80.2,54.385,80.15299,54.292,80.10699,54.196"/>
<path class="st22" d="M127.83599,90.596c-0.03,0.068-0.05701,0.136-0.086,0.2C127.779,90.726,127.80799,90.66,127.83599,90.596"/>
<path class="st16" d="M155.155,120.107c-0.073-0.041-0.144-0.082-0.216-0.12C155.011,120.027,155.084,120.066,155.155,120.107"/>
<path class="st0" d="M296.84201,99.789c-1.34399-10.164-6.25699-17.938-15.37201-22.873
	c-5.77933-3.01863-12.33902-4.21124-18.811-3.42c-8.8,0.832-16.13901,4.518-21.52701,11.6
	c-4.92546,6.47348-7.07079,14.64166-5.96201,22.7c1.052,9.415,5.41499,16.968,13.5,22.04699
	c8.784,5.51801,18.32901,6.11301,28.091,3.312c7.08011-1.92776,13.0593-6.67576,16.54102-13.13499
	c0.31299-0.564,0.41599-0.846-0.39401-1.06c-3.79999-1.007-7.58099-2.076-11.358-3.157c-0.60001-0.17-0.892-0.136-1.189,0.505
	c-0.75412,1.5828-1.90726,2.94203-3.34601,3.944c-3.23978,2.3632-7.19571,3.5362-11.20001,3.321
	c-7.60944-0.37013-13.8385-6.18236-14.73396-13.74799c-0.10001-0.905,0.136-1.057,0.98-1.055
	c7.276,0.032,14.55099,0.018,21.827,0.018s14.54999-0.018,21.82401,0.023c0.86899,0,1.20001-0.255,1.24399-1.087
	c0.20792-2.64286,0.16907-5.29935-0.116-7.935 M280.54001,98.98901c-4.77399-0.018-9.54901-0.009-14.323-0.009
	c-4.73801,0-9.47501-0.028-14.21001,0.022c-0.96899,0.01-1.276-0.145-1.162-1.219
	c1.04324-8.43095,8.7236-14.41986,17.15454-13.37661c7.11224,0.88007,12.67444,6.55511,13.41147,13.68361
	c0.10699,0.885-0.20499,0.9-0.871,0.9"/>
<path class="st0" d="M61.89,101.083c-0.737-8.365-4.1-15.5-10.646-20.844c-8.79-7.169-18.925-8.486-29.58-5.645
	c-13.183,3.514-21.67,15.322-21.66,29.45c-0.02805,1.81837,0.12268,3.63511,0.45,5.424c1.733,9.532,6.6,16.87599,15.195,21.55399
	c6.019,3.27699,12.513,4.132,19.251,3.45599c8.247-0.825,15.191-4.23199,20.39-10.76799
	C60.40622,117.34274,62.78065,109.2024,61.89,101.083 M42.78999,115.91101c-2.727,3.935-7.044,5.9-13.3,5.859
	c-4-0.109-8.31-2.479-11.021-7.176c-4.1-7.114-4.1-14.46,0.242-21.431c4.12343-6.86108,13.02814-9.08038,19.88921-4.95694
	c2.28854,1.37539,4.15269,3.35621,5.38678,5.72394c4.008,7.432,3.677,14.951-1.194,21.981"/>
<path class="st0" d="M364.60202,101.096c-0.99225-15.09814-13.18506-27.03201-28.30103-27.7
	c-6.814-0.416-13.29999,0.674-19.17899,4.288c-9.789,6.02-14.064,15.122-14.44199,26.322
	c-0.00641,1.86352,0.16098,3.72357,0.5,5.556c1.737,9.339,6.48199,16.60001,14.871,21.28799c6.245,3.491,13,4.37399,20,3.591
	c8.14099-0.912,14.992-4.38,20.08701-10.89399c5.01517-6.34628,7.33752-14.40826,6.46701-22.45 M346.05804,115.214
	c-4.4512,6.7724-13.54971,8.6541-20.32211,4.2029c-1.65613-1.08851-3.07462-2.50121-4.16989-4.1529
	c-2.19-3.2-3.258-6.9-3.25101-11.883c-0.02661-4.54469,1.64285-8.93589,4.68201-12.315
	c5.32367-6.00526,14.50757-6.55782,20.51285-1.23415c0.94086,0.83408,1.7695,1.78676,2.46515,2.83415
	c4.3989,6.8633,4.43124,15.6515,0.08301,22.547"/>
<path class="st16" d="M199.692,77.382c-0.009-0.08-0.01801-0.157-0.02901-0.236l0.287-0.2c0.10001-0.155,0.311-0.1,0.431-0.218
	l0.44901-0.023c0.819-0.237,1.67999,0.036,2.5-0.219l0.91901,0.025c1.2,0.967,2.688,0.473,4.019,0.783
	c0.39301,0.091,0.83701-0.013,1.157,0.33c0.15675,2.50816,0.10725,5.02495-0.14799,7.525c0.439-1.491-0.76801-2.26-1.46201-3.231
	c-0.32001-0.449-0.92799-0.135-1.39999-0.219c-0.187-0.034-0.632-0.077-0.383-0.3c1.258-1.13-0.213-0.662-0.489-0.88
	c-0.14301-0.114-0.407-0.185-0.433-0.312c-0.22568-0.89371-1.1331-1.43526-2.02682-1.20959
	c-0.07532,0.01902-0.14923,0.04327-0.22118,0.07259c-1.58701,0.382-2.2-0.794-3.14999-1.465c-0.06599-0.043-0.093-0.088-0.077-0.141
	s0.034-0.075,0.054-0.075"/>
<path class="st18" d="M209.42201,77.621c-1.3-0.072-2.60001-0.159-3.905-0.209c-0.58217,0.02923-1.10817-0.3453-1.271-0.905
	c0.407-0.041,0.84599-0.007,1.036-0.505c0.039-0.1,0.12801-0.271,0.189-0.269c1.72701,0.046,2.43401-1.606,3.75101-2.235
	C209.4819,74.85614,209.54922,76.2441,209.42201,77.621"/>
<path class="st15" d="M206.28101,63.502c0.009-0.146,0.01801-0.291,0.02901-0.437c-0.00963-0.18005,0.0802-0.35088,0.23399-0.445
	c0.15356-0.10101,0.23802-0.27918,0.21899-0.462l0,0c0.071,0.009,0.14101,0.016,0.214,0.02c0.123,0.189,0.25,0.062,0.377,0.007
	c0.043,0.2,0.084,0.407,0.12801,0.609c-0.25301,0.5-0.244,1.076-0.605,1.554c-0.25452,0.34787-0.22421,0.82789,0.07201,1.141
	c0.119,0.137,0.48199-0.086,0.394,0.267c-0.019,0.077-0.26601,0.1-0.412,0.14c-0.327,0.082-0.35201-0.145-0.39999-0.377
	c-0.13499-0.584-0.289-1.164-0.435-1.74401v-0.032c0.05901-0.08,0.123-0.159,0.185-0.239"/>
<path class="st16" d="M203.32501,108.786c0.22301-0.132,0.55701-0.275,0.5-0.534c-0.071-0.319-0.356-0.083-0.539-0.028
	s-0.437,0.127-0.492-0.07c-0.086-0.317,0.271-0.26,0.439-0.365c0.3367-0.1868,0.75365-0.14705,1.049,0.1
	c-0.08589,0.59151-0.32747,1.14957-0.7,1.617l-0.259-0.718"/>
<path class="st8" d="M103.735,53.029c0.573-0.705,0.336-1.993,0.994-2.323c0.577-0.288,1.544,0.533,2.431,0.149
	c0.161-0.071,0.423,0.095,0.639,0.152c-0.03066,0.75151,0.05605,1.50321,0.257,2.228c0.343,1.3-0.687,2.2-0.93,3.319
	c-0.018,0.082-0.187,0.214-0.21,0.2c-0.75961-0.31256-1.59499-0.39227-2.4-0.229c-0.036,0-0.073-0.2-0.111-0.3
	c-0.612-0.462-0.314-1.26-0.671-1.815L103.735,53.029z"/>
<path class="st9" d="M103.737,54.412c0.764,0.4,0.444,1.212,0.668,1.815c-0.554,0.309-0.838,0.145-0.909-0.487
	C103.50819,55.28764,103.58946,54.8398,103.737,54.412"/>
<path class="st16" d="M161.03801,124.922c1.408,0.924,1.62601,2.33099,1.577,3.85299c-0.67799-0.078-0.317-0.77599-0.62801-1.05799
	c-0.84399-0.757-0.5-1.908-0.94901-2.8"/>
<path class="st16" d="M159.44901,122.884c0.57817,0.6339,1.10641,1.31158,1.58,2.027
	C160.02901,124.611,159.34801,124.048,159.44901,122.884"/>
<path class="st11" d="M141.459,116.241c0.286-0.228,0.573-0.457,0.86-0.683c0.179-0.14,0.407-0.284,0.573-0.07
	c0.077,0.1-0.037,0.346-0.067,0.525c-0.3,0.094-0.591,0.187-0.886,0.283C141.77899,116.275,141.618,116.257,141.459,116.241"/>
<path class="st21" d="M190.375,38.955c0.64999-0.218,0.97301-1.1,1.828-0.9C191.726,38.621,191.23401,39.16,190.375,38.955"/>
<path class="st21" d="M189.231,40.536c0.077-0.528,0-1.13,0.675-1.363C190.05885,39.73273,189.76886,40.31832,189.231,40.536"/>
<path class="st22" d="M135.8,91.938c-0.01601-0.069-0.02901-0.137-0.043-0.2c0.10001-0.379-0.364-0.186-0.409-0.407l-0.039-0.1
	c-0.03406,0.0099-0.06746,0.02193-0.10001,0.036c-0.032,0.339-0.38499,0.287-0.55299,0.46c-0.082,0.157-0.157,0.145-0.228-0.009
	c-0.381-0.58-1.13901-0.5-1.612-0.923c0-0.064-0.007-0.126-0.01401-0.187c0.653-0.087,0.67599-0.1,0.45-0.553
	c-0.215-0.434,0.17799-0.462,0.364-0.511c0.57681-0.11919,1.14694-0.26873,1.70799-0.448c0.951-0.371,1.392,0.977,2.32899,0.921
	c-0.51801,0.886,0.39999,1.287,0.651,1.91l-2.5,0.014"/>
<path class="st22" d="M146.70801,76.47501v0.454C146.46701,76.77901,146.46701,76.62901,146.70801,76.47501"/>
<path class="st16" d="M190.58801,119.687c-0.147,0-0.3,0-0.44501,0c0.03799-0.305-0.037-0.771,0.48199-0.589
	c0.3,0.107,0.207,0.405-0.037,0.594"/>
<path class="st16" d="M191.72301,120.596c-0.17747,0.01741-0.34848-0.07162-0.436-0.227
	C191.644,120.037,191.694,120.298,191.72301,120.596"/>
<path class="st9" d="M97.581,18.48c0.584-0.439,1.323-1.358,1.187,0.4c-0.012,0.139,0.243,0.3,0.375,0.446
	c-0.032,0.018-0.066,0.052-0.1,0.05c-0.3343,0.0311-0.67139,0.01189-1-0.057c-0.339-0.118-0.43-0.491-0.466-0.839"/>
<path class="st9" d="M88.281,27.796c0.235,0.1,0.628-0.2,0.7,0.25c0.052,0.308-0.275,0.26-0.373,0.189
	c-0.425-0.309-1.132,0.221-1.26-0.174c-0.1-0.308,0.585-0.205,0.93-0.265"/>
<path class="st9" d="M101.22,17.796c0.018-0.032,0.035-0.064,0.052-0.1C101.25401,17.728,101.23801,17.76,101.22,17.796"/>
<path class="st12" d="M177.864,129.92099c0.22301-0.03,0.44299-0.075,0.66901-0.086s0.55901-0.069,0.436,0.341
	c-0.084,0.282,0.39999,0.2,0.241,0.35201c-0.10001,0.10001-0.42799,0.041-0.619-0.032c-0.291-0.11099-0.718-0.093-0.72701-0.575"/>
<path class="st12" d="M181.27101,119.90701c0.01801-0.03,0.03799-0.061,0.05701-0.091c-0.01601,0.034-0.032,0.068-0.04601,0.1
	L181.27101,119.90701z"/>
<path class="st19" d="M137.83801,99.67001l-0.5-0.088c0.019-0.03,0.033-0.078,0.05701-0.087
	c0.16978-0.06304,0.35959,0.01427,0.437,0.178L137.83801,99.67001z"/>
<path class="st19" d="M130.10301,105.813c-0.032-0.016-0.061-0.034-0.093-0.049
	C130.04201,105.779,130.07101,105.797,130.10301,105.813"/>
<path class="st18" d="M199.692,77.382c0.007,0.073,0.01401,0.146,0.021,0.221c-0.084,0-0.17101,0-0.255-0.009
	c0.078-0.071,0.157-0.141,0.23399-0.212"/>
<path class="st17" d="M166.96701,80.075c0.03-0.43,0.341-0.407,0.64101-0.4C167.59302,80.125,167.28601,80.109,166.96701,80.075"/>
<path class="st12" d="M171.944,91.496c-0.032-0.036-0.062-0.073-0.09399-0.109l0.10699,0.095L171.944,91.496"/>
<path class="st20" d="M206.29501,67.603c-0.53,1.307-1.772,2.122-2.31799,3.443c-0.79797,1.32564-2.3828,1.9554-3.873,1.539
	c-0.52299-0.167-0.39999-0.577-0.39999-0.927c0-0.28-0.13-0.655,0.243-0.794s0.537,0.134,0.657,0.441
	c0.246,0.626,0.787,0.191,1.16,0.244c0.319,0.045,0.121-0.4,0.052-0.633c-0.1183-0.52778,0.0567-1.07837,0.45799-1.441
	c0.60439-0.55856,1.04546-1.27099,1.276-2.061c0.321-0.9,0.93201-1.34,1.89999-0.63c0.211,0.156,0.577,0.1,0.873,0.147
	c0.17299,0.19454,0.16197,0.49084-0.02499,0.672"/>
<path class="st18" d="M203.32901,76.482c-0.80386,0.27175-1.66122,0.34651-2.5,0.218
	C201.62901,76.229,202.49301,76.534,203.32901,76.482"/>
<path class="st15" d="M206.29501,67.603c0.007-0.224,0.01601-0.446,0.02499-0.671c0.254-0.112,0.651-0.417,0.746-0.057
	C207.18401,67.32801,206.72202,67.53001,206.29501,67.603"/>
<path class="st18" d="M200.38101,76.72301c-0.09219,0.14742-0.25865,0.23142-0.43201,0.218
	C200.02101,76.72901,200.19,76.70201,200.38101,76.72301"/>
<path class="st15" d="M196.28601,72.381c0.01801-0.032,0.036-0.062,0.052-0.094C196.32201,72.319,196.30402,72.349,196.28601,72.381
	"/>
<path class="st20" d="M204.255,64.66c-0.037,0.029-0.073,0.057-0.10699,0.086c0.02901-0.036,0.05701-0.073,0.086-0.107
	L204.255,64.66z"/>
<path class="st6" d="M148.76901,75.55601c-0.25-0.819,0.745-0.6,0.959-1.171c0.33501-0.894,0.44299-1.85,0.851-2.712
	c0.34848,0.34708,0.55858,0.80923,0.591,1.3c0.19099,0.921,0.455,1.7,1.524,1.935c0.52499,0.118,0.47701,0.687,0.60899,1.094
	c-0.313,0.624-0.174,1.913-1.52499,1c-0.29201-0.2-0.535,0.141-0.8,0.262c-0.321,0.145-0.53,0.78-0.89999,0.464
	c-0.407-0.353-1.12199-0.683-0.89999-1.395c0.15401-0.5-0.332-0.493-0.409-0.775"/>
<path class="st12" d="M204.755,102.388c-0.173,0-0.373-0.011-0.373-0.175c0-0.373,0.382-0.246,0.577-0.371
	c0.12801-0.082,0.32201-0.057,0.315,0.139C205.26201,102.308,204.994,102.363,204.755,102.388"/>
<path class="st12" d="M199.925,91.94c-0.021,0.332,0.02901,0.737-0.50999,0.614c-0.118-0.027-0.3-0.209-0.289-0.294
	c0.08-0.524,0.519-0.236,0.8-0.32"/>
<path class="st16" d="M196.86801,99.065c-0.755-0.041-0.323-0.95-0.79401-1.219c-0.089-0.05-0.173-0.3,0-0.379
	c0.39301-0.189,0.716,0.07,1.039,0.245c0.448,0.246-0.338,0.969,0.41701,1.106c-0.146,0.234-0.41,0.125-0.66,0.247"/>
<path class="st16" d="M204.28101,104.089c-0.41901,0.214-0.60001-0.159-0.7-0.366c-0.136-0.293,0.282-0.359,0.405-0.332
	c0.33,0.078,0.853,0,0.88901,0.478c0.032,0.446-0.448,0.02-0.593,0.22"/>
<path class="st16" d="M196.78101,99.441c0.194,0.061,0.578-0.069,0.47099,0.263c-0.05701,0.176-0.47099,0.26-0.737,0.33
	c-0.177,0.046-0.256-0.152-0.27-0.291c-0.05-0.5,0.36099-0.2,0.536-0.3"/>
<path class="st16" d="M201.849,102.01701c-0.22311,0.18371-0.50299,0.28442-0.79201,0.285c-0.041,0-0.146-0.187-0.12-0.244
	c0.10924-0.24572,0.37653-0.38041,0.63901-0.322C201.728,101.75101,201.858,101.81301,201.849,102.01701"/>
<path class="st10" d="M195.58701,98.82401c-0.02499,0.157-0.116,0.339-0.26601,0.26c-0.17-0.091-0.27901-0.3-0.416-0.46
	c0.13213-0.0611,0.26932-0.11062,0.41-0.148C195.603,98.426,195.59,98.635,195.58701,98.82401"/>
<path class="st16" d="M196.61301,100.60101c0.252,0.054,0.48,0.088,0.60001,0.32c-0.091,0.039-0.186,0.114-0.27499,0.107
	c-0.2-0.016-0.487,0.094-0.53-0.241c-0.009-0.057,0.14101-0.132,0.207-0.186"/>
<path class="st16" d="M194.92101,97.396l0.10001,0.055L194.92101,97.396"/>
<path class="st16" d="M179.08701,85.23801c-0.02901,0.016-0.061,0.047-0.089,0.045s-0.052-0.039-0.07899-0.059L179.08701,85.23801"
	/>
<path class="st10" d="M173.315,92.176v0.214l-0.291,0.307c-0.032-0.052-0.10001-0.136-0.091-0.148
	C173.054,92.42,173.185,92.299,173.315,92.176"/>
<path class="st18" d="M178.457,86.704c0.291,0.021,0.8-0.043,0.776,0.226c-0.03,0.359-0.54201,0.052-0.826,0.2
	c-0.179,0.1-0.554,0.018-0.55299-0.2c0-0.416,0.39999-0.139,0.60001-0.226"/>
<path class="st12" d="M180.15401,86.202c-0.02699-0.009-0.052-0.021-0.08-0.03c0.03-0.029,0.062-0.059,0.091-0.089l0.06,0.067
	C180.20201,86.16601,180.177,86.18401,180.15401,86.202"/>
<path class="st18" d="M180.36801,85.11501c0.032,0.018,0.064,0.036,0.093,0.054c-0.034-0.015-0.06599-0.034-0.10001-0.05h0.007"/>
<path class="st11" d="M133.515,102.62901l-0.10001-0.05L133.515,102.62901L133.515,102.62901"/>
<path class="st4" d="M206.53801,62.619c0.01045,0.18049-0.07954,0.35202-0.23399,0.446
	C205.94702,62.688,206.22401,62.645,206.53801,62.619"/>
<path class="st4" d="M206.28101,63.502c-0.062,0.08-0.12601,0.159-0.187,0.239C206.15501,63.661,206.21701,63.582,206.28101,63.502"
	/>
<path class="st4" d="M206.75601,62.155c-0.03101-0.031-0.063-0.066-0.095-0.1c0.021,0,0.048,0,0.06,0.018
	c0.01405,0.02521,0.02577,0.05165,0.035,0.079"/>
<path class="st2" d="M166.44501,25.084L166.04501,25c0.3-0.111,0.60001-0.234,0.89999-0.327c0.138-0.043,0.368,0.007,0.30701,0.177
	c-0.13499,0.384-0.51199,0.143-0.80499,0.234"/>
<path class="st2" d="M163.89301,22.865c-0.07433,0.05649-0.15839,0.09886-0.248,0.125c-0.119,0.011-0.226-0.057-0.14799-0.2
	c0.03947-0.063,0.10248-0.10764,0.175-0.124c0.12-0.031,0.207,0.024,0.22099,0.2"/>
<path class="st17" d="M147.502,74.832c0.13,0.069,0.237,0.123,0.345,0.18c-0.12807,0.04139-0.2596,0.07117-0.39301,0.089
	c-0.10114-0.01175-0.19992-0.03872-0.293-0.08L147.502,74.832"/>
<path class="st16" d="M179.01001,93.068c0.10001,0.032,0.19501,0.066,0.295,0.1c-0.01729,0.02841-0.03667,0.05548-0.058,0.081
	c-0.08701-0.051-0.16901-0.106-0.25101-0.163l0.01401-0.016"/>
<path class="st6" d="M132.81401,90.789c0.666,0.084,1.558-0.225,1.61301,0.924C133.74902,91.647,132.81201,92.038,132.81401,90.789"
	/>
<path class="st6" d="M134.65201,91.722c0.323-0.137,0.209-0.7,0.68201-0.691c0.21944,0.1241,0.42523,0.2709,0.614,0.438
	c0.289,0.31-0.10001,0.187-0.19099,0.264l-1.10001-0.011"/>
<path class="st6" d="M135.334,91.03001l0.239-0.171C135.64799,91.13301,135.411,90.97101,135.334,91.03001"/>
</svg>
