<?xml version="1.0" encoding="utf-8"?>
<!-- Generator: Adobe Illustrator 27.4.1, SVG Export Plug-In . SVG Version: 6.00 Build 0)  -->
<svg version="1.1" id="Ebene_1" xmlns="http://www.w3.org/2000/svg" xmlns:xlink="http://www.w3.org/1999/xlink" x="0px" y="0px"
	 viewBox="0 0 260.8 45.5" style="enable-background:new 0 0 260.8 45.5;" xml:space="preserve">
<style type="text/css">
	.st0{display:none;fill:#283149;}
	.st1{fill:#283149;}
</style>
<g>
	<path class="st0" d="M3.5,58.4c0-23.5,0-47,0-70.5c84.7,0,169.4,0,254,0c0,23.5,0,47,0,70.5C172.9,58.4,88.2,58.4,3.5,58.4z
		 M31.1,26.2c0.1-0.1,0.2-0.1,0.3-0.1c3-0.7,4.2-4.1,2.6-6.4c-0.1-0.1,0-0.5,0.1-0.7c1-1,2.1-2,3.1-3.1c0.3-0.3,0.6-0.4,1-0.2
		c0.8,0.4,1.7,0.4,2.5,0c1.7-0.7,2.4-2.7,1.7-4.3c-0.7-1.6-2.6-2.3-4.3-1.6c-1.6,0.7-2.3,2.7-1.6,4.4c0.1,0.2,0.2,0.5,0.1,0.6
		c-1.2,1.3-2.4,2.5-3.6,3.7c-1.7-0.9-3.2-1-4.8-0.1c-0.1,0.1-0.5,0-0.6-0.2c-0.7-0.6-1.3-1.3-2-1.9c-0.3-0.3-0.4-0.5-0.2-0.9
		c0.3-0.9,0.2-1.8-0.5-2.5c-0.6-0.7-1.4-0.9-2.3-0.7c-1.4,0.3-2.3,1.7-1.9,3.1c0.4,1.4,1.8,2.1,3.2,1.7c0.2-0.1,0.5-0.1,0.6,0
		c0.9,0.8,1.7,1.7,2.5,2.5c-0.2,0.6-0.4,1-0.6,1.5c-0.1,0.4-0.3,0.5-0.7,0.5c-1,0-2,0-3,0c-0.5,0-0.7-0.1-0.9-0.6
		c-0.7-1.8-2.8-2.6-4.5-1.7c-1.2,0.7-1.9,2.1-1.7,3.4c0.3,1.5,1.4,2.5,2.8,2.6c1.5,0.1,2.8-0.6,3.3-2c0.2-0.4,0.4-0.5,0.8-0.5
		c0.8,0,1.6,0.1,2.4,0c0.8-0.1,1.4,0.1,1.6,1c0,0.2,0.2,0.4,0.3,0.6c0.7,1,1.7,1.6,2.9,1.9c0,1.2,0,2.4,0,3.6c0,0.5-0.1,0.8-0.7,1
		c-1.3,0.5-1.9,1.5-2,2.8c-0.1,1.4,0.6,2.4,1.9,3c1.2,0.6,2.4,0.4,3.4-0.5c1.9-1.6,1.4-4.4-0.9-5.5c-0.2-0.1-0.5-0.3-0.5-0.5
		C31.1,28.9,31.1,27.6,31.1,26.2z M58.5,25.7c0.3,0,0.6,0,0.9,0c1.4,0,2.8,0,4.2-0.1c2.9-0.3,4.6-2.4,4.6-5.4
		c-0.1-2.9-1.9-4.9-4.8-5.1c-2.6-0.1-5.2-0.1-7.8-0.1c-0.6,0-0.8,0.2-0.8,0.8c0,5,0,10,0,15c0,0.2,0,0.5,0,0.8c1.2,0,2.4,0,3.6,0
		C58.5,29.6,58.5,27.7,58.5,25.7z M101.7,21c-0.5-0.4-0.9-0.8-1.3-1.1c-2.6-1.5-5.8-0.4-7.1,2.5c-0.9,2.2-0.9,4.4,0.1,6.6
		c0.9,2,2.5,3,4.7,3c1.5,0,2.7-0.5,3.7-1.8c0,0.6,0.1,1,0.1,1.4c1.1,0,2,0,3.1,0c0-5.5,0-11,0-16.5c-1.1,0-2.1,0-3.3,0
		C101.7,17.1,101.7,19,101.7,21z M191.4,23.3c0.9,0,1.8,0,2.7,0c0.4,0,0.6-0.1,0.6-0.5c0.1-0.6,0.6-1.1,1.2-1.2
		c0.7-0.1,1.4-0.1,2.1,0c0.7,0.1,1,0.7,1,1.4c0,0.7-0.3,1.1-1,1.2c-0.3,0.1-0.7,0.2-1,0.2c-1.2,0.2-2.5,0.3-3.6,0.7
		c-1.6,0.4-2.4,1.6-2.4,3.3c0,1.8,0.9,3,2.6,3.4c0.7,0.2,1.5,0.2,2.3,0.1c1.2-0.1,2.3-0.5,3.1-1.3c0.2,0.4,0.4,1,0.7,1
		c1,0.1,2,0,2.8,0c-0.1-1.5-0.1-2.9-0.1-4.3c0-1.5,0-3,0-4.5c0-1.6-0.9-2.7-2.5-3.1c-0.7-0.2-1.3-0.3-2-0.3c-1.5-0.1-3,0-4.4,0.7
		C192.1,20.8,191.4,21.8,191.4,23.3z M228.3,28c-0.9,0-1.7,0-2.5,0c-0.2,0-0.4,0.1-0.4,0.2c-0.9,1.2-2.2,1.5-3.6,1.2
		c-1.3-0.3-2.1-1.6-1.8-3c2.8,0,5.7,0,8.6,0c0-0.5,0-0.9,0-1.3c-0.3-4.9-5.2-7.5-9.3-4.9c-3,1.9-3.6,6.8-1.3,9.6
		c1.8,2.2,5.6,2.8,8.1,1.3C227.2,30.5,227.9,29.4,228.3,28z M91,25.6c0-0.2,0-0.5-0.1-0.7c-0.2-2.4-1.3-4.2-3.6-5.1
		c-2.4-0.9-4.8-0.7-6.9,1.1c-2.5,2.2-2.4,6.7-0.7,8.9c1.6,2,4.6,2.9,7.2,2C89.5,30.8,91,28.6,91,25.6z M107.5,19.7c0,1.7,0,3.3,0,5
		c0,1.3,0,2.6,0.1,3.8c0.1,1.4,0.7,2.7,2.2,3.1c0.9,0.3,1.9,0.3,2.8,0.3c1.3-0.1,2.3-0.8,3.1-1.8c0,0.5,0,1,0,1.5c0.9,0,1.6,0,2.4,0
		c0.6,0,0.7-0.2,0.7-0.7c0-3.5,0-7.1,0-10.6c0-0.2,0-0.4,0-0.6c-1.1,0-2.2,0-3.3,0c0,2.1,0,4,0,6c0,0.8-0.1,1.6-0.4,2.4
		c-0.3,1-1.3,1.5-2.5,1.3c-1-0.1-1.6-0.6-1.7-1.7c-0.1-0.5-0.1-1-0.1-1.6c0-1.9,0-3.8,0-5.7c0-0.2,0-0.5,0-0.7
		C109.7,19.7,108.6,19.7,107.5,19.7z M159.8,19.7c-1.1,0-2.1,0-3.1,0c0,4,0,7.9,0,11.9c1.1,0,2.1,0,3.2,0c0-0.3,0-0.5,0-0.8
		c0-1.9,0-3.7,0-5.6c0-0.7,0.1-1.4,0.4-2.1c0.3-1,1.2-1.4,2.4-1.3c1,0.1,1.6,0.5,1.8,1.6c0.1,0.6,0.2,1.2,0.2,1.8c0,1.9,0,3.8,0,5.7
		c0,0.3-0.1,0.6,0.4,0.6c0.9,0,1.9,0,2.8,0c0.1-0.1,0.1-0.2,0.1-0.2c0-2.9,0-5.9-0.1-8.8c-0.1-1.4-0.8-2.6-2.3-3.1
		c-1.1-0.3-2.2-0.4-3.3-0.1c-1.1,0.3-1.8,0.9-2.5,1.9C159.8,20.7,159.8,20.2,159.8,19.7z M180.9,23.1c-0.1-1.6-0.9-2.7-2.3-3.2
		c-2.1-0.8-4.3-0.8-6.4,0.2c-1.4,0.7-1.9,1.9-1.8,3.4c0.1,1.4,1,2.1,2.2,2.5c0.8,0.3,1.5,0.4,2.3,0.7c0.7,0.2,1.5,0.4,2.2,0.7
		c0.5,0.2,0.9,0.5,0.9,1.2c0,0.6-0.4,1-1,1.2c-1.5,0.6-3.5,0.2-3.9-1.7c-1,0-2,0-3,0c-0.1,1.5,0.9,3,2.4,3.6c2.1,0.9,4.3,0.8,6.4,0
		c1.7-0.7,2.5-2,2.4-3.8c-0.1-1.7-1.2-2.4-2.6-2.8c-0.8-0.3-1.6-0.4-2.3-0.6c-0.7-0.2-1.5-0.4-2.1-0.7c-0.3-0.1-0.5-0.7-0.5-1
		c0-0.3,0.4-0.7,0.7-0.8c1.4-0.3,3-0.4,3.5,1.4C178.8,23.1,179.8,23.1,180.9,23.1z M129.9,27.1c-0.1,0.2-0.1,0.5-0.2,0.7
		c-0.4,1-1.1,1.6-2.2,1.7c-1.1,0.1-1.9-0.3-2.4-1.2c-0.9-1.8-0.9-3.7,0.1-5.4c0.6-0.9,1.4-1.2,2.5-1.1c1,0.1,1.7,0.7,2,1.7
		c0,0.1,0.1,0.2,0.2,0.4c0.5,0,1,0,1.5,0c0.5,0,1,0,1.8,0c-0.3-0.9-0.5-1.6-0.9-2.2c-1.7-2.9-6.7-2.9-8.8-1.2
		c-1.7,1.4-2.3,3.2-2.4,5.3c0,3.4,2,5.8,5.3,6.2c3.5,0.4,6.2-1.6,6.6-4.8C131.9,27.1,130.9,27.1,129.9,27.1z M184.1,21.8
		c0,0.4,0,0.7,0,0.9c0,2.1,0,4.3,0,6.4c0,1.3,0.6,2.1,1.8,2.4c1.3,0.3,2.5,0.3,3.9,0.1c0-0.8,0-1.6,0-2.4c-0.4,0-0.7,0-1,0
		c-1.1,0-1.4-0.3-1.4-1.4c0-1,0-2,0-3c0-1,0-2,0-3.1c0.7,0,1.3,0,1.9,0c0.2,0,0.5-0.2,0.5-0.4c0.1-0.6,0-1.1,0-1.8
		c-0.8,0-1.6,0-2.5,0c0-1.3,0-2.4,0-3.6c-1.1,0-2.2,0-3.3,0c0,1.2,0,2.4,0,3.6c-0.7,0-1.3,0-2,0c0,0.8,0,1.4,0,2.2
		C182.8,21.8,183.4,21.8,184.1,21.8z M135.8,21.8c0,2.3,0,4.4,0,6.6c0,0.4,0,0.9,0.1,1.3c0.1,0.8,0.5,1.4,1.3,1.7
		c1.4,0.6,2.9,0.5,4.3,0.3c0-0.9,0-1.7,0-2.5c-0.3,0-0.5,0-0.8,0c-1.3,0-1.6-0.3-1.6-1.6c0-1.1,0-2.2,0-3.3c0-0.8,0-1.6,0-2.5
		c0.9,0,1.6,0,2.4,0c0-0.8,0-1.4,0-2.2c-0.8,0-1.6,0-2.4,0c0-1.2,0-2.4,0-3.6c-1.1,0-2.2,0-3.3,0c0,1.2,0,2.4,0,3.6
		c-0.7,0-1.3,0-1.9,0c0,0.8,0,1.4,0,2.1C134.6,21.8,135.1,21.8,135.8,21.8z M153.7,15c-1,0-1.9,0-2.8,0c-0.7,0-0.8,0.2-0.8,0.8
		c0,5,0,10,0,15c0,0.2,0,0.3,0,0.5c0,0.1,0.2,0.3,0.3,0.3c1.1,0,2.2,0,3.3,0C153.7,26.1,153.7,20.6,153.7,15z M214.4,31.7
		c0-5.6,0-11.1,0-16.6c-0.9,0-1.7,0-2.5,0c-0.7-0.1-0.8,0.2-0.8,0.8c0,5,0,10,0,15c0,0.1,0,0.3,0,0.4c0.1,0.1,0.2,0.4,0.4,0.4
		C212.4,31.7,213.4,31.7,214.4,31.7z M205.1,15c0,5.6,0,11.1,0,16.6c1.1,0,2.1,0,3.2,0c0-0.3,0-0.6,0-0.9c0-4.6,0-9.2,0-13.7
		c0-0.5,0-1,0-1.5c0-0.2-0.2-0.4-0.4-0.4C207.1,15,206.1,15,205.1,15z M230.6,19.7c0,4,0,7.9,0,12c0.8,0,1.5,0,2.2,0c1,0,1,0,1-1
		c0-1.8,0-3.7,0.1-5.5c0.2-1.9,1.4-2.8,3.3-2.8c0.4,0,0.7,0,1.1,0c0-1,0-2,0-3c-2.1-0.4-3.5,0.7-4.7,2.3c0-0.7,0-1.3,0-2
		C232.6,19.7,231.6,19.7,230.6,19.7z M73.4,31.7c0-0.4,0-0.6,0-0.9c0-1.6,0-3.2,0-4.8c0-2.5,1.3-3.7,3.8-3.6c0.2,0,0.4,0,0.7,0
		c0-1,0-2,0-3c-2.1-0.3-3.5,0.7-4.7,2.3c0-0.7,0-1.3,0-2c-1.1,0-2.1,0-3.1,0c0,0.9,0,1.6,0,2.4c0,3,0,5.9,0,8.9
		c0,0.3-0.1,0.6,0.4,0.6C71.4,31.7,72.4,31.7,73.4,31.7z"/>
	<path class="st1" d="M31.1,26.2c0,1.4,0,2.7,0,4c0,0.2,0.3,0.4,0.5,0.5c2.3,1.1,2.8,3.9,0.9,5.5c-1,0.9-2.2,1-3.4,0.5
		c-1.3-0.6-1.9-1.6-1.9-3c0.1-1.3,0.7-2.3,2-2.8c0.6-0.2,0.7-0.5,0.7-1c0-1.2,0-2.4,0-3.6c-1.2-0.3-2.2-0.8-2.9-1.9
		c-0.1-0.2-0.3-0.4-0.3-0.6c-0.1-1-0.7-1.1-1.6-1c-0.8,0.1-1.6,0-2.4,0c-0.4,0-0.6,0.1-0.8,0.5c-0.5,1.4-1.8,2.2-3.3,2
		c-1.4-0.1-2.5-1.1-2.8-2.6c-0.3-1.3,0.4-2.7,1.7-3.4c1.7-0.9,3.8-0.2,4.5,1.7c0.2,0.5,0.4,0.6,0.9,0.6c1,0,2,0,3,0
		c0.4,0,0.6-0.1,0.7-0.5c0.1-0.5,0.4-1,0.6-1.5c-0.8-0.8-1.6-1.7-2.5-2.5c-0.1-0.1-0.4-0.1-0.6,0c-1.4,0.4-2.9-0.3-3.2-1.7
		c-0.4-1.4,0.5-2.8,1.9-3.1c0.9-0.2,1.7,0.1,2.3,0.7c0.7,0.7,0.8,1.6,0.5,2.5c-0.2,0.4,0,0.6,0.2,0.9c0.7,0.6,1.3,1.3,2,1.9
		c0.1,0.1,0.5,0.2,0.6,0.2c1.6-0.9,3.1-0.8,4.8,0.1c1.2-1.2,2.4-2.4,3.6-3.7c0.1-0.1,0-0.4-0.1-0.6c-0.8-1.7-0.1-3.6,1.6-4.4
		c1.6-0.7,3.5,0,4.3,1.6c0.8,1.6,0,3.6-1.7,4.3c-0.8,0.4-1.7,0.4-2.5,0c-0.4-0.2-0.6-0.1-1,0.2c-1,1-2.1,2-3.1,3.1
		c-0.1,0.1-0.2,0.5-0.1,0.7c1.6,2.3,0.4,5.7-2.6,6.4C31.3,26.1,31.3,26.2,31.1,26.2z M30.5,25c1.6,0,2.9-1.3,2.9-2.9
		c0-1.6-1.4-2.9-3-2.9c-1.6,0-2.9,1.4-2.9,2.9C27.5,23.6,28.9,25,30.5,25z"/>
	<path class="st1" d="M58.5,25.7c0,2,0,3.9,0,5.9c-1.2,0-2.4,0-3.6,0c0-0.3,0-0.5,0-0.8c0-5,0-10,0-15c0-0.6,0.2-0.8,0.8-0.8
		c2.6,0.1,5.2,0,7.8,0.1c2.9,0.2,4.7,2.2,4.8,5.1c0.1,3-1.6,5-4.6,5.4c-1.4,0.2-2.8,0.1-4.2,0.1C59.1,25.7,58.8,25.7,58.5,25.7z
		 M58.5,22.8c1.4,0,2.8,0.1,4.1,0c1.4-0.2,1.9-1,1.9-2.3c0-1.4-0.6-2.3-2-2.4c-1.3-0.2-2.7,0-4.1,0C58.5,19.6,58.5,21.2,58.5,22.8z"
		/>
	<path class="st1" d="M101.7,21c0-2,0-4,0-5.9c1.1,0,2.2,0,3.3,0c0,5.5,0,11,0,16.5c-1,0-2,0-3.1,0c0-0.4,0-0.9-0.1-1.4
		c-1,1.4-2.2,1.8-3.7,1.8c-2.2,0-3.8-1-4.7-3c-1-2.2-1.1-4.4-0.1-6.6c1.2-2.9,4.5-4,7.1-2.5C100.8,20.2,101.2,20.6,101.7,21z
		 M95.8,25.5c0.1,1.3,0.4,2.3,1,3c1.1,1.5,3.5,1.4,4.4-0.2c0.9-1.7,0.9-3.4,0.1-5.1c-0.4-1-1.3-1.4-2.4-1.4c-1,0-1.9,0.4-2.3,1.4
		C96.2,23.9,96.1,24.7,95.8,25.5z"/>
	<path class="st1" d="M191.4,23.3c0.1-1.6,0.8-2.6,2-3.3c1.4-0.7,2.9-0.9,4.4-0.7c0.7,0.1,1.4,0.2,2,0.3c1.6,0.4,2.4,1.5,2.5,3.1
		c0,1.5,0,3,0,4.5c0,1.4,0.1,2.8,0.1,4.3c-0.9,0-1.8,0.1-2.8,0c-0.2,0-0.4-0.6-0.7-1c-0.8,0.8-1.9,1.2-3.1,1.3c-0.8,0-1.6,0-2.3-0.1
		c-1.7-0.4-2.5-1.6-2.6-3.4c0-1.7,0.8-2.9,2.4-3.3c1.2-0.3,2.4-0.4,3.6-0.7c0.3-0.1,0.7-0.1,1-0.2c0.6-0.2,1-0.5,1-1.2
		c0-0.7-0.3-1.3-1-1.4c-0.7-0.1-1.4-0.1-2.1,0c-0.6,0.1-1.1,0.5-1.2,1.2c-0.1,0.4-0.2,0.5-0.6,0.5C193.2,23.3,192.3,23.3,191.4,23.3
		z M199,26c-0.8,0.2-1.7,0.3-2.5,0.5c-0.5,0.1-1.1,0.3-1.5,0.5c-0.9,0.6-0.9,2.1,0,2.6c1.6,0.9,3.7,0,4-1.8
		C199.1,27.1,199,26.5,199,26z"/>
	<path class="st1" d="M228.3,28c-0.4,1.4-1.1,2.5-2.3,3.2c-2.4,1.5-6.2,0.9-8.1-1.3c-2.4-2.8-1.7-7.8,1.3-9.6
		c4.2-2.6,9.1-0.1,9.3,4.9c0,0.4,0,0.8,0,1.3c-2.9,0-5.8,0-8.6,0c-0.3,1.4,0.5,2.7,1.8,3c1.4,0.3,2.6,0.1,3.6-1.2
		c0.1-0.1,0.3-0.2,0.4-0.2C226.6,28,227.4,28,228.3,28z M225.2,24.4c-0.3-1.9-1.3-2.8-3.1-2.5c-1.3,0.2-2.3,1.3-2.1,2.5
		C221.7,24.4,223.4,24.4,225.2,24.4z"/>
	<path class="st1" d="M91,25.6c0,3-1.5,5.2-4,6.1c-2.7,0.9-5.7,0.1-7.2-2c-1.7-2.2-1.8-6.7,0.7-8.9c2.1-1.8,4.5-2,6.9-1.1
		c2.3,0.8,3.4,2.7,3.6,5.1C91,25.2,91,25.4,91,25.6z M87.7,25.8c0-0.5,0-0.9-0.1-1.3c-0.2-1.7-1.2-2.7-2.8-2.8
		c-1.5-0.1-2.6,0.8-2.9,2.5c-0.2,1-0.1,2.2,0.1,3.2c0.3,1.4,1.3,2.1,2.6,2.1c1.5,0,2.4-0.8,2.8-2.2C87.6,26.8,87.6,26.3,87.7,25.8z"
		/>
	<path class="st1" d="M107.5,19.7c1.1,0,2.1,0,3.3,0c0,0.2,0,0.5,0,0.7c0,1.9,0,3.8,0,5.7c0,0.5,0,1.1,0.1,1.6
		c0.2,1.1,0.7,1.6,1.7,1.7c1.2,0.1,2.2-0.3,2.5-1.3c0.2-0.7,0.3-1.6,0.4-2.4c0-2,0-4,0-6c1.1,0,2.1,0,3.3,0c0,0.2,0,0.4,0,0.6
		c0,3.5,0,7.1,0,10.6c0,0.6-0.2,0.8-0.7,0.7c-0.8,0-1.5,0-2.4,0c0-0.6,0-1.1,0-1.5c-0.8,1-1.8,1.7-3.1,1.8c-0.9,0.1-1.9,0-2.8-0.3
		c-1.5-0.4-2-1.7-2.2-3.1c-0.1-1.3-0.1-2.6-0.1-3.8C107.5,23,107.5,21.4,107.5,19.7z"/>
	<path class="st1" d="M159.8,19.7c0,0.5,0,1,0,1.7c0.7-1,1.5-1.7,2.5-1.9c1.1-0.3,2.2-0.2,3.3,0.1c1.5,0.5,2.2,1.7,2.3,3.1
		c0.1,2.9,0.1,5.9,0.1,8.8c0,0,0,0.1-0.1,0.2c-0.9,0-1.8,0-2.8,0c-0.5,0-0.4-0.4-0.4-0.6c0-1.9,0-3.8,0-5.7c0-0.6,0-1.2-0.2-1.8
		c-0.2-1.1-0.8-1.5-1.8-1.6c-1.2-0.1-2.1,0.3-2.4,1.3c-0.2,0.7-0.4,1.4-0.4,2.1c-0.1,1.9,0,3.7,0,5.6c0,0.2,0,0.5,0,0.8
		c-1.1,0-2.2,0-3.2,0c0-4,0-7.9,0-11.9C157.7,19.7,158.7,19.7,159.8,19.7z"/>
	<path class="st1" d="M180.9,23.1c-1,0-2,0-3,0c-0.5-1.8-2.1-1.7-3.5-1.4c-0.3,0.1-0.7,0.5-0.7,0.8c0,0.3,0.2,0.9,0.5,1
		c0.7,0.3,1.4,0.5,2.1,0.7c0.8,0.2,1.6,0.3,2.3,0.6c1.4,0.5,2.5,1.2,2.6,2.8c0.1,1.8-0.7,3.1-2.4,3.8c-2.1,0.8-4.3,0.9-6.4,0
		c-1.5-0.6-2.4-2.1-2.4-3.6c1,0,2,0,3,0c0.4,1.9,2.4,2.3,3.9,1.7c0.5-0.2,0.9-0.6,1-1.2c0.1-0.6-0.4-1-0.9-1.2
		c-0.7-0.3-1.5-0.5-2.2-0.7c-0.8-0.2-1.6-0.4-2.3-0.7c-1.2-0.4-2.1-1.1-2.2-2.5c-0.1-1.5,0.4-2.7,1.8-3.4c2.1-1,4.2-1,6.4-0.2
		C179.9,20.4,180.7,21.5,180.9,23.1z"/>
	<path class="st1" d="M129.9,27.1c1,0,2.1,0,3.1,0c-0.3,3.3-3.1,5.3-6.6,4.8c-3.3-0.4-5.4-2.8-5.3-6.2c0-2.1,0.7-3.9,2.4-5.3
		c2.1-1.7,7-1.7,8.8,1.2c0.4,0.6,0.6,1.4,0.9,2.2c-0.8,0-1.3,0-1.8,0c-0.5,0-1,0-1.5,0c-0.1-0.2-0.1-0.3-0.2-0.4
		c-0.3-1-0.9-1.5-2-1.7c-1.1-0.1-2,0.2-2.5,1.1c-1.1,1.8-1.1,3.6-0.1,5.4c0.5,0.9,1.3,1.3,2.4,1.2c1.1-0.1,1.8-0.7,2.2-1.7
		C129.7,27.6,129.8,27.4,129.9,27.1z"/>
	<path class="st1" d="M184.1,21.8c-0.7,0-1.3,0-2,0c0-0.7,0-1.4,0-2.2c0.6,0,1.3,0,2,0c0-1.2,0-2.4,0-3.6c1.1,0,2.2,0,3.3,0
		c0,1.2,0,2.3,0,3.6c0.9,0,1.6,0,2.5,0c0,0.7,0,1.2,0,1.8c0,0.1-0.3,0.4-0.5,0.4c-0.6,0-1.2,0-1.9,0c0,1.1,0,2.1,0,3.1c0,1,0,2,0,3
		c0,1.1,0.3,1.4,1.4,1.4c0.3,0,0.6,0,1,0c0,0.8,0,1.6,0,2.4c-1.3,0.2-2.6,0.2-3.9-0.1c-1.2-0.3-1.8-1.1-1.8-2.4c0-2.1,0-4.3,0-6.4
		C184.1,22.5,184.1,22.2,184.1,21.8z"/>
	<path class="st1" d="M135.8,21.8c-0.7,0-1.3,0-1.9,0c0-0.7,0-1.4,0-2.1c0.6,0,1.2,0,1.9,0c0-1.3,0-2.4,0-3.6c1.1,0,2.2,0,3.3,0
		c0,1.2,0,2.3,0,3.6c0.8,0,1.6,0,2.4,0c0,0.8,0,1.4,0,2.2c-0.8,0-1.6,0-2.4,0c0,0.9,0,1.7,0,2.5c0,1.1,0,2.2,0,3.3
		c0,1.3,0.3,1.6,1.6,1.6c0.2,0,0.5,0,0.8,0c0,0.8,0,1.6,0,2.5c-1.5,0.2-2.9,0.3-4.3-0.3c-0.8-0.3-1.2-0.9-1.3-1.7
		c-0.1-0.4-0.1-0.9-0.1-1.3C135.8,26.2,135.8,24.1,135.8,21.8z"/>
	<path class="st1" d="M153.7,15c0,5.6,0,11,0,16.6c-1.1,0-2.2,0-3.3,0c-0.1,0-0.2-0.2-0.3-0.3c-0.1-0.1,0-0.3,0-0.5c0-5,0-10,0-15
		c0-0.6,0.1-0.9,0.8-0.8C151.8,15.1,152.7,15,153.7,15z"/>
	<path class="st1" d="M214.4,31.7c-1,0-1.9,0-2.9,0c-0.1,0-0.3-0.2-0.4-0.4c-0.1-0.1,0-0.3,0-0.4c0-5,0-10,0-15
		c0-0.6,0.1-0.9,0.8-0.8c0.8,0.1,1.6,0,2.5,0C214.4,20.6,214.4,26.1,214.4,31.7z"/>
	<path class="st1" d="M205.1,15c1,0,1.9,0,2.9,0c0.1,0,0.3,0.3,0.4,0.4c0,0.5,0,1,0,1.5c0,4.6,0,9.2,0,13.7c0,0.3,0,0.5,0,0.9
		c-1.1,0-2.1,0-3.2,0C205.1,26.1,205.1,20.6,205.1,15z"/>
	<path class="st1" d="M230.6,19.7c1,0,2,0,3,0c0,0.7,0,1.3,0,2c1.2-1.6,2.6-2.6,4.7-2.3c0,1,0,2,0,3c-0.4,0-0.7,0-1.1,0
		c-1.9,0-3.1,0.9-3.3,2.8c-0.1,1.8-0.1,3.7-0.1,5.5c0,1,0,1-1,1c-0.7,0-1.5,0-2.2,0C230.6,27.6,230.6,23.7,230.6,19.7z"/>
	<path class="st1" d="M73.4,31.7c-1,0-2,0-2.9,0c-0.5,0-0.4-0.4-0.4-0.6c0-3,0-5.9,0-8.9c0-0.8,0-1.6,0-2.4c1.1,0,2,0,3.1,0
		c0,0.7,0,1.3,0,2c1.2-1.6,2.6-2.6,4.7-2.3c0,1,0,2,0,3c-0.2,0-0.5,0-0.7,0c-2.5-0.1-3.7,1.1-3.8,3.6c0,1.6,0,3.2,0,4.8
		C73.4,31,73.4,31.3,73.4,31.7z"/>
</g>
</svg>
