<?xml version="1.0" encoding="utf-8"?>
<!-- Generator: Adobe Illustrator 27.8.1, SVG Export Plug-In . SVG Version: 6.00 Build 0)  -->
<svg version="1.1" id="Ebene_1" xmlns="http://www.w3.org/2000/svg" xmlns:xlink="http://www.w3.org/1999/xlink" x="0px" y="0px"
	 viewBox="0 0 100 100" style="enable-background:new 0 0 100 100;" xml:space="preserve">
<style type="text/css">
	.st0{opacity:0.8;fill:url(#SVGID_1_);enable-background:new    ;}
	.st1{opacity:0.15;fill:#FFFFFF;enable-background:new    ;}
</style>
<linearGradient id="SVGID_1_" gradientUnits="userSpaceOnUse" x1="219.75723" y1="118.47791" x2="348.90051" y2="20.2157" gradientTransform="matrix(0.94633 -0.32319 -0.32319 -0.94633 -165.94221 217.68147)">
	<stop  offset="0" style="stop-color:#FF5F6D"/>
	<stop  offset="0.513" style="stop-color:#FFC24C"/>
	<stop  offset="1" style="stop-color:#C50048"/>
</linearGradient>
<path class="st0" d="M34.43221,3.23691C8.54068,11.7634-5.53647,39.66471,2.99003,65.55627
	c0.01146,0.03477,0.02295,0.06954,0.03449,0.10431C11.42486,91.27945,39.92508,105.4599,65.6571,96.8289
	c8.23001-2.75323,15.59115-7.62263,21.3447-14.11955c11.34263-12.77025,15.74737-31.00291,9.94112-48.35201
	C88.23791,8.36417,60.45585-5.46811,34.43221,3.23691z"/>
<path class="st1" d="M3.97772,40.58139c-0.94014,0.32207-1.81935,0.73122-2.72902,1.08813
	c-1.38551,8.02158-0.77564,16.26087,1.77582,23.99102c8.39599,25.61887,36.90056,39.8037,62.63258,31.17267
	c8.23049-2.75445,15.59167-7.62539,21.3447-14.12389c-0.16539-0.53101-0.27421-1.06638-0.45702-1.59736
	C74.93665,47.11889,37.97079,28.97326,3.97772,40.58139z"/>
</svg>
